<?xml version="1.0" encoding="utf-8"?>
<!-- Generator: Adobe Illustrator 27.0.0, SVG Export Plug-In . SVG Version: 6.00 Build 0)  -->
<svg version="1.1" id="Layer_1" xmlns="http://www.w3.org/2000/svg" xmlns:xlink="http://www.w3.org/1999/xlink" x="0px" y="0px"
	 viewBox="0 0 400 200" enable-background="new 0 0 400 200" xml:space="preserve">
<metadata><?xpacket begin="﻿" id="W5M0MpCehiHzreSzNTczkc9d"?>
<x:xmpmeta xmlns:x="adobe:ns:meta/" x:xmptk="Adobe XMP Core 7.2-c000 79.1b65a79, 2022/06/13-17:46:14        ">
   <rdf:RDF xmlns:rdf="http://www.w3.org/1999/02/22-rdf-syntax-ns#">
      <rdf:Description rdf:about=""
            xmlns:dc="http://purl.org/dc/elements/1.1/"
            xmlns:xmp="http://ns.adobe.com/xap/1.0/"
            xmlns:xmpGImg="http://ns.adobe.com/xap/1.0/g/img/"
            xmlns:xmpMM="http://ns.adobe.com/xap/1.0/mm/"
            xmlns:stRef="http://ns.adobe.com/xap/1.0/sType/ResourceRef#"
            xmlns:stEvt="http://ns.adobe.com/xap/1.0/sType/ResourceEvent#"
            xmlns:illustrator="http://ns.adobe.com/illustrator/1.0/"
            xmlns:pdf="http://ns.adobe.com/pdf/1.3/"
            xmlns:pdfx="http://ns.adobe.com/pdfx/1.3/"
            xmlns:xmpTPg="http://ns.adobe.com/xap/1.0/t/pg/"
            xmlns:stDim="http://ns.adobe.com/xap/1.0/sType/Dimensions#"
            xmlns:xmpG="http://ns.adobe.com/xap/1.0/g/">
         <dc:format>image/svg+xml</dc:format>
         <dc:title>
            <rdf:Alt>
               <rdf:li xml:lang="x-default">Logo</rdf:li>
            </rdf:Alt>
         </dc:title>
         <xmp:CreatorTool>Adobe Illustrator 27.0 (Macintosh)</xmp:CreatorTool>
         <xmp:CreateDate>2025-11-05T11:19:34+05:30</xmp:CreateDate>
         <xmp:ModifyDate>2025-11-05T11:19:34+05:30</xmp:ModifyDate>
         <xmp:MetadataDate>2025-11-05T11:19:34+05:30</xmp:MetadataDate>
         <xmp:Thumbnails>
            <rdf:Alt>
               <rdf:li rdf:parseType="Resource">
                  <xmpGImg:width>256</xmpGImg:width>
                  <xmpGImg:height>60</xmpGImg:height>
                  <xmpGImg:format>JPEG</xmpGImg:format>
                  <xmpGImg:image>/9j/4AAQSkZJRgABAgEAlgCWAAD/7QAsUGhvdG9zaG9wIDMuMAA4QklNA+0AAAAAABAAlgAAAAEA&#xA;AQCWAAAAAQAB/+4ADkFkb2JlAGTAAAAAAf/bAIQABgQEBAUEBgUFBgkGBQYJCwgGBggLDAoKCwoK&#xA;DBAMDAwMDAwQDA4PEA8ODBMTFBQTExwbGxscHx8fHx8fHx8fHwEHBwcNDA0YEBAYGhURFRofHx8f&#xA;Hx8fHx8fHx8fHx8fHx8fHx8fHx8fHx8fHx8fHx8fHx8fHx8fHx8fHx8fHx8f/8AAEQgAPAEAAwER&#xA;AAIRAQMRAf/EAaIAAAAHAQEBAQEAAAAAAAAAAAQFAwIGAQAHCAkKCwEAAgIDAQEBAQEAAAAAAAAA&#xA;AQACAwQFBgcICQoLEAACAQMDAgQCBgcDBAIGAnMBAgMRBAAFIRIxQVEGE2EicYEUMpGhBxWxQiPB&#xA;UtHhMxZi8CRygvElQzRTkqKyY3PCNUQnk6OzNhdUZHTD0uIIJoMJChgZhJRFRqS0VtNVKBry4/PE&#xA;1OT0ZXWFlaW1xdXl9WZ2hpamtsbW5vY3R1dnd4eXp7fH1+f3OEhYaHiImKi4yNjo+Ck5SVlpeYmZ&#xA;qbnJ2en5KjpKWmp6ipqqusra6voRAAICAQIDBQUEBQYECAMDbQEAAhEDBCESMUEFURNhIgZxgZEy&#xA;obHwFMHR4SNCFVJicvEzJDRDghaSUyWiY7LCB3PSNeJEgxdUkwgJChgZJjZFGidkdFU38qOzwygp&#xA;0+PzhJSktMTU5PRldYWVpbXF1eX1RlZmdoaWprbG1ub2R1dnd4eXp7fH1+f3OEhYaHiImKi4yNjo&#xA;+DlJWWl5iZmpucnZ6fkqOkpaanqKmqq6ytrq+v/aAAwDAQACEQMRAD8A4/5i8xapf6pqP5bfltqN&#xA;7qHkTUL1X0nSXUcpWoshVTIqy8PVUsqsRWgZhyxVPNS8nf8AOUWpJoaXunavKPLfE6IaRq1u0ZBR&#xA;gykMzLwFGck0FK0xVEroH/OVqecH84rp+qDzHJF9Xe+9KChhoB6fpU9HhtXjwpXfrviqF03yZ/zk&#xA;/plprlpZaZqsUHmTmdbBWJ2uGk5c2Z35MrPzbkykE13xVQufy/8A+clLnyjbeT59G1N/LdpKZ7fT&#xA;ikXFXJZvtD4yOTkhS1Ae2Ko3U/LP/OVOqavpGsX9hq8+p6CoXSborEGhApU/DQOzU+NnqWGzVxVf&#xA;Z+Xv+crLPzRf+abaw1aPXtUjMN9ehISZIyAoXgQY14hRw4qONPhpiqBsPIf/ADkzp/lzUvLdnpOq&#xA;xaLrEhm1KzCxkSuwAZi7EuOYUB+LDl3rireoeRP+cmdQ8v6V5evNJ1SXR9EcS6XacY1ELrUKwZaO&#xA;xQMQvIniNhTFUdd+X/8AnKy7812Xm240/VH8w6dELezvvSgBSIBhw9MARkNzblVTyrvXFVPTfK//&#xA;ADlRpmq6xq1hYavBqOvqy6vcqsRablXfeoRl5HgyUK/s0xVBQ/l9/wA5Kw+UJvJ0Wj6ovlq4lE82&#xA;mhY+BcEN9qvMLyUNxDca70riqvqfk3/nKDU4dDhvtM1aaPy3wOiArGpt2jKlHDLQuy8BRnqRSmKo&#xA;saB/zlaPOH+Mf0fqn+I/S+r/AF70rf8AuaU9P0qejw78eFK79cVYjqOs/nB5BudU0vWbi/0Y+a1a&#xA;fWYZBGZbqOV2EkoLBuLMSwLKQT06Yq+5/wArIvKMX5faLH5Plkm8trAf0fLLz9Rl9Ri5fmFbl6nK&#xA;u3y2xVlWKuxV2KuxV2KuxV2KuxV2KuxV2KuxV2KuxV2KuxV8JeTtSTUv+cotOvU0P/DYl1cV0QqY&#xA;2t2WMqwZCE4szAuwoBUmm2Kvu3FXYq7FXYq7FXYq7FXYq7FXYq7FXYq7FXxv/wA5rMF/MPQGZQ4X&#xA;S1JQ1oQLmXY08cVfU/5e6iNS8laRfDRG8uLNACuiOnpm2AYgJw4x0BA5D4RscVZDirsVdirsVdir&#xA;sVdirsVdirsVdirsVdirsVdirsVfDegL5wT/AJyt09fOLxSeYxqkX157enokegPS9OgHwejw413p&#xA;13rir7ikVnjZVcxswIEi05KSOo5BhUe4xV45ovmjzpd/85Ca/wCRpvMNydB0/R0v7ZBBYCUTMbUE&#xA;mT6tUj9+22KvZcVfNPlD81vzLuvyD1X8xLrXWu9Z0bUOP1WW2s1tZ7dXgRopFhhjkFRMx5I4NaYq&#xA;+gPKXmCDzH5X0nX4IzFFqtnBeLCTUp60YcoTtUqTTFXnP/OS3nTzd5V8jx3vlW4NpfRTrc3lyFR+&#xA;NmjpA60cMPimuoh8q4q9O0HVoNZ0PTtXt/8AefUbWG7h3r8E8YkXf5Niry38qfOnmmf82fzC8meY&#xA;r9r0aZOl3oiOqKYrOVmYJVFXlSOaHc4q9Ms7y5uPMWoxK9bGyht4goAoLp+csoJ61ETQkf62KvOf&#xA;zt86+a/L/mr8utM0PUW0+28w6yljqnCKCVpIXmt0opnjl4ECVt1xV6lZW01vEUmu5bxi3ISziIMB&#xA;QDiPRjiWm3hXFXmFz5480p/zkhaeTlvaeW5dEN69j6UO84aQc/V4er+yNudMVer4q+Ov+c0RMfzH&#xA;8uiCvr/o1PSp15/WpeNPpxV9V+S181r5W05fNrQP5iEX+5FrX+5MnI047AV405U2rWm2Kp1irsVd&#xA;irsVdirsVdirsVdirsVdirsVdirsVdirsVfCPkzTbTTP+cn9MsrTXP8AEkEWqqRrZf1GuGeLm7M/&#xA;J+bKzFWbkakVxV93Yq8K8s/+tg+bP/Aci/4lY4q91xV8Xfl95g026/5x5vPy7tZPU82+atWNvo9i&#xA;waNHrJbFnadwIQFEZ25cq0FN8VfW/kny7/hvyfougGQTNpVlBaPMK0d4owrMK9mYEjFWHfmVaab5&#xA;h07zjotw/wC/k0kWFipVm43TK9zUcQdizW5P+riqC/5xd8w/pr8mdGV25z6W02nTGtaei5aIfRDI&#xA;mKsc8y18s/8AOWXl3Ux+7s/NulvYXEn800QYKv3xQffir2Hyl++06fUju2q3U12r9nhLelasPnax&#xA;RYq8i/5yQEp88/lEIWVJT5ijEbupdQ31i1oWUFCRXtyHzxV7nbLcrAi3MiSzj7ckSGNCa9kZpCP+&#xA;COKvDr3/ANbBsP8AwHG/4lLir3XFXxx/zmqqv+Yfl9WYIraWoZzuFBuZd9vDFX1H+W+n2+neRtHs&#xA;rbW28xQQQcY9aZ/VNwvIkMG5SbLXiByNAKYqyTFXYq7FXYq7FXYq7FXYq7FXYq7FXYq7FXYq7FXY&#xA;q+Cvy/ufKNz/AM5KaNP5PtpbTy2+podOt5yS6r6VG+0ztQvyKgmoFMVfeuKvKND8j+abX/nJDzD5&#xA;xnsuHlu+0SOytb71YTznVrQlPSDmUf3L7lKbfLFXq+KvlXTP+cevPbfkdHYS6f8AUPP2h6xJqmho&#xA;txbl2R1hVkEySNEnL0+Qqw+JB0xV9MeWrrWrvy/p9xrll+jtZkgQ6hZc45BHPSkgV4mkRl5brRun&#xA;virWgWVzbwXct2nC7vLy4uJakMShkMdvUrUbW8cY+jFXmv5E+Q/NfknWvO+mahY+h5cvNTN75euR&#xA;LC4kjkZ1b92js6ERrF9pRiq3/nIT8v8Azh5lPlLWPJ0Cza/5e1RZ42Z4oxHC/F2kb1WjDKskEdVB&#xA;qfDFXrFhZQ2NjbWUApBaxJDED14RqFX8Biryz87fJXmvzB5q/LrU9D05tQtvL2spfapwlgiaOFJr&#xA;d6qJ5IuZIibZcVepWVzNcRF5rSWzYNxEU5iLEUB5D0ZJVpv41xV5Tqvk/wA3R/8AORVp51g0mS88&#xA;vRaKbF7mGa1V/XLSHj6c00T/ALQ3pTFXrFpPLPAJJbeS1c1rDMYy4oe5ieRN/wDWxV8ff85qmMfm&#xA;H5fMoJjGlrzC7Er9ZlrTFX05+VVz5Tufy90SfylbyWvl14T9Qt5uXqIokYOH5M5r6nKvxHFWV4q7&#xA;FXYq7FXYq7FXYq7FXYq7FXYq7FXYq7FXYq7FXwv5Z1PV9U/5ypsL/WNIXQdTn1dTdaSooIWEXHc0&#xA;HJnA5s/RieQ64q+6MVSPzZquu6dbWZ0bT5NRuLi59GZIo1kaOIQSy+pSSa0j+3GqfHKo+LuaAqsf&#xA;sPOfnG51TRbefRJbS1vrGzur2Y2dy4imuJJVlgZi0XpNGsaV5KePLfbqqmL655wtlmZtNGoMuorZ&#xA;wwwRPblrf0i7XHOWR048iFrsNjua7KqUfmjzlNZztFoHpXy7QW9wZEjLfpGS1CvKiSAD6uizF1DC&#xA;h5briqDufPHnQxGSy8q3DEG6Esc4aN4ltmtl503WYkTTFEjb97w+BqVYKr9a85+crPV3sdP8tzX9&#xA;s3p+jqASVIwLuNVtmdSK/BcrILgVrFHxc/a2VRdj5q8z3+p6zZR6DLaR26M+hXd4skcN0YG9OVZW&#xA;AJh5tQxEirI3LieJGKpTq/n3znZR6BcrocoTVay3Nilnd3VzFG8iCGGR4+EMEojesvMnia0VlVmx&#xA;VPdZ8xa3BrtpZ2Vr/oUnDlNLa3cvrOZzFLEskK8Lf00X1PUlBVwRT4asFUsfzl5tS61dE0d5vqcO&#xA;ovbWi2t0jVs2YWjfWGHo3AvAAVSL4lrT4qNRVH+WPM/mbVNXktdS0OTTLSC34yXEgko97E6rOsTM&#xA;qq0Hx/un6vQmlKYqyvFXxx/zmozL+Ynl9lUOy6YpCMOQYi5l2I71xV9VeRtR1jUfKOl3us6SND1K&#xA;aEG40kGog4kqqjYcfhAPH9np2xVPcVdirsVdirsVdirsVdirsVdirsVdirsVdirsVdir8/da1/zJ&#xA;5G/P2bW/Ns6a/rej36z38tu6ok/7ocAhC8Y6Rso48fhpx7Yq9j/6Hj0r/qUZ/wDpNT/qjirv+h49&#xA;K/6lGf8A6TU/6o4q7/oePSv+pRn/AOk1P+qOKu/6Hj0r/qUZ/wDpNT/qjirv+h49K/6lGf8A6TU/&#xA;6o4q7/oePSv+pRn/AOk1P+qOKu/6Hj0r/qUZ/wDpNT/qjirv+h49K/6lGf8A6TU/6o4q7/oePSv+&#xA;pRn/AOk1P+qOKu/6Hj0r/qUZ/wDpNT/qjirv+h49K/6lGf8A6TU/6o4q7/oePSv+pRn/AOk1P+qO&#xA;Ku/6Hj0r/qUZ/wDpNT/qjirxf87fzbj/ADO80aZq1ppz6S1nbLaKjziQlvVaQPzCx8ft4q+7PJVn&#xA;5msvKum2vme+j1LXoouN/fQqFjkfkSCoCx9FoK8RXriqd4q7FXYq7FXYq7FXYq7FXYq7FXYq7FXY&#xA;q7FXYq7FXy1/1it/yqW9+setx+un6x9Y+r/4l+s+qK05fHxp1/Z48v2q4qi/Mv8A0KX6Pkb1/R9O&#xA;kP1X6j6NfSqn/HY4/Fx5fb5/FXn74qmcf/QrH/K4ZKfUP0l9U/a+q/oDnxH2a/uvX4f7H/ZYqlfl&#xA;z/oU39FeevR9L6vym+s/Xvq/renV+P6G5fHx5f3fH4q8K9sVQOo/9Cn/APKoNOr6n1T603p/V/q3&#xA;+IfV5vz9f9vhTx+Hjxp2xVPPM/8A0Kh/jPyj6n1L1OC/Vv0d9X/RvDb0f0nT36c9/wCfbFV+j/8A&#xA;QqX/ACtHXuH1D679Xb1vrn1b9B/YX1vqfL916lPtU/yuPfFUk8vf9Cmf8q58z+lX6r6zet9e9D9M&#xA;dF9L9H8v3nCv2Kd+XPbFW/MP/Qpn/KvvKvq1+q+uno/UfQ/S3RvV/SXD4+Fac671pw2xVPdV/wCh&#xA;V/8AlbOic/qH6Q+rD0fqv1T9BV4P6X1rj+79bj9iv+R7YqhfLX/Qp3+KPOXp/VK+m31r6/6H1D06&#xA;t6v6K/2VPsfF04bYqktl/wBCmf8AKob2nqfV/rQ5+t9X/wARerzXj6X7Xp8fD4OPKu9cVTHzJ/0K&#xA;b9Q8i+t6Po84fqv1D6vz9OsfL9M0+Lhy/vOfxV5074qmn/WLH/K4v+PD9JfU/wDl0/QHPh/yJ9fh&#xA;9H+zxVKvLP8A0KZ+jvPPo+j6HKX6z9f9D1PTrJx/Q/L4+HL+74/FXhXtir238pf0D/yrrQ/8P/Xf&#xA;0N6DfUf0lT636fqNT1Kbf6v+TTFWXYq7FXYq7FXYq7FXYq7FXYq7FXYq7FXYq7FXYq7FX//Z</xmpGImg:image>
               </rdf:li>
            </rdf:Alt>
         </xmp:Thumbnails>
         <xmpMM:RenditionClass>proof:pdf</xmpMM:RenditionClass>
         <xmpMM:OriginalDocumentID>uuid:65E6390686CF11DBA6E2D887CEACB407</xmpMM:OriginalDocumentID>
         <xmpMM:DocumentID>xmp.did:c23c17f6-f767-463a-918b-d5e975d53f52</xmpMM:DocumentID>
         <xmpMM:InstanceID>xmp.iid:c23c17f6-f767-463a-918b-d5e975d53f52</xmpMM:InstanceID>
         <xmpMM:DerivedFrom rdf:parseType="Resource">
            <stRef:instanceID>uuid:9f9a1960-f60c-4745-a326-385b9e0064a2</stRef:instanceID>
            <stRef:documentID>xmp.did:0b5a1911-6690-4ae9-a68a-b6eb10a06f78</stRef:documentID>
            <stRef:originalDocumentID>uuid:65E6390686CF11DBA6E2D887CEACB407</stRef:originalDocumentID>
            <stRef:renditionClass>proof:pdf</stRef:renditionClass>
         </xmpMM:DerivedFrom>
         <xmpMM:History>
            <rdf:Seq>
               <rdf:li rdf:parseType="Resource">
                  <stEvt:action>saved</stEvt:action>
                  <stEvt:instanceID>xmp.iid:4b6139d3-bc7d-42eb-8b47-9fff3cd99295</stEvt:instanceID>
                  <stEvt:when>2025-10-09T13:22:13+05:30</stEvt:when>
                  <stEvt:softwareAgent>Adobe Illustrator 27.0 (Macintosh)</stEvt:softwareAgent>
                  <stEvt:changed>/</stEvt:changed>
               </rdf:li>
               <rdf:li rdf:parseType="Resource">
                  <stEvt:action>saved</stEvt:action>
                  <stEvt:instanceID>xmp.iid:c23c17f6-f767-463a-918b-d5e975d53f52</stEvt:instanceID>
                  <stEvt:when>2025-11-05T11:19:34+05:30</stEvt:when>
                  <stEvt:softwareAgent>Adobe Illustrator 27.0 (Macintosh)</stEvt:softwareAgent>
                  <stEvt:changed>/</stEvt:changed>
               </rdf:li>
            </rdf:Seq>
         </xmpMM:History>
         <illustrator:StartupProfile>Web</illustrator:StartupProfile>
         <illustrator:CreatorSubTool>AIRobin</illustrator:CreatorSubTool>
         <pdf:Producer>Adobe PDF library 16.07</pdf:Producer>
         <pdfx:CreatorVersion>21.0.0</pdfx:CreatorVersion>
         <xmpTPg:NPages>1</xmpTPg:NPages>
         <xmpTPg:HasVisibleTransparency>False</xmpTPg:HasVisibleTransparency>
         <xmpTPg:HasVisibleOverprint>False</xmpTPg:HasVisibleOverprint>
         <xmpTPg:MaxPageSize rdf:parseType="Resource">
            <stDim:w>400.000000</stDim:w>
            <stDim:h>200.000000</stDim:h>
            <stDim:unit>Pixels</stDim:unit>
         </xmpTPg:MaxPageSize>
         <xmpTPg:PlateNames>
            <rdf:Seq>
               <rdf:li>Cyan</rdf:li>
               <rdf:li>Magenta</rdf:li>
               <rdf:li>Yellow</rdf:li>
               <rdf:li>Black</rdf:li>
            </rdf:Seq>
         </xmpTPg:PlateNames>
         <xmpTPg:SwatchGroups>
            <rdf:Seq>
               <rdf:li rdf:parseType="Resource">
                  <xmpG:groupName>Default Swatch Group</xmpG:groupName>
                  <xmpG:groupType>0</xmpG:groupType>
                  <xmpG:Colorants>
                     <rdf:Seq>
                        <rdf:li rdf:parseType="Resource">
                           <xmpG:swatchName>White</xmpG:swatchName>
                           <xmpG:mode>RGB</xmpG:mode>
                           <xmpG:type>PROCESS</xmpG:type>
                           <xmpG:red>255</xmpG:red>
                           <xmpG:green>255</xmpG:green>
                           <xmpG:blue>255</xmpG:blue>
                        </rdf:li>
                        <rdf:li rdf:parseType="Resource">
                           <xmpG:swatchName>Black</xmpG:swatchName>
                           <xmpG:mode>RGB</xmpG:mode>
                           <xmpG:type>PROCESS</xmpG:type>
                           <xmpG:red>0</xmpG:red>
                           <xmpG:green>0</xmpG:green>
                           <xmpG:blue>0</xmpG:blue>
                        </rdf:li>
                        <rdf:li rdf:parseType="Resource">
                           <xmpG:swatchName>RGB Red</xmpG:swatchName>
                           <xmpG:mode>RGB</xmpG:mode>
                           <xmpG:type>PROCESS</xmpG:type>
                           <xmpG:red>255</xmpG:red>
                           <xmpG:green>0</xmpG:green>
                           <xmpG:blue>0</xmpG:blue>
                        </rdf:li>
                        <rdf:li rdf:parseType="Resource">
                           <xmpG:swatchName>RGB Yellow</xmpG:swatchName>
                           <xmpG:mode>RGB</xmpG:mode>
                           <xmpG:type>PROCESS</xmpG:type>
                           <xmpG:red>255</xmpG:red>
                           <xmpG:green>255</xmpG:green>
                           <xmpG:blue>0</xmpG:blue>
                        </rdf:li>
                        <rdf:li rdf:parseType="Resource">
                           <xmpG:swatchName>RGB Green</xmpG:swatchName>
                           <xmpG:mode>RGB</xmpG:mode>
                           <xmpG:type>PROCESS</xmpG:type>
                           <xmpG:red>0</xmpG:red>
                           <xmpG:green>255</xmpG:green>
                           <xmpG:blue>0</xmpG:blue>
                        </rdf:li>
                        <rdf:li rdf:parseType="Resource">
                           <xmpG:swatchName>RGB Cyan</xmpG:swatchName>
                           <xmpG:mode>RGB</xmpG:mode>
                           <xmpG:type>PROCESS</xmpG:type>
                           <xmpG:red>0</xmpG:red>
                           <xmpG:green>255</xmpG:green>
                           <xmpG:blue>255</xmpG:blue>
                        </rdf:li>
                        <rdf:li rdf:parseType="Resource">
                           <xmpG:swatchName>RGB Blue</xmpG:swatchName>
                           <xmpG:mode>RGB</xmpG:mode>
                           <xmpG:type>PROCESS</xmpG:type>
                           <xmpG:red>0</xmpG:red>
                           <xmpG:green>0</xmpG:green>
                           <xmpG:blue>255</xmpG:blue>
                        </rdf:li>
                        <rdf:li rdf:parseType="Resource">
                           <xmpG:swatchName>RGB Magenta</xmpG:swatchName>
                           <xmpG:mode>RGB</xmpG:mode>
                           <xmpG:type>PROCESS</xmpG:type>
                           <xmpG:red>255</xmpG:red>
                           <xmpG:green>0</xmpG:green>
                           <xmpG:blue>255</xmpG:blue>
                        </rdf:li>
                        <rdf:li rdf:parseType="Resource">
                           <xmpG:swatchName>R=193 G=39 B=45</xmpG:swatchName>
                           <xmpG:mode>RGB</xmpG:mode>
                           <xmpG:type>PROCESS</xmpG:type>
                           <xmpG:red>193</xmpG:red>
                           <xmpG:green>39</xmpG:green>
                           <xmpG:blue>45</xmpG:blue>
                        </rdf:li>
                        <rdf:li rdf:parseType="Resource">
                           <xmpG:swatchName>R=237 G=28 B=36</xmpG:swatchName>
                           <xmpG:mode>RGB</xmpG:mode>
                           <xmpG:type>PROCESS</xmpG:type>
                           <xmpG:red>237</xmpG:red>
                           <xmpG:green>28</xmpG:green>
                           <xmpG:blue>36</xmpG:blue>
                        </rdf:li>
                        <rdf:li rdf:parseType="Resource">
                           <xmpG:swatchName>R=241 G=90 B=36</xmpG:swatchName>
                           <xmpG:mode>RGB</xmpG:mode>
                           <xmpG:type>PROCESS</xmpG:type>
                           <xmpG:red>241</xmpG:red>
                           <xmpG:green>90</xmpG:green>
                           <xmpG:blue>36</xmpG:blue>
                        </rdf:li>
                        <rdf:li rdf:parseType="Resource">
                           <xmpG:swatchName>R=247 G=147 B=30</xmpG:swatchName>
                           <xmpG:mode>RGB</xmpG:mode>
                           <xmpG:type>PROCESS</xmpG:type>
                           <xmpG:red>247</xmpG:red>
                           <xmpG:green>147</xmpG:green>
                           <xmpG:blue>30</xmpG:blue>
                        </rdf:li>
                        <rdf:li rdf:parseType="Resource">
                           <xmpG:swatchName>R=251 G=176 B=59</xmpG:swatchName>
                           <xmpG:mode>RGB</xmpG:mode>
                           <xmpG:type>PROCESS</xmpG:type>
                           <xmpG:red>251</xmpG:red>
                           <xmpG:green>176</xmpG:green>
                           <xmpG:blue>59</xmpG:blue>
                        </rdf:li>
                        <rdf:li rdf:parseType="Resource">
                           <xmpG:swatchName>R=252 G=238 B=33</xmpG:swatchName>
                           <xmpG:mode>RGB</xmpG:mode>
                           <xmpG:type>PROCESS</xmpG:type>
                           <xmpG:red>252</xmpG:red>
                           <xmpG:green>238</xmpG:green>
                           <xmpG:blue>33</xmpG:blue>
                        </rdf:li>
                        <rdf:li rdf:parseType="Resource">
                           <xmpG:swatchName>R=217 G=224 B=33</xmpG:swatchName>
                           <xmpG:mode>RGB</xmpG:mode>
                           <xmpG:type>PROCESS</xmpG:type>
                           <xmpG:red>217</xmpG:red>
                           <xmpG:green>224</xmpG:green>
                           <xmpG:blue>33</xmpG:blue>
                        </rdf:li>
                        <rdf:li rdf:parseType="Resource">
                           <xmpG:swatchName>R=140 G=198 B=63</xmpG:swatchName>
                           <xmpG:mode>RGB</xmpG:mode>
                           <xmpG:type>PROCESS</xmpG:type>
                           <xmpG:red>140</xmpG:red>
                           <xmpG:green>198</xmpG:green>
                           <xmpG:blue>63</xmpG:blue>
                        </rdf:li>
                        <rdf:li rdf:parseType="Resource">
                           <xmpG:swatchName>R=57 G=181 B=74</xmpG:swatchName>
                           <xmpG:mode>RGB</xmpG:mode>
                           <xmpG:type>PROCESS</xmpG:type>
                           <xmpG:red>57</xmpG:red>
                           <xmpG:green>181</xmpG:green>
                           <xmpG:blue>74</xmpG:blue>
                        </rdf:li>
                        <rdf:li rdf:parseType="Resource">
                           <xmpG:swatchName>R=0 G=146 B=69</xmpG:swatchName>
                           <xmpG:mode>RGB</xmpG:mode>
                           <xmpG:type>PROCESS</xmpG:type>
                           <xmpG:red>0</xmpG:red>
                           <xmpG:green>146</xmpG:green>
                           <xmpG:blue>69</xmpG:blue>
                        </rdf:li>
                        <rdf:li rdf:parseType="Resource">
                           <xmpG:swatchName>R=0 G=104 B=55</xmpG:swatchName>
                           <xmpG:mode>RGB</xmpG:mode>
                           <xmpG:type>PROCESS</xmpG:type>
                           <xmpG:red>0</xmpG:red>
                           <xmpG:green>104</xmpG:green>
                           <xmpG:blue>55</xmpG:blue>
                        </rdf:li>
                        <rdf:li rdf:parseType="Resource">
                           <xmpG:swatchName>R=34 G=181 B=115</xmpG:swatchName>
                           <xmpG:mode>RGB</xmpG:mode>
                           <xmpG:type>PROCESS</xmpG:type>
                           <xmpG:red>34</xmpG:red>
                           <xmpG:green>181</xmpG:green>
                           <xmpG:blue>115</xmpG:blue>
                        </rdf:li>
                        <rdf:li rdf:parseType="Resource">
                           <xmpG:swatchName>R=0 G=169 B=157</xmpG:swatchName>
                           <xmpG:mode>RGB</xmpG:mode>
                           <xmpG:type>PROCESS</xmpG:type>
                           <xmpG:red>0</xmpG:red>
                           <xmpG:green>169</xmpG:green>
                           <xmpG:blue>157</xmpG:blue>
                        </rdf:li>
                        <rdf:li rdf:parseType="Resource">
                           <xmpG:swatchName>R=41 G=171 B=226</xmpG:swatchName>
                           <xmpG:mode>RGB</xmpG:mode>
                           <xmpG:type>PROCESS</xmpG:type>
                           <xmpG:red>41</xmpG:red>
                           <xmpG:green>171</xmpG:green>
                           <xmpG:blue>226</xmpG:blue>
                        </rdf:li>
                        <rdf:li rdf:parseType="Resource">
                           <xmpG:swatchName>R=0 G=113 B=188</xmpG:swatchName>
                           <xmpG:mode>RGB</xmpG:mode>
                           <xmpG:type>PROCESS</xmpG:type>
                           <xmpG:red>0</xmpG:red>
                           <xmpG:green>113</xmpG:green>
                           <xmpG:blue>188</xmpG:blue>
                        </rdf:li>
                        <rdf:li rdf:parseType="Resource">
                           <xmpG:swatchName>R=46 G=49 B=146</xmpG:swatchName>
                           <xmpG:mode>RGB</xmpG:mode>
                           <xmpG:type>PROCESS</xmpG:type>
                           <xmpG:red>46</xmpG:red>
                           <xmpG:green>49</xmpG:green>
                           <xmpG:blue>146</xmpG:blue>
                        </rdf:li>
                        <rdf:li rdf:parseType="Resource">
                           <xmpG:swatchName>R=27 G=20 B=100</xmpG:swatchName>
                           <xmpG:mode>RGB</xmpG:mode>
                           <xmpG:type>PROCESS</xmpG:type>
                           <xmpG:red>27</xmpG:red>
                           <xmpG:green>20</xmpG:green>
                           <xmpG:blue>100</xmpG:blue>
                        </rdf:li>
                        <rdf:li rdf:parseType="Resource">
                           <xmpG:swatchName>R=102 G=45 B=145</xmpG:swatchName>
                           <xmpG:mode>RGB</xmpG:mode>
                           <xmpG:type>PROCESS</xmpG:type>
                           <xmpG:red>102</xmpG:red>
                           <xmpG:green>45</xmpG:green>
                           <xmpG:blue>145</xmpG:blue>
                        </rdf:li>
                        <rdf:li rdf:parseType="Resource">
                           <xmpG:swatchName>R=147 G=39 B=143</xmpG:swatchName>
                           <xmpG:mode>RGB</xmpG:mode>
                           <xmpG:type>PROCESS</xmpG:type>
                           <xmpG:red>147</xmpG:red>
                           <xmpG:green>39</xmpG:green>
                           <xmpG:blue>143</xmpG:blue>
                        </rdf:li>
                        <rdf:li rdf:parseType="Resource">
                           <xmpG:swatchName>R=158 G=0 B=93</xmpG:swatchName>
                           <xmpG:mode>RGB</xmpG:mode>
                           <xmpG:type>PROCESS</xmpG:type>
                           <xmpG:red>158</xmpG:red>
                           <xmpG:green>0</xmpG:green>
                           <xmpG:blue>93</xmpG:blue>
                        </rdf:li>
                        <rdf:li rdf:parseType="Resource">
                           <xmpG:swatchName>R=212 G=20 B=90</xmpG:swatchName>
                           <xmpG:mode>RGB</xmpG:mode>
                           <xmpG:type>PROCESS</xmpG:type>
                           <xmpG:red>212</xmpG:red>
                           <xmpG:green>20</xmpG:green>
                           <xmpG:blue>90</xmpG:blue>
                        </rdf:li>
                        <rdf:li rdf:parseType="Resource">
                           <xmpG:swatchName>R=237 G=30 B=121</xmpG:swatchName>
                           <xmpG:mode>RGB</xmpG:mode>
                           <xmpG:type>PROCESS</xmpG:type>
                           <xmpG:red>237</xmpG:red>
                           <xmpG:green>30</xmpG:green>
                           <xmpG:blue>121</xmpG:blue>
                        </rdf:li>
                        <rdf:li rdf:parseType="Resource">
                           <xmpG:swatchName>R=199 G=178 B=153</xmpG:swatchName>
                           <xmpG:mode>RGB</xmpG:mode>
                           <xmpG:type>PROCESS</xmpG:type>
                           <xmpG:red>199</xmpG:red>
                           <xmpG:green>178</xmpG:green>
                           <xmpG:blue>153</xmpG:blue>
                        </rdf:li>
                        <rdf:li rdf:parseType="Resource">
                           <xmpG:swatchName>R=153 G=134 B=117</xmpG:swatchName>
                           <xmpG:mode>RGB</xmpG:mode>
                           <xmpG:type>PROCESS</xmpG:type>
                           <xmpG:red>153</xmpG:red>
                           <xmpG:green>134</xmpG:green>
                           <xmpG:blue>117</xmpG:blue>
                        </rdf:li>
                        <rdf:li rdf:parseType="Resource">
                           <xmpG:swatchName>R=115 G=99 B=87</xmpG:swatchName>
                           <xmpG:mode>RGB</xmpG:mode>
                           <xmpG:type>PROCESS</xmpG:type>
                           <xmpG:red>115</xmpG:red>
                           <xmpG:green>99</xmpG:green>
                           <xmpG:blue>87</xmpG:blue>
                        </rdf:li>
                        <rdf:li rdf:parseType="Resource">
                           <xmpG:swatchName>R=83 G=71 B=65</xmpG:swatchName>
                           <xmpG:mode>RGB</xmpG:mode>
                           <xmpG:type>PROCESS</xmpG:type>
                           <xmpG:red>83</xmpG:red>
                           <xmpG:green>71</xmpG:green>
                           <xmpG:blue>65</xmpG:blue>
                        </rdf:li>
                        <rdf:li rdf:parseType="Resource">
                           <xmpG:swatchName>R=198 G=156 B=109</xmpG:swatchName>
                           <xmpG:mode>RGB</xmpG:mode>
                           <xmpG:type>PROCESS</xmpG:type>
                           <xmpG:red>198</xmpG:red>
                           <xmpG:green>156</xmpG:green>
                           <xmpG:blue>109</xmpG:blue>
                        </rdf:li>
                        <rdf:li rdf:parseType="Resource">
                           <xmpG:swatchName>R=166 G=124 B=82</xmpG:swatchName>
                           <xmpG:mode>RGB</xmpG:mode>
                           <xmpG:type>PROCESS</xmpG:type>
                           <xmpG:red>166</xmpG:red>
                           <xmpG:green>124</xmpG:green>
                           <xmpG:blue>82</xmpG:blue>
                        </rdf:li>
                        <rdf:li rdf:parseType="Resource">
                           <xmpG:swatchName>R=140 G=98 B=57</xmpG:swatchName>
                           <xmpG:mode>RGB</xmpG:mode>
                           <xmpG:type>PROCESS</xmpG:type>
                           <xmpG:red>140</xmpG:red>
                           <xmpG:green>98</xmpG:green>
                           <xmpG:blue>57</xmpG:blue>
                        </rdf:li>
                        <rdf:li rdf:parseType="Resource">
                           <xmpG:swatchName>R=117 G=76 B=36</xmpG:swatchName>
                           <xmpG:mode>RGB</xmpG:mode>
                           <xmpG:type>PROCESS</xmpG:type>
                           <xmpG:red>117</xmpG:red>
                           <xmpG:green>76</xmpG:green>
                           <xmpG:blue>36</xmpG:blue>
                        </rdf:li>
                        <rdf:li rdf:parseType="Resource">
                           <xmpG:swatchName>R=96 G=56 B=19</xmpG:swatchName>
                           <xmpG:mode>RGB</xmpG:mode>
                           <xmpG:type>PROCESS</xmpG:type>
                           <xmpG:red>96</xmpG:red>
                           <xmpG:green>56</xmpG:green>
                           <xmpG:blue>19</xmpG:blue>
                        </rdf:li>
                        <rdf:li rdf:parseType="Resource">
                           <xmpG:swatchName>R=66 G=33 B=11</xmpG:swatchName>
                           <xmpG:mode>RGB</xmpG:mode>
                           <xmpG:type>PROCESS</xmpG:type>
                           <xmpG:red>66</xmpG:red>
                           <xmpG:green>33</xmpG:green>
                           <xmpG:blue>11</xmpG:blue>
                        </rdf:li>
                     </rdf:Seq>
                  </xmpG:Colorants>
               </rdf:li>
               <rdf:li rdf:parseType="Resource">
                  <xmpG:groupName>Grays</xmpG:groupName>
                  <xmpG:groupType>1</xmpG:groupType>
                  <xmpG:Colorants>
                     <rdf:Seq>
                        <rdf:li rdf:parseType="Resource">
                           <xmpG:swatchName>R=0 G=0 B=0</xmpG:swatchName>
                           <xmpG:mode>RGB</xmpG:mode>
                           <xmpG:type>PROCESS</xmpG:type>
                           <xmpG:red>0</xmpG:red>
                           <xmpG:green>0</xmpG:green>
                           <xmpG:blue>0</xmpG:blue>
                        </rdf:li>
                        <rdf:li rdf:parseType="Resource">
                           <xmpG:swatchName>R=26 G=26 B=26</xmpG:swatchName>
                           <xmpG:mode>RGB</xmpG:mode>
                           <xmpG:type>PROCESS</xmpG:type>
                           <xmpG:red>26</xmpG:red>
                           <xmpG:green>26</xmpG:green>
                           <xmpG:blue>26</xmpG:blue>
                        </rdf:li>
                        <rdf:li rdf:parseType="Resource">
                           <xmpG:swatchName>R=51 G=51 B=51</xmpG:swatchName>
                           <xmpG:mode>RGB</xmpG:mode>
                           <xmpG:type>PROCESS</xmpG:type>
                           <xmpG:red>51</xmpG:red>
                           <xmpG:green>51</xmpG:green>
                           <xmpG:blue>51</xmpG:blue>
                        </rdf:li>
                        <rdf:li rdf:parseType="Resource">
                           <xmpG:swatchName>R=77 G=77 B=77</xmpG:swatchName>
                           <xmpG:mode>RGB</xmpG:mode>
                           <xmpG:type>PROCESS</xmpG:type>
                           <xmpG:red>77</xmpG:red>
                           <xmpG:green>77</xmpG:green>
                           <xmpG:blue>77</xmpG:blue>
                        </rdf:li>
                        <rdf:li rdf:parseType="Resource">
                           <xmpG:swatchName>R=102 G=102 B=102</xmpG:swatchName>
                           <xmpG:mode>RGB</xmpG:mode>
                           <xmpG:type>PROCESS</xmpG:type>
                           <xmpG:red>102</xmpG:red>
                           <xmpG:green>102</xmpG:green>
                           <xmpG:blue>102</xmpG:blue>
                        </rdf:li>
                        <rdf:li rdf:parseType="Resource">
                           <xmpG:swatchName>R=128 G=128 B=128</xmpG:swatchName>
                           <xmpG:mode>RGB</xmpG:mode>
                           <xmpG:type>PROCESS</xmpG:type>
                           <xmpG:red>128</xmpG:red>
                           <xmpG:green>128</xmpG:green>
                           <xmpG:blue>128</xmpG:blue>
                        </rdf:li>
                        <rdf:li rdf:parseType="Resource">
                           <xmpG:swatchName>R=153 G=153 B=153</xmpG:swatchName>
                           <xmpG:mode>RGB</xmpG:mode>
                           <xmpG:type>PROCESS</xmpG:type>
                           <xmpG:red>153</xmpG:red>
                           <xmpG:green>153</xmpG:green>
                           <xmpG:blue>153</xmpG:blue>
                        </rdf:li>
                        <rdf:li rdf:parseType="Resource">
                           <xmpG:swatchName>R=179 G=179 B=179</xmpG:swatchName>
                           <xmpG:mode>RGB</xmpG:mode>
                           <xmpG:type>PROCESS</xmpG:type>
                           <xmpG:red>179</xmpG:red>
                           <xmpG:green>179</xmpG:green>
                           <xmpG:blue>179</xmpG:blue>
                        </rdf:li>
                        <rdf:li rdf:parseType="Resource">
                           <xmpG:swatchName>R=204 G=204 B=204</xmpG:swatchName>
                           <xmpG:mode>RGB</xmpG:mode>
                           <xmpG:type>PROCESS</xmpG:type>
                           <xmpG:red>204</xmpG:red>
                           <xmpG:green>204</xmpG:green>
                           <xmpG:blue>204</xmpG:blue>
                        </rdf:li>
                        <rdf:li rdf:parseType="Resource">
                           <xmpG:swatchName>R=230 G=230 B=230</xmpG:swatchName>
                           <xmpG:mode>RGB</xmpG:mode>
                           <xmpG:type>PROCESS</xmpG:type>
                           <xmpG:red>230</xmpG:red>
                           <xmpG:green>230</xmpG:green>
                           <xmpG:blue>230</xmpG:blue>
                        </rdf:li>
                        <rdf:li rdf:parseType="Resource">
                           <xmpG:swatchName>R=242 G=242 B=242</xmpG:swatchName>
                           <xmpG:mode>RGB</xmpG:mode>
                           <xmpG:type>PROCESS</xmpG:type>
                           <xmpG:red>242</xmpG:red>
                           <xmpG:green>242</xmpG:green>
                           <xmpG:blue>242</xmpG:blue>
                        </rdf:li>
                     </rdf:Seq>
                  </xmpG:Colorants>
               </rdf:li>
               <rdf:li rdf:parseType="Resource">
                  <xmpG:groupName>Web Color Group</xmpG:groupName>
                  <xmpG:groupType>1</xmpG:groupType>
                  <xmpG:Colorants>
                     <rdf:Seq>
                        <rdf:li rdf:parseType="Resource">
                           <xmpG:swatchName>R=63 G=169 B=245</xmpG:swatchName>
                           <xmpG:mode>RGB</xmpG:mode>
                           <xmpG:type>PROCESS</xmpG:type>
                           <xmpG:red>63</xmpG:red>
                           <xmpG:green>169</xmpG:green>
                           <xmpG:blue>245</xmpG:blue>
                        </rdf:li>
                        <rdf:li rdf:parseType="Resource">
                           <xmpG:swatchName>R=122 G=201 B=67</xmpG:swatchName>
                           <xmpG:mode>RGB</xmpG:mode>
                           <xmpG:type>PROCESS</xmpG:type>
                           <xmpG:red>122</xmpG:red>
                           <xmpG:green>201</xmpG:green>
                           <xmpG:blue>67</xmpG:blue>
                        </rdf:li>
                        <rdf:li rdf:parseType="Resource">
                           <xmpG:swatchName>R=255 G=147 B=30</xmpG:swatchName>
                           <xmpG:mode>RGB</xmpG:mode>
                           <xmpG:type>PROCESS</xmpG:type>
                           <xmpG:red>255</xmpG:red>
                           <xmpG:green>147</xmpG:green>
                           <xmpG:blue>30</xmpG:blue>
                        </rdf:li>
                        <rdf:li rdf:parseType="Resource">
                           <xmpG:swatchName>R=255 G=29 B=37</xmpG:swatchName>
                           <xmpG:mode>RGB</xmpG:mode>
                           <xmpG:type>PROCESS</xmpG:type>
                           <xmpG:red>255</xmpG:red>
                           <xmpG:green>29</xmpG:green>
                           <xmpG:blue>37</xmpG:blue>
                        </rdf:li>
                        <rdf:li rdf:parseType="Resource">
                           <xmpG:swatchName>R=255 G=123 B=172</xmpG:swatchName>
                           <xmpG:mode>RGB</xmpG:mode>
                           <xmpG:type>PROCESS</xmpG:type>
                           <xmpG:red>255</xmpG:red>
                           <xmpG:green>123</xmpG:green>
                           <xmpG:blue>172</xmpG:blue>
                        </rdf:li>
                        <rdf:li rdf:parseType="Resource">
                           <xmpG:swatchName>R=189 G=204 B=212</xmpG:swatchName>
                           <xmpG:mode>RGB</xmpG:mode>
                           <xmpG:type>PROCESS</xmpG:type>
                           <xmpG:red>189</xmpG:red>
                           <xmpG:green>204</xmpG:green>
                           <xmpG:blue>212</xmpG:blue>
                        </rdf:li>
                     </rdf:Seq>
                  </xmpG:Colorants>
               </rdf:li>
            </rdf:Seq>
         </xmpTPg:SwatchGroups>
      </rdf:Description>
   </rdf:RDF>
</x:xmpmeta>
                                                                                                    
                                                                                                    
                                                                                                    
                                                                                                    
                                                                                                    
                                                                                                    
                                                                                                    
                                                                                                    
                                                                                                    
                                                                                                    
                                                                                                    
                                                                                                    
                                                                                                    
                                                                                                    
                                                                                                    
                                                                                                    
                                                                                                    
                                                                                                    
                                                                                                    
                                                                                                    
                           
<?xpacket end="w"?>
	</metadata>
<g>
	<g>
		<g>
			<path d="M390,14.8V8.3h-6.6c0,3.6-2.9,6.6-6.6,6.6c-3.6,0-6.6-2.9-6.6-6.6h-6.6c0,3.6-2.9,6.6-6.6,6.6c-3.6,0-6.6-2.9-6.6-6.6
				h-6.6c0,3.6-2.9,6.6-6.6,6.6c-3.6,0-6.6-2.9-6.6-6.6h-6.6c0,3.6-2.9,6.6-6.6,6.6c-3.6,0-6.6-2.9-6.6-6.6h-6.6
				c0,3.6-2.9,6.6-6.6,6.6c-3.6,0-6.6-2.9-6.6-6.6h-6.6c0,3.6-2.9,6.6-6.6,6.6c-3.6,0-6.6-2.9-6.6-6.6h-6.6c0,3.6-2.9,6.6-6.6,6.6
				c-3.6,0-6.6-2.9-6.6-6.6h-6.6c0,3.6-2.9,6.6-6.6,6.6c-3.6,0-6.6-2.9-6.6-6.6h-6.6c0,3.6-2.9,6.6-6.6,6.6c-3.6,0-6.6-2.9-6.6-6.6
				h-6.6c0,3.6-2.9,6.6-6.6,6.6c-3.6,0-6.6-2.9-6.6-6.6h-6.6c0,3.6-2.9,6.6-6.6,6.6s-6.6-2.9-6.6-6.6h-6.6c0,3.6-2.9,6.6-6.6,6.6
				s-6.6-2.9-6.6-6.6h-6.6c0,3.6-2.9,6.6-6.6,6.6s-6.6-2.9-6.6-6.6h-6.6c0,3.6-2.9,6.6-6.6,6.6s-6.6-2.9-6.6-6.6h-6.6
				c0,3.6-2.9,6.6-6.6,6.6c-3.6,0-6.6-2.9-6.6-6.6h-6.6c0,3.6-2.9,6.6-6.6,6.6c-3.6,0-6.6-2.9-6.6-6.6H69c0,3.6-2.9,6.6-6.6,6.6
				c-3.6,0-6.6-2.9-6.6-6.6h-6.6c0,3.6-2.9,6.6-6.6,6.6c-3.6,0-6.6-2.9-6.6-6.6h-6.5c0,3.6-2.9,6.6-6.6,6.6c-3.6,0-6.6-2.9-6.6-6.6
				H10v6.6c3.6,0,6.6,2.9,6.6,6.6c0,3.6-2.9,6.6-6.6,6.6v6.6c3.6,0,6.6,2.9,6.6,6.6c0,3.6-2.9,6.6-6.6,6.6v6.6
				c3.6,0,6.6,2.9,6.6,6.6c0,3.6-2.9,6.6-6.6,6.6v6.6c3.6,0,6.6,2.9,6.6,6.6c0,3.6-2.9,6.6-6.6,6.6v6.6c3.6,0,6.6,2.9,6.6,6.6
				c0,3.6-2.9,6.6-6.6,6.6v6.6c3.6,0,6.6,2.9,6.6,6.6c0,3.6-2.9,6.6-6.6,6.6v6.6c3.6,0,6.6,2.9,6.6,6.6c0,3.6-2.9,6.6-6.6,6.6v6.6
				c3.6,0,6.6,2.9,6.6,6.6c0,3.6-2.9,6.6-6.6,6.6v6.6c3.6,0,6.6,2.9,6.6,6.6c0,3.6-2.9,6.6-6.6,6.6v6.6h6.5c0-3.6,2.9-6.6,6.6-6.6
				s6.6,2.9,6.6,6.6h6.6c0-3.6,2.9-6.6,6.6-6.6c3.6,0,6.6,2.9,6.6,6.6h6.6c0-3.6,2.9-6.6,6.6-6.6c3.6,0,6.6,2.9,6.6,6.6h6.6
				c0-3.6,2.9-6.6,6.6-6.6c3.6,0,6.6,2.9,6.6,6.6h6.6c0-3.6,2.9-6.6,6.6-6.6c3.6,0,6.6,2.9,6.6,6.6h6.6c0-3.6,2.9-6.6,6.6-6.6
				s6.6,2.9,6.6,6.6h6.6c0-3.6,2.9-6.6,6.6-6.6s6.6,2.9,6.6,6.6h6.6c0-3.6,2.9-6.6,6.6-6.6s6.6,2.9,6.6,6.6h6.6
				c0-3.6,2.9-6.6,6.6-6.6s6.6,2.9,6.6,6.6h6.6c0-3.6,2.9-6.6,6.6-6.6c3.6,0,6.6,2.9,6.6,6.6h6.6c0-3.6,2.9-6.6,6.6-6.6
				c3.6,0,6.6,2.9,6.6,6.6h6.6c0-3.6,2.9-6.6,6.6-6.6c3.6,0,6.6,2.9,6.6,6.6h6.6c0-3.6,2.9-6.6,6.6-6.6c3.6,0,6.6,2.9,6.6,6.6h6.6
				c0-3.6,2.9-6.6,6.6-6.6c3.6,0,6.6,2.9,6.6,6.6h6.6c0-3.6,2.9-6.6,6.6-6.6c3.6,0,6.6,2.9,6.6,6.6h6.6c0-3.6,2.9-6.6,6.6-6.6
				c3.6,0,6.6,2.9,6.6,6.6h6.6c0-3.6,2.9-6.6,6.6-6.6c3.6,0,6.6,2.9,6.6,6.6h6.6c0-3.6,2.9-6.6,6.6-6.6c3.6,0,6.6,2.9,6.6,6.6h6.6
				c0-3.6,2.9-6.6,6.6-6.6c3.6,0,6.6,2.9,6.6,6.6h6.6v-6.6c-3.6,0-6.6-2.9-6.6-6.6c0-3.6,2.9-6.6,6.6-6.6v-6.6
				c-3.6,0-6.6-2.9-6.6-6.6c0-3.6,2.9-6.6,6.6-6.6v-6.6c-3.6,0-6.6-2.9-6.6-6.6c0-3.6,2.9-6.6,6.6-6.6v-6.6c-3.6,0-6.6-2.9-6.6-6.6
				c0-3.6,2.9-6.6,6.6-6.6v-6.6c-3.6,0-6.6-2.9-6.6-6.6c0-3.6,2.9-6.6,6.6-6.6v-6.6c-3.6,0-6.6-2.9-6.6-6.6c0-3.6,2.9-6.6,6.6-6.6
				v-6.6c-3.6,0-6.6-2.9-6.6-6.6c0-3.6,2.9-6.6,6.6-6.6v-6.6c-3.6,0-6.6-2.9-6.6-6.6c0-3.6,2.9-6.6,6.6-6.6v-6.6
				c-3.6,0-6.6-2.9-6.6-6.6C383.4,17.8,386.4,14.8,390,14.8z M370.3,172.1H29.7V27.9h340.7V172.1z"/>
		</g>
	</g>
	<g>
		<g>
			<path d="M85,150.9l3.9,4H87l-3.8-4h-5.1v4h-1.4v-10.6H85c1.3,0,2.3,0.3,2.9,0.9c0.7,0.6,1,1.4,1,2.4c0,1-0.4,1.8-1.1,2.3
				C87.1,150.5,86.1,150.8,85,150.9z M85,145.5h-6.9v4.1h6.4c2,0,3-0.7,3-2.1c0-0.7-0.2-1.2-0.6-1.5S85.8,145.5,85,145.5z"/>
			<path d="M106.1,144.3v1.2h-9.8v3.4h8.8v1.2h-8.8v3.6h10v1.3H95v-10.6H106.1z"/>
			<path d="M122.2,144.3v1.3h-4.9v9.3H116v-9.3h-4.9v-1.3H122.2z"/>
			<path d="M139.7,144.3v10.6h-1.3v-5h-9.3v5h-1.4v-10.6h1.4v4.4h9.3v-4.4H139.7z"/>
			<path d="M147.8,144.3v10.6h-1.3v-10.6H147.8z"/>
			<path d="M167.1,144.3v10.6h-1.4L156,146v8.9h-1.4v-10.6h1.5l9.6,8.8v-8.8H167.1z"/>
			<path d="M186,144.3l-5.8,3.6l6.7,7H185l-5.8-6.2l-4.1,2.5v3.7h-1.4v-10.6h1.4v5.5l8.8-5.5H186z"/>
			<path d="M209.7,144.3l-4.2,10.6h-1.6l-3.6-8.6l-3.6,8.6h-1.6l-4.1-10.6h1.5l3.5,8.9l3.7-8.9h1.3l3.7,8.9l3.5-8.9H209.7z"/>
			<path d="M219.7,144.3l5.9,10.6H224l-1.5-2.7h-7.4l-1.5,2.7h-1.5l5.8-10.6H219.7z M218.8,145.5l-3.2,5.6h6.4L218.8,145.5z"/>
			<path d="M242.4,144.3l-5.5,6.9v3.7h-1.4v-3.7l-5.5-6.9h1.7l4.6,5.7l4.5-5.7H242.4z"/>
			<path d="M258.1,147.1l-1.4,0.1c-0.2-0.7-0.6-1.3-1.3-1.6c-0.7-0.4-1.6-0.5-2.8-0.5c-3,0-4.4,0.7-4.4,2c0,0.4,0.1,0.7,0.3,1
				c0.2,0.3,0.4,0.4,0.8,0.6c0.3,0.1,0.7,0.2,1,0.2c0.3,0,0.7,0.1,1.1,0.1c0.2,0,0.6,0,1.1,0c0.5,0,1,0,1.6,0c0.7,0,1.2,0,1.8,0.1
				c0.5,0.1,1,0.2,1.4,0.4c0.4,0.2,0.7,0.5,0.9,0.9c0.2,0.4,0.3,0.8,0.3,1.3c0,2.4-2,3.6-5.9,3.6c-1.8,0-3.1-0.2-3.9-0.5
				c-0.7-0.3-1.2-0.7-1.5-1.2c-0.3-0.5-0.5-1.1-0.6-1.8h1.5c0.2,1.6,1.7,2.4,4.6,2.4s4.4-0.8,4.4-2.3c0-0.3-0.1-0.5-0.2-0.8
				c-0.2-0.3-0.4-0.5-0.6-0.6c-0.4-0.2-1.4-0.3-3-0.3c-0.2,0-0.6,0-1,0c-0.4,0-0.7,0-0.9,0c-3,0-4.4-1-4.4-3c0-2.1,2-3.1,5.9-3.1
				c1.2,0,2.2,0.1,2.9,0.4c0.8,0.2,1.3,0.6,1.7,1.1C257.7,145.8,258,146.4,258.1,147.1z"/>
			<path d="M265.7,154.3c0,0.2-0.1,0.4-0.3,0.5c-0.2,0.1-0.4,0.2-0.6,0.2c-0.2,0-0.5-0.1-0.6-0.2c-0.2-0.1-0.3-0.3-0.3-0.5
				c0-0.2,0.1-0.4,0.3-0.5c0.2-0.1,0.4-0.2,0.6-0.2c0.3,0,0.5,0.1,0.6,0.2C265.6,153.9,265.7,154.1,265.7,154.3z"/>
			<path d="M282.5,147.1l-1.2,0.6c-0.3-0.7-0.9-1.3-1.7-1.8c-0.8-0.5-1.8-0.7-2.8-0.7c-1.5,0-2.7,0.4-3.7,1.2
				c-0.9,0.8-1.4,1.9-1.4,3.2c0,1.4,0.5,2.5,1.4,3.3c0.9,0.8,2.1,1.2,3.6,1.2c2.3,0,3.8-0.8,4.5-2.5l1.2,0.5
				c-0.9,2.1-2.8,3.1-5.8,3.1c-1.8,0-3.3-0.5-4.5-1.5c-1.2-1-1.8-2.4-1.8-4.1c0-1.2,0.3-2.2,0.9-3c0.6-0.9,1.4-1.5,2.4-2
				c1-0.4,2.1-0.7,3.2-0.7c1.3,0,2.5,0.3,3.5,0.9C281.3,145.4,282.1,146.2,282.5,147.1z"/>
			<path d="M301.9,149.6c0,1.7-0.6,3.1-1.9,4.1c-1.3,1-2.9,1.5-4.9,1.5c-1.3,0-2.4-0.2-3.4-0.6s-1.8-1.1-2.5-1.9
				c-0.6-0.9-0.9-1.9-0.9-3.1c0-1.2,0.3-2.2,0.9-3c0.6-0.9,1.4-1.5,2.5-2c1-0.4,2.2-0.7,3.4-0.7c1.9,0,3.5,0.5,4.8,1.5
				C301.2,146.5,301.9,147.8,301.9,149.6z M300.5,149.6c0-1.4-0.5-2.4-1.5-3.2c-1-0.8-2.3-1.2-3.9-1.2c-1.6,0-2.9,0.4-3.9,1.2
				c-1,0.8-1.5,1.9-1.5,3.2c0,1.4,0.5,2.5,1.5,3.3c1,0.8,2.3,1.2,3.9,1.2c1.6,0,2.9-0.4,3.9-1.2C300,152,300.5,151,300.5,149.6z"/>
			<path d="M323.3,144.3v10.6h-1.4v-9.5l-5.6,9.6H315l-5.5-9.6v9.5h-1.4v-10.6h2.4l5.2,8.9l5.3-8.9H323.3z"/>
		</g>
	</g>
	<g>
		<g>
			<path d="M84.8,65.6h-9.4v61.2h-7.9V65.6H58v-0.9h26.7V65.6z"/>
			<path d="M131.3,126.7l-11-22.6h-2.2v22.6h-7.9V64.6H123c8.4,0,15.3,6.8,15.3,15.3v9.1c0,6.4-4,11.9-9.6,14.1l11.5,23.6H131.3z
				 M130.2,88.7v-9.1c0-4,0-14.3-7.3-14.3h-4.9v37.7h4.9V103C130.2,103,130.2,92.7,130.2,88.7z"/>
			<path d="M190,126.8l-5.1-21.5h-16.3l-5.1,21.5h-0.9l13.7-58.2l1-4.1h6.2l1,4.1l13.6,58.2H190z M176.8,70.6l-7.9,33.7h15.9
				L176.8,70.6z"/>
			<path d="M232.7,126.8h-6.2l-13.9-62.3h8.1l12.5,56.2l13.9-56.2h1L232.7,126.8z"/>
			<path d="M293.8,65.6c-0.7,0-5.2,0-12.4,0v28.5h8.3V95h-8.3v30.8h12.4v0.9h-20.4v-62h20.4V65.6L293.8,65.6L293.8,65.6z"/>
			<path d="M342,125.8v0.9h-22.8V64.6h7.9v61.2h0.1H342z"/>
		</g>
	</g>
</g>
</svg>
