<?xml version="1.0" encoding="utf-8"?>
<!-- Generator: Adobe Illustrator 27.0.0, SVG Export Plug-In . SVG Version: 6.00 Build 0)  -->
<svg version="1.1" id="Layer_1" xmlns="http://www.w3.org/2000/svg" xmlns:xlink="http://www.w3.org/1999/xlink" x="0px" y="0px"
	 viewBox="0 0 640 540" enable-background="new 0 0 640 540" xml:space="preserve">
<metadata><?xpacket begin="﻿" id="W5M0MpCehiHzreSzNTczkc9d"?>
<x:xmpmeta xmlns:x="adobe:ns:meta/" x:xmptk="Adobe XMP Core 7.2-c000 79.1b65a79, 2022/06/13-17:46:14        ">
   <rdf:RDF xmlns:rdf="http://www.w3.org/1999/02/22-rdf-syntax-ns#">
      <rdf:Description rdf:about=""
            xmlns:dc="http://purl.org/dc/elements/1.1/"
            xmlns:xmp="http://ns.adobe.com/xap/1.0/"
            xmlns:xmpGImg="http://ns.adobe.com/xap/1.0/g/img/"
            xmlns:xmpMM="http://ns.adobe.com/xap/1.0/mm/"
            xmlns:stRef="http://ns.adobe.com/xap/1.0/sType/ResourceRef#"
            xmlns:stEvt="http://ns.adobe.com/xap/1.0/sType/ResourceEvent#"
            xmlns:illustrator="http://ns.adobe.com/illustrator/1.0/"
            xmlns:xmpTPg="http://ns.adobe.com/xap/1.0/t/pg/"
            xmlns:stDim="http://ns.adobe.com/xap/1.0/sType/Dimensions#"
            xmlns:xmpG="http://ns.adobe.com/xap/1.0/g/"
            xmlns:pdf="http://ns.adobe.com/pdf/1.3/"
            xmlns:pdfx="http://ns.adobe.com/pdfx/1.3/">
         <dc:format>image/svg+xml</dc:format>
         <dc:title>
            <rdf:Alt>
               <rdf:li xml:lang="x-default">Web</rdf:li>
            </rdf:Alt>
         </dc:title>
         <xmp:CreatorTool>Adobe Illustrator 27.0 (Macintosh)</xmp:CreatorTool>
         <xmp:CreateDate>2025-11-08T17:09:26+05:30</xmp:CreateDate>
         <xmp:ModifyDate>2025-11-08T17:09:26+05:30</xmp:ModifyDate>
         <xmp:MetadataDate>2025-11-08T17:09:26+05:30</xmp:MetadataDate>
         <xmp:Thumbnails>
            <rdf:Alt>
               <rdf:li rdf:parseType="Resource">
                  <xmpGImg:width>256</xmpGImg:width>
                  <xmpGImg:height>112</xmpGImg:height>
                  <xmpGImg:format>JPEG</xmpGImg:format>
                  <xmpGImg:image>/9j/4AAQSkZJRgABAgEAlgCWAAD/7QAsUGhvdG9zaG9wIDMuMAA4QklNA+0AAAAAABAAlgAAAAEA&#xA;AQCWAAAAAQAB/+4ADkFkb2JlAGTAAAAAAf/bAIQABgQEBAUEBgUFBgkGBQYJCwgGBggLDAoKCwoK&#xA;DBAMDAwMDAwQDA4PEA8ODBMTFBQTExwbGxscHx8fHx8fHx8fHwEHBwcNDA0YEBAYGhURFRofHx8f&#xA;Hx8fHx8fHx8fHx8fHx8fHx8fHx8fHx8fHx8fHx8fHx8fHx8fHx8fHx8fHx8f/8AAEQgAcAEAAwER&#xA;AAIRAQMRAf/EAaIAAAAHAQEBAQEAAAAAAAAAAAQFAwIGAQAHCAkKCwEAAgIDAQEBAQEAAAAAAAAA&#xA;AQACAwQFBgcICQoLEAACAQMDAgQCBgcDBAIGAnMBAgMRBAAFIRIxQVEGE2EicYEUMpGhBxWxQiPB&#xA;UtHhMxZi8CRygvElQzRTkqKyY3PCNUQnk6OzNhdUZHTD0uIIJoMJChgZhJRFRqS0VtNVKBry4/PE&#xA;1OT0ZXWFlaW1xdXl9WZ2hpamtsbW5vY3R1dnd4eXp7fH1+f3OEhYaHiImKi4yNjo+Ck5SVlpeYmZ&#xA;qbnJ2en5KjpKWmp6ipqqusra6voRAAICAQIDBQUEBQYECAMDbQEAAhEDBCESMUEFURNhIgZxgZEy&#xA;obHwFMHR4SNCFVJicvEzJDRDghaSUyWiY7LCB3PSNeJEgxdUkwgJChgZJjZFGidkdFU38qOzwygp&#xA;0+PzhJSktMTU5PRldYWVpbXF1eX1RlZmdoaWprbG1ub2R1dnd4eXp7fH1+f3OEhYaHiImKi4yNjo&#xA;+DlJWWl5iZmpucnZ6fkqOkpaanqKmqq6ytrq+v/aAAwDAQACEQMRAD8A9U4q7FXYq7FXYq7FXYq7&#xA;FXYq7FXYq7FXYq7FXYq7FXYq7FXYq7FXYq7FXYq7FXYq7FXYq7FXYq7FXYq7FXYq7FXYq7FXYq7F&#xA;XYq7FXYq7FXYq7FXYq7FXYq7FXYq7FXYq7FXYq7FXYq7FXYq7FXYq7FXYq7FXYq7FXYq7FXYq7FX&#xA;Yq7FXYq7FXYq7FXYq7FXYq7FXYq7FXYq7FXYq7FXYq7FXYq7FXYq7FXYq7FXYq7FXYq7FXYq7FXY&#xA;q7FXYq7FXYq7FXYq7FXYq7FXYq7FXYq7FXYq7FXYq7FXYq7FXYq7FXYq7FXYq7FXYq7FXYq7FXYq&#xA;7FXYq7FXYq7FXYq7FXYq7FXYq7FXYq7FXYq7FXYq7FXYq7FXYq7FXYq7FXYq7FXYq7FXYq7FXYq7&#xA;FXYq7FXYq7FXYq7FXYq7FXYq7FXYq7FXYq7FXYq7FXYq7FXYq7FXYq7FXYq7FXYq7FXYq7FXYq7F&#xA;XYq7FXYq7FXYq7FXYq7FXYq7FXYq7FXYq7FXYq7FXYq7FXYq7FXYq7FXYq7FXYq7FXYq7FXYq7FX&#xA;Yq7FXYq7FXYq7FXYq7FXYq7FXYq7FXYq7FXYq7FXYq7FXYq7FXYq7FXYq7FXYq7FXYq7FXYq7FXY&#xA;q7FXYq7FXYq7FXYq7FXYq7FXYq7FXYq7FXYq7FXYq7FXYq7FXYq7FXYq7FXYq7FXYq7FXYq7FXYq&#xA;7FXYq7FXYq7FXYq7FXYq7FXYq7FXYq7FXYq7FXYq7FXYq7FXYq7FXYq7FXYq7FXYq7FXYq7FXYq7&#xA;FXYq7FXYq7FXYq7FXYq7FXYq7FXYq7FXYq7FXYq7FXYq7FXYq7FXYq7FXYq7FXYq7FXYq7FXYq7F&#xA;XYq7FXYq7FXYq7FXYq7FXYq7FXYq7FXYq7FXYq7FXYq7FXYq7FXYq7FXYq7FXYq7FXYq7FXYq7FX&#xA;Yq7FXYq7FXYq7FXYq7FXYq7FXYq7FXYq7FXYq7FXYq7FXYq7FXYq7FXYq7FXYq7FXYq7FXYq7FXY&#xA;q7FXYq7FXYq7FXYq7FXYq7FXYq7FXYq7FXYq7FXYq7FXYq7FXYq7FXYq7FXYq7FXYq7FXYq7FXYq&#xA;7FXYq7FXYq7FXYq7FXYq7FXYq7FXYq7FXYq7FX//2Q==</xmpGImg:image>
               </rdf:li>
            </rdf:Alt>
         </xmp:Thumbnails>
         <xmpMM:RenditionClass>proof:pdf</xmpMM:RenditionClass>
         <xmpMM:OriginalDocumentID>uuid:65E6390686CF11DBA6E2D887CEACB407</xmpMM:OriginalDocumentID>
         <xmpMM:DocumentID>xmp.did:6495ef09-11ec-400f-83da-0c8a3ac0ce1f</xmpMM:DocumentID>
         <xmpMM:InstanceID>xmp.iid:f3cb8a98-2501-4fcb-b9dc-5efaa6451b2a</xmpMM:InstanceID>
         <xmpMM:DerivedFrom rdf:parseType="Resource">
            <stRef:instanceID>uuid:48530a2d-2ce2-45ea-a0a9-45ff087881e9</stRef:instanceID>
            <stRef:documentID>xmp.did:34b468f4-5a2e-1544-a98c-cbef738ecd6d</stRef:documentID>
            <stRef:originalDocumentID>uuid:65E6390686CF11DBA6E2D887CEACB407</stRef:originalDocumentID>
            <stRef:renditionClass>proof:pdf</stRef:renditionClass>
         </xmpMM:DerivedFrom>
         <xmpMM:History>
            <rdf:Seq>
               <rdf:li rdf:parseType="Resource">
                  <stEvt:action>saved</stEvt:action>
                  <stEvt:instanceID>xmp.iid:6495ef09-11ec-400f-83da-0c8a3ac0ce1f</stEvt:instanceID>
                  <stEvt:when>2025-11-08T17:09:26+05:30</stEvt:when>
                  <stEvt:softwareAgent>Adobe Illustrator 27.0 (Macintosh)</stEvt:softwareAgent>
                  <stEvt:changed>/</stEvt:changed>
               </rdf:li>
            </rdf:Seq>
         </xmpMM:History>
         <illustrator:StartupProfile>Web</illustrator:StartupProfile>
         <illustrator:CreatorSubTool>Adobe Illustrator</illustrator:CreatorSubTool>
         <xmpTPg:NPages>1</xmpTPg:NPages>
         <xmpTPg:HasVisibleTransparency>False</xmpTPg:HasVisibleTransparency>
         <xmpTPg:HasVisibleOverprint>False</xmpTPg:HasVisibleOverprint>
         <xmpTPg:MaxPageSize rdf:parseType="Resource">
            <stDim:w>640.000000</stDim:w>
            <stDim:h>540.000000</stDim:h>
            <stDim:unit>Pixels</stDim:unit>
         </xmpTPg:MaxPageSize>
         <xmpTPg:SwatchGroups>
            <rdf:Seq>
               <rdf:li rdf:parseType="Resource">
                  <xmpG:groupName>Default Swatch Group</xmpG:groupName>
                  <xmpG:groupType>0</xmpG:groupType>
                  <xmpG:Colorants>
                     <rdf:Seq>
                        <rdf:li rdf:parseType="Resource">
                           <xmpG:swatchName>White</xmpG:swatchName>
                           <xmpG:mode>RGB</xmpG:mode>
                           <xmpG:type>PROCESS</xmpG:type>
                           <xmpG:red>255</xmpG:red>
                           <xmpG:green>255</xmpG:green>
                           <xmpG:blue>255</xmpG:blue>
                        </rdf:li>
                        <rdf:li rdf:parseType="Resource">
                           <xmpG:swatchName>Black</xmpG:swatchName>
                           <xmpG:mode>RGB</xmpG:mode>
                           <xmpG:type>PROCESS</xmpG:type>
                           <xmpG:red>0</xmpG:red>
                           <xmpG:green>0</xmpG:green>
                           <xmpG:blue>0</xmpG:blue>
                        </rdf:li>
                        <rdf:li rdf:parseType="Resource">
                           <xmpG:swatchName>RGB Red</xmpG:swatchName>
                           <xmpG:mode>RGB</xmpG:mode>
                           <xmpG:type>PROCESS</xmpG:type>
                           <xmpG:red>255</xmpG:red>
                           <xmpG:green>0</xmpG:green>
                           <xmpG:blue>0</xmpG:blue>
                        </rdf:li>
                        <rdf:li rdf:parseType="Resource">
                           <xmpG:swatchName>RGB Yellow</xmpG:swatchName>
                           <xmpG:mode>RGB</xmpG:mode>
                           <xmpG:type>PROCESS</xmpG:type>
                           <xmpG:red>255</xmpG:red>
                           <xmpG:green>255</xmpG:green>
                           <xmpG:blue>0</xmpG:blue>
                        </rdf:li>
                        <rdf:li rdf:parseType="Resource">
                           <xmpG:swatchName>RGB Green</xmpG:swatchName>
                           <xmpG:mode>RGB</xmpG:mode>
                           <xmpG:type>PROCESS</xmpG:type>
                           <xmpG:red>0</xmpG:red>
                           <xmpG:green>255</xmpG:green>
                           <xmpG:blue>0</xmpG:blue>
                        </rdf:li>
                        <rdf:li rdf:parseType="Resource">
                           <xmpG:swatchName>RGB Cyan</xmpG:swatchName>
                           <xmpG:mode>RGB</xmpG:mode>
                           <xmpG:type>PROCESS</xmpG:type>
                           <xmpG:red>0</xmpG:red>
                           <xmpG:green>255</xmpG:green>
                           <xmpG:blue>255</xmpG:blue>
                        </rdf:li>
                        <rdf:li rdf:parseType="Resource">
                           <xmpG:swatchName>RGB Blue</xmpG:swatchName>
                           <xmpG:mode>RGB</xmpG:mode>
                           <xmpG:type>PROCESS</xmpG:type>
                           <xmpG:red>0</xmpG:red>
                           <xmpG:green>0</xmpG:green>
                           <xmpG:blue>255</xmpG:blue>
                        </rdf:li>
                        <rdf:li rdf:parseType="Resource">
                           <xmpG:swatchName>RGB Magenta</xmpG:swatchName>
                           <xmpG:mode>RGB</xmpG:mode>
                           <xmpG:type>PROCESS</xmpG:type>
                           <xmpG:red>255</xmpG:red>
                           <xmpG:green>0</xmpG:green>
                           <xmpG:blue>255</xmpG:blue>
                        </rdf:li>
                        <rdf:li rdf:parseType="Resource">
                           <xmpG:swatchName>R=193 G=39 B=45</xmpG:swatchName>
                           <xmpG:mode>RGB</xmpG:mode>
                           <xmpG:type>PROCESS</xmpG:type>
                           <xmpG:red>193</xmpG:red>
                           <xmpG:green>39</xmpG:green>
                           <xmpG:blue>45</xmpG:blue>
                        </rdf:li>
                        <rdf:li rdf:parseType="Resource">
                           <xmpG:swatchName>R=237 G=28 B=36</xmpG:swatchName>
                           <xmpG:mode>RGB</xmpG:mode>
                           <xmpG:type>PROCESS</xmpG:type>
                           <xmpG:red>237</xmpG:red>
                           <xmpG:green>28</xmpG:green>
                           <xmpG:blue>36</xmpG:blue>
                        </rdf:li>
                        <rdf:li rdf:parseType="Resource">
                           <xmpG:swatchName>R=241 G=90 B=36</xmpG:swatchName>
                           <xmpG:mode>RGB</xmpG:mode>
                           <xmpG:type>PROCESS</xmpG:type>
                           <xmpG:red>241</xmpG:red>
                           <xmpG:green>90</xmpG:green>
                           <xmpG:blue>36</xmpG:blue>
                        </rdf:li>
                        <rdf:li rdf:parseType="Resource">
                           <xmpG:swatchName>R=247 G=147 B=30</xmpG:swatchName>
                           <xmpG:mode>RGB</xmpG:mode>
                           <xmpG:type>PROCESS</xmpG:type>
                           <xmpG:red>247</xmpG:red>
                           <xmpG:green>147</xmpG:green>
                           <xmpG:blue>30</xmpG:blue>
                        </rdf:li>
                        <rdf:li rdf:parseType="Resource">
                           <xmpG:swatchName>R=251 G=176 B=59</xmpG:swatchName>
                           <xmpG:mode>RGB</xmpG:mode>
                           <xmpG:type>PROCESS</xmpG:type>
                           <xmpG:red>251</xmpG:red>
                           <xmpG:green>176</xmpG:green>
                           <xmpG:blue>59</xmpG:blue>
                        </rdf:li>
                        <rdf:li rdf:parseType="Resource">
                           <xmpG:swatchName>R=252 G=238 B=33</xmpG:swatchName>
                           <xmpG:mode>RGB</xmpG:mode>
                           <xmpG:type>PROCESS</xmpG:type>
                           <xmpG:red>252</xmpG:red>
                           <xmpG:green>238</xmpG:green>
                           <xmpG:blue>33</xmpG:blue>
                        </rdf:li>
                        <rdf:li rdf:parseType="Resource">
                           <xmpG:swatchName>R=217 G=224 B=33</xmpG:swatchName>
                           <xmpG:mode>RGB</xmpG:mode>
                           <xmpG:type>PROCESS</xmpG:type>
                           <xmpG:red>217</xmpG:red>
                           <xmpG:green>224</xmpG:green>
                           <xmpG:blue>33</xmpG:blue>
                        </rdf:li>
                        <rdf:li rdf:parseType="Resource">
                           <xmpG:swatchName>R=140 G=198 B=63</xmpG:swatchName>
                           <xmpG:mode>RGB</xmpG:mode>
                           <xmpG:type>PROCESS</xmpG:type>
                           <xmpG:red>140</xmpG:red>
                           <xmpG:green>198</xmpG:green>
                           <xmpG:blue>63</xmpG:blue>
                        </rdf:li>
                        <rdf:li rdf:parseType="Resource">
                           <xmpG:swatchName>R=57 G=181 B=74</xmpG:swatchName>
                           <xmpG:mode>RGB</xmpG:mode>
                           <xmpG:type>PROCESS</xmpG:type>
                           <xmpG:red>57</xmpG:red>
                           <xmpG:green>181</xmpG:green>
                           <xmpG:blue>74</xmpG:blue>
                        </rdf:li>
                        <rdf:li rdf:parseType="Resource">
                           <xmpG:swatchName>R=0 G=146 B=69</xmpG:swatchName>
                           <xmpG:mode>RGB</xmpG:mode>
                           <xmpG:type>PROCESS</xmpG:type>
                           <xmpG:red>0</xmpG:red>
                           <xmpG:green>146</xmpG:green>
                           <xmpG:blue>69</xmpG:blue>
                        </rdf:li>
                        <rdf:li rdf:parseType="Resource">
                           <xmpG:swatchName>R=0 G=104 B=55</xmpG:swatchName>
                           <xmpG:mode>RGB</xmpG:mode>
                           <xmpG:type>PROCESS</xmpG:type>
                           <xmpG:red>0</xmpG:red>
                           <xmpG:green>104</xmpG:green>
                           <xmpG:blue>55</xmpG:blue>
                        </rdf:li>
                        <rdf:li rdf:parseType="Resource">
                           <xmpG:swatchName>R=34 G=181 B=115</xmpG:swatchName>
                           <xmpG:mode>RGB</xmpG:mode>
                           <xmpG:type>PROCESS</xmpG:type>
                           <xmpG:red>34</xmpG:red>
                           <xmpG:green>181</xmpG:green>
                           <xmpG:blue>115</xmpG:blue>
                        </rdf:li>
                        <rdf:li rdf:parseType="Resource">
                           <xmpG:swatchName>R=0 G=169 B=157</xmpG:swatchName>
                           <xmpG:mode>RGB</xmpG:mode>
                           <xmpG:type>PROCESS</xmpG:type>
                           <xmpG:red>0</xmpG:red>
                           <xmpG:green>169</xmpG:green>
                           <xmpG:blue>157</xmpG:blue>
                        </rdf:li>
                        <rdf:li rdf:parseType="Resource">
                           <xmpG:swatchName>R=41 G=171 B=226</xmpG:swatchName>
                           <xmpG:mode>RGB</xmpG:mode>
                           <xmpG:type>PROCESS</xmpG:type>
                           <xmpG:red>41</xmpG:red>
                           <xmpG:green>171</xmpG:green>
                           <xmpG:blue>226</xmpG:blue>
                        </rdf:li>
                        <rdf:li rdf:parseType="Resource">
                           <xmpG:swatchName>R=0 G=113 B=188</xmpG:swatchName>
                           <xmpG:mode>RGB</xmpG:mode>
                           <xmpG:type>PROCESS</xmpG:type>
                           <xmpG:red>0</xmpG:red>
                           <xmpG:green>113</xmpG:green>
                           <xmpG:blue>188</xmpG:blue>
                        </rdf:li>
                        <rdf:li rdf:parseType="Resource">
                           <xmpG:swatchName>R=46 G=49 B=146</xmpG:swatchName>
                           <xmpG:mode>RGB</xmpG:mode>
                           <xmpG:type>PROCESS</xmpG:type>
                           <xmpG:red>46</xmpG:red>
                           <xmpG:green>49</xmpG:green>
                           <xmpG:blue>146</xmpG:blue>
                        </rdf:li>
                        <rdf:li rdf:parseType="Resource">
                           <xmpG:swatchName>R=27 G=20 B=100</xmpG:swatchName>
                           <xmpG:mode>RGB</xmpG:mode>
                           <xmpG:type>PROCESS</xmpG:type>
                           <xmpG:red>27</xmpG:red>
                           <xmpG:green>20</xmpG:green>
                           <xmpG:blue>100</xmpG:blue>
                        </rdf:li>
                        <rdf:li rdf:parseType="Resource">
                           <xmpG:swatchName>R=102 G=45 B=145</xmpG:swatchName>
                           <xmpG:mode>RGB</xmpG:mode>
                           <xmpG:type>PROCESS</xmpG:type>
                           <xmpG:red>102</xmpG:red>
                           <xmpG:green>45</xmpG:green>
                           <xmpG:blue>145</xmpG:blue>
                        </rdf:li>
                        <rdf:li rdf:parseType="Resource">
                           <xmpG:swatchName>R=147 G=39 B=143</xmpG:swatchName>
                           <xmpG:mode>RGB</xmpG:mode>
                           <xmpG:type>PROCESS</xmpG:type>
                           <xmpG:red>147</xmpG:red>
                           <xmpG:green>39</xmpG:green>
                           <xmpG:blue>143</xmpG:blue>
                        </rdf:li>
                        <rdf:li rdf:parseType="Resource">
                           <xmpG:swatchName>R=158 G=0 B=93</xmpG:swatchName>
                           <xmpG:mode>RGB</xmpG:mode>
                           <xmpG:type>PROCESS</xmpG:type>
                           <xmpG:red>158</xmpG:red>
                           <xmpG:green>0</xmpG:green>
                           <xmpG:blue>93</xmpG:blue>
                        </rdf:li>
                        <rdf:li rdf:parseType="Resource">
                           <xmpG:swatchName>R=212 G=20 B=90</xmpG:swatchName>
                           <xmpG:mode>RGB</xmpG:mode>
                           <xmpG:type>PROCESS</xmpG:type>
                           <xmpG:red>212</xmpG:red>
                           <xmpG:green>20</xmpG:green>
                           <xmpG:blue>90</xmpG:blue>
                        </rdf:li>
                        <rdf:li rdf:parseType="Resource">
                           <xmpG:swatchName>R=237 G=30 B=121</xmpG:swatchName>
                           <xmpG:mode>RGB</xmpG:mode>
                           <xmpG:type>PROCESS</xmpG:type>
                           <xmpG:red>237</xmpG:red>
                           <xmpG:green>30</xmpG:green>
                           <xmpG:blue>121</xmpG:blue>
                        </rdf:li>
                        <rdf:li rdf:parseType="Resource">
                           <xmpG:swatchName>R=199 G=178 B=153</xmpG:swatchName>
                           <xmpG:mode>RGB</xmpG:mode>
                           <xmpG:type>PROCESS</xmpG:type>
                           <xmpG:red>199</xmpG:red>
                           <xmpG:green>178</xmpG:green>
                           <xmpG:blue>153</xmpG:blue>
                        </rdf:li>
                        <rdf:li rdf:parseType="Resource">
                           <xmpG:swatchName>R=153 G=134 B=117</xmpG:swatchName>
                           <xmpG:mode>RGB</xmpG:mode>
                           <xmpG:type>PROCESS</xmpG:type>
                           <xmpG:red>153</xmpG:red>
                           <xmpG:green>134</xmpG:green>
                           <xmpG:blue>117</xmpG:blue>
                        </rdf:li>
                        <rdf:li rdf:parseType="Resource">
                           <xmpG:swatchName>R=115 G=99 B=87</xmpG:swatchName>
                           <xmpG:mode>RGB</xmpG:mode>
                           <xmpG:type>PROCESS</xmpG:type>
                           <xmpG:red>115</xmpG:red>
                           <xmpG:green>99</xmpG:green>
                           <xmpG:blue>87</xmpG:blue>
                        </rdf:li>
                        <rdf:li rdf:parseType="Resource">
                           <xmpG:swatchName>R=83 G=71 B=65</xmpG:swatchName>
                           <xmpG:mode>RGB</xmpG:mode>
                           <xmpG:type>PROCESS</xmpG:type>
                           <xmpG:red>83</xmpG:red>
                           <xmpG:green>71</xmpG:green>
                           <xmpG:blue>65</xmpG:blue>
                        </rdf:li>
                        <rdf:li rdf:parseType="Resource">
                           <xmpG:swatchName>R=198 G=156 B=109</xmpG:swatchName>
                           <xmpG:mode>RGB</xmpG:mode>
                           <xmpG:type>PROCESS</xmpG:type>
                           <xmpG:red>198</xmpG:red>
                           <xmpG:green>156</xmpG:green>
                           <xmpG:blue>109</xmpG:blue>
                        </rdf:li>
                        <rdf:li rdf:parseType="Resource">
                           <xmpG:swatchName>R=166 G=124 B=82</xmpG:swatchName>
                           <xmpG:mode>RGB</xmpG:mode>
                           <xmpG:type>PROCESS</xmpG:type>
                           <xmpG:red>166</xmpG:red>
                           <xmpG:green>124</xmpG:green>
                           <xmpG:blue>82</xmpG:blue>
                        </rdf:li>
                        <rdf:li rdf:parseType="Resource">
                           <xmpG:swatchName>R=140 G=98 B=57</xmpG:swatchName>
                           <xmpG:mode>RGB</xmpG:mode>
                           <xmpG:type>PROCESS</xmpG:type>
                           <xmpG:red>140</xmpG:red>
                           <xmpG:green>98</xmpG:green>
                           <xmpG:blue>57</xmpG:blue>
                        </rdf:li>
                        <rdf:li rdf:parseType="Resource">
                           <xmpG:swatchName>R=117 G=76 B=36</xmpG:swatchName>
                           <xmpG:mode>RGB</xmpG:mode>
                           <xmpG:type>PROCESS</xmpG:type>
                           <xmpG:red>117</xmpG:red>
                           <xmpG:green>76</xmpG:green>
                           <xmpG:blue>36</xmpG:blue>
                        </rdf:li>
                        <rdf:li rdf:parseType="Resource">
                           <xmpG:swatchName>R=96 G=56 B=19</xmpG:swatchName>
                           <xmpG:mode>RGB</xmpG:mode>
                           <xmpG:type>PROCESS</xmpG:type>
                           <xmpG:red>96</xmpG:red>
                           <xmpG:green>56</xmpG:green>
                           <xmpG:blue>19</xmpG:blue>
                        </rdf:li>
                        <rdf:li rdf:parseType="Resource">
                           <xmpG:swatchName>R=66 G=33 B=11</xmpG:swatchName>
                           <xmpG:mode>RGB</xmpG:mode>
                           <xmpG:type>PROCESS</xmpG:type>
                           <xmpG:red>66</xmpG:red>
                           <xmpG:green>33</xmpG:green>
                           <xmpG:blue>11</xmpG:blue>
                        </rdf:li>
                     </rdf:Seq>
                  </xmpG:Colorants>
               </rdf:li>
               <rdf:li rdf:parseType="Resource">
                  <xmpG:groupName>Grays</xmpG:groupName>
                  <xmpG:groupType>1</xmpG:groupType>
                  <xmpG:Colorants>
                     <rdf:Seq>
                        <rdf:li rdf:parseType="Resource">
                           <xmpG:swatchName>R=0 G=0 B=0</xmpG:swatchName>
                           <xmpG:mode>RGB</xmpG:mode>
                           <xmpG:type>PROCESS</xmpG:type>
                           <xmpG:red>0</xmpG:red>
                           <xmpG:green>0</xmpG:green>
                           <xmpG:blue>0</xmpG:blue>
                        </rdf:li>
                        <rdf:li rdf:parseType="Resource">
                           <xmpG:swatchName>R=26 G=26 B=26</xmpG:swatchName>
                           <xmpG:mode>RGB</xmpG:mode>
                           <xmpG:type>PROCESS</xmpG:type>
                           <xmpG:red>26</xmpG:red>
                           <xmpG:green>26</xmpG:green>
                           <xmpG:blue>26</xmpG:blue>
                        </rdf:li>
                        <rdf:li rdf:parseType="Resource">
                           <xmpG:swatchName>R=51 G=51 B=51</xmpG:swatchName>
                           <xmpG:mode>RGB</xmpG:mode>
                           <xmpG:type>PROCESS</xmpG:type>
                           <xmpG:red>51</xmpG:red>
                           <xmpG:green>51</xmpG:green>
                           <xmpG:blue>51</xmpG:blue>
                        </rdf:li>
                        <rdf:li rdf:parseType="Resource">
                           <xmpG:swatchName>R=77 G=77 B=77</xmpG:swatchName>
                           <xmpG:mode>RGB</xmpG:mode>
                           <xmpG:type>PROCESS</xmpG:type>
                           <xmpG:red>77</xmpG:red>
                           <xmpG:green>77</xmpG:green>
                           <xmpG:blue>77</xmpG:blue>
                        </rdf:li>
                        <rdf:li rdf:parseType="Resource">
                           <xmpG:swatchName>R=102 G=102 B=102</xmpG:swatchName>
                           <xmpG:mode>RGB</xmpG:mode>
                           <xmpG:type>PROCESS</xmpG:type>
                           <xmpG:red>102</xmpG:red>
                           <xmpG:green>102</xmpG:green>
                           <xmpG:blue>102</xmpG:blue>
                        </rdf:li>
                        <rdf:li rdf:parseType="Resource">
                           <xmpG:swatchName>R=128 G=128 B=128</xmpG:swatchName>
                           <xmpG:mode>RGB</xmpG:mode>
                           <xmpG:type>PROCESS</xmpG:type>
                           <xmpG:red>128</xmpG:red>
                           <xmpG:green>128</xmpG:green>
                           <xmpG:blue>128</xmpG:blue>
                        </rdf:li>
                        <rdf:li rdf:parseType="Resource">
                           <xmpG:swatchName>R=153 G=153 B=153</xmpG:swatchName>
                           <xmpG:mode>RGB</xmpG:mode>
                           <xmpG:type>PROCESS</xmpG:type>
                           <xmpG:red>153</xmpG:red>
                           <xmpG:green>153</xmpG:green>
                           <xmpG:blue>153</xmpG:blue>
                        </rdf:li>
                        <rdf:li rdf:parseType="Resource">
                           <xmpG:swatchName>R=179 G=179 B=179</xmpG:swatchName>
                           <xmpG:mode>RGB</xmpG:mode>
                           <xmpG:type>PROCESS</xmpG:type>
                           <xmpG:red>179</xmpG:red>
                           <xmpG:green>179</xmpG:green>
                           <xmpG:blue>179</xmpG:blue>
                        </rdf:li>
                        <rdf:li rdf:parseType="Resource">
                           <xmpG:swatchName>R=204 G=204 B=204</xmpG:swatchName>
                           <xmpG:mode>RGB</xmpG:mode>
                           <xmpG:type>PROCESS</xmpG:type>
                           <xmpG:red>204</xmpG:red>
                           <xmpG:green>204</xmpG:green>
                           <xmpG:blue>204</xmpG:blue>
                        </rdf:li>
                        <rdf:li rdf:parseType="Resource">
                           <xmpG:swatchName>R=230 G=230 B=230</xmpG:swatchName>
                           <xmpG:mode>RGB</xmpG:mode>
                           <xmpG:type>PROCESS</xmpG:type>
                           <xmpG:red>230</xmpG:red>
                           <xmpG:green>230</xmpG:green>
                           <xmpG:blue>230</xmpG:blue>
                        </rdf:li>
                        <rdf:li rdf:parseType="Resource">
                           <xmpG:swatchName>R=242 G=242 B=242</xmpG:swatchName>
                           <xmpG:mode>RGB</xmpG:mode>
                           <xmpG:type>PROCESS</xmpG:type>
                           <xmpG:red>242</xmpG:red>
                           <xmpG:green>242</xmpG:green>
                           <xmpG:blue>242</xmpG:blue>
                        </rdf:li>
                     </rdf:Seq>
                  </xmpG:Colorants>
               </rdf:li>
               <rdf:li rdf:parseType="Resource">
                  <xmpG:groupName>Web Color Group</xmpG:groupName>
                  <xmpG:groupType>1</xmpG:groupType>
                  <xmpG:Colorants>
                     <rdf:Seq>
                        <rdf:li rdf:parseType="Resource">
                           <xmpG:swatchName>R=63 G=169 B=245</xmpG:swatchName>
                           <xmpG:mode>RGB</xmpG:mode>
                           <xmpG:type>PROCESS</xmpG:type>
                           <xmpG:red>63</xmpG:red>
                           <xmpG:green>169</xmpG:green>
                           <xmpG:blue>245</xmpG:blue>
                        </rdf:li>
                        <rdf:li rdf:parseType="Resource">
                           <xmpG:swatchName>R=122 G=201 B=67</xmpG:swatchName>
                           <xmpG:mode>RGB</xmpG:mode>
                           <xmpG:type>PROCESS</xmpG:type>
                           <xmpG:red>122</xmpG:red>
                           <xmpG:green>201</xmpG:green>
                           <xmpG:blue>67</xmpG:blue>
                        </rdf:li>
                        <rdf:li rdf:parseType="Resource">
                           <xmpG:swatchName>R=255 G=147 B=30</xmpG:swatchName>
                           <xmpG:mode>RGB</xmpG:mode>
                           <xmpG:type>PROCESS</xmpG:type>
                           <xmpG:red>255</xmpG:red>
                           <xmpG:green>147</xmpG:green>
                           <xmpG:blue>30</xmpG:blue>
                        </rdf:li>
                        <rdf:li rdf:parseType="Resource">
                           <xmpG:swatchName>R=255 G=29 B=37</xmpG:swatchName>
                           <xmpG:mode>RGB</xmpG:mode>
                           <xmpG:type>PROCESS</xmpG:type>
                           <xmpG:red>255</xmpG:red>
                           <xmpG:green>29</xmpG:green>
                           <xmpG:blue>37</xmpG:blue>
                        </rdf:li>
                        <rdf:li rdf:parseType="Resource">
                           <xmpG:swatchName>R=255 G=123 B=172</xmpG:swatchName>
                           <xmpG:mode>RGB</xmpG:mode>
                           <xmpG:type>PROCESS</xmpG:type>
                           <xmpG:red>255</xmpG:red>
                           <xmpG:green>123</xmpG:green>
                           <xmpG:blue>172</xmpG:blue>
                        </rdf:li>
                        <rdf:li rdf:parseType="Resource">
                           <xmpG:swatchName>R=189 G=204 B=212</xmpG:swatchName>
                           <xmpG:mode>RGB</xmpG:mode>
                           <xmpG:type>PROCESS</xmpG:type>
                           <xmpG:red>189</xmpG:red>
                           <xmpG:green>204</xmpG:green>
                           <xmpG:blue>212</xmpG:blue>
                        </rdf:li>
                     </rdf:Seq>
                  </xmpG:Colorants>
               </rdf:li>
            </rdf:Seq>
         </xmpTPg:SwatchGroups>
         <pdf:Producer>Adobe PDF library 15.00</pdf:Producer>
         <pdfx:CreatorVersion>21.0.0</pdfx:CreatorVersion>
      </rdf:Description>
   </rdf:RDF>
</x:xmpmeta>
                                                                                                    
                                                                                                    
                                                                                                    
                                                                                                    
                                                                                                    
                                                                                                    
                                                                                                    
                                                                                                    
                                                                                                    
                                                                                                    
                                                                                                    
                                                                                                    
                                                                                                    
                                                                                                    
                                                                                                    
                                                                                                    
                                                                                                    
                                                                                                    
                                                                                                    
                                                                                                    
                           
<?xpacket end="w"?>
	</metadata>
<path fill="#FFFFFF" d="M258.1,500.4c-0.2-0.3-0.5-0.6-0.7-0.9c-1.9,0.4-2.1,0.7-1.5,2.4c0.1,0.2,0.3,0.4,0.2,0.5
	c-0.6,1.8-0.2,3.6,0.2,5.4c-1.8,0.5-3.3,0.6-4.7-0.4c-0.8-0.6-1.8-1-2.6-1.4c-0.1-0.9,0.2-1.1,0.9-1.2c0.6-0.1,1.2-0.3,1.8-0.4
	c0.5-0.1,1-0.1,1.7-0.1c-0.5-0.9,1.2-2.3-0.6-3.4c-0.2,0.2-0.5,0.3-0.6,0.5c-1.2,2.1-3.4,2.2-5.4,2.4c-0.8,0.1-1.8-0.7-2.6-1.2
	c-0.2-0.1-0.3-0.9-0.1-1.2c0.5-0.8,1.1-1.4,2.3-1.2c0,0.6,0,1.1,0,1.9c0.6-0.2,1.2-0.3,1.6-0.5c1.1-0.6,2.2-1.2,3.3-1.8
	c-1.5-0.3-3.2-0.6-5.2-0.9c-0.7,0.3-1.8,0.8-3.2,1.4c-0.2-0.6-0.7-1.3-0.6-1.8c0.1-0.4,0.9-0.7,1.4-1c0.6-0.3,1.3-0.4,2.1-0.6
	c0.1-1,0.3-2,0.4-2.9c-0.1-0.1-0.2-0.1-0.4-0.2c-0.8,0.6-1.7,1.3-2.6,2c-0.3-0.3-0.7-0.5-0.7-0.8c-0.1-0.7-0.5-1.1-1.2-1.4
	c-0.3-0.1-0.7-0.6-0.8-1c-0.1-1.3-0.9-1.9-2-2.3c-0.2-0.1-0.4-0.3-0.6-0.5c0.4-0.6,0.7-1.1,1-1.6c-0.8-0.5-1.5-0.9-2.1-1.2
	c0.2-1.3,0.5-2.3,0.5-3.3c0.1-1.1-0.4-2-1.6-2.1c-0.2-0.8-0.3-1.4-0.4-2.2c0.3-0.2,0.6-0.3,1.2-0.7c-1-0.2-1.7-0.3-2.5-0.4
	c-0.2,0.3-0.3,0.7-0.5,1c0.2,0.7,0.5,1.4,0.7,2.3c-1.6-0.4-1.6-0.4-1.9-2.7c-0.4,0.9-0.6,1.5-0.9,2.2c-1.5-1.2-1.5-1.9-0.1-4
	c-0.4-0.2-0.8-0.3-1.5-0.6c0.6-0.5,1.1-0.9,1.6-1.3c-2.6-0.3-3-0.8-1.9-2.4c0.5,0.2,1.1,0.4,1.9,0.7c-1-1.4-1.9-2.5-2.8-3.8
	c1.1-0.2,1.1-0.2,3.4,2.7c0.3,0.9,0.6,1.8,0.9,3c0.5-1,0.9-1.7,1.3-2.5c-0.1-0.2-0.3-0.5-0.5-0.9c0.4-0.3,0.7-0.6,1-0.9
	c0.2-1.3-1.8-1.6-0.9-3.2c0.6,0.1,1.3,0.3,1.9,0.4c0.6,0.2,1.3,0.4,2.1,0.6c-0.6-0.8-1.1-1.3-1.3-1.8c-0.5-1.2-0.6-1.3-2-0.8
	c-0.2,0.1-0.5,0.2-1,0.3c-0.7-0.8-1.4-1.5-2-2.4c-0.6-1-0.4-1.4,0.6-2c0.4-0.2,0.7-0.4,1.1-0.6c-1.1-2.3-1.6-2.7-3.6-2.2
	c-1.3,0.3-2.1-0.2-2.7-1.2c-1.5,0.3-1.5,1.2-1.1,2.3c-1.2,0.6-1.5-0.1-2.1-1c1.4-1.7,2.7-3.4,4.1-5.1c-0.3,0-0.6,0.1-0.9-0.1
	c-0.3-0.2-0.5-0.6-0.5-0.9c0-0.2,0.3-0.7,0.5-0.7c1.3-0.2,2.7-0.5,3.9-0.2c1,0.2,1.1,1.3,0.3,2.4c0.7-0.3,1.1-0.4,1.6-0.6
	c0.5,0.4,1,0.9,1.5,1.4c0.3-0.6,0.6-1.1,0.9-1.7c-0.4,0-0.6-0.1-1.1-0.1c0.1-0.4,0.1-0.8,0.2-1.3c0.1-0.4,0.4-0.9,0.2-1.1
	c-1.4-1.7,0-2.3,1.1-3.1c-0.4-1.1-1.9-1.9-0.6-3.2c-0.6-0.8-1.8-1.2-1.1-2.3c0.2-0.3,0.8-0.5,1.1-0.5c1.2,0.1,1.2,1.1,1.3,2.1
	c1.7-0.7,1-2.1,1.4-3.2c-2.3,0.6-3.4-0.2-3.1-2.4c0.1-0.6,0.3-1.1,0.4-1.7c0-0.6,0.1-1.4-0.2-1.7c-0.9-1.1-0.8-2.1-0.2-3.3
	c0.4-0.9,0.9-1.7,0.2-2.7c-0.1-0.2-0.2-0.6-0.1-0.7c0.7-0.9,0.3-1.8-0.1-2.7c-0.1-0.2,0.1-0.6,0.2-1c0.5,0.1,0.9,0.2,1.4,0.3
	c0.1-1.7-1.5-1-2.3-1.9c0.1-0.3,0.2-0.8,0.4-1.2c0.4-0.8,0-1.4-0.7-1.8c-0.7-0.4-1.2-0.2-1.6,0.5c-0.6,0.9-1.3,1.5-2.4,1
	c-1.1-0.5-2.2-0.9-2.4-2.5c-0.3-1.8-0.9-3.6,0-5.5c0.2-0.5,0.1-1.1,0.1-1.7c0-1.5-0.1-2.8,1.2-4.1c0.8-0.9,1.1-2.3,0.6-3.7
	c-0.6-1.6-1.4-3.2-1.9-4.9c-0.3-0.9-0.5-1.9-0.5-2.8c0.1-0.9,0.1-1.7-0.5-2.3c-1.1-1.3-1.3-2.9-1-4.5c2-1.1,1.9-1.1,1.8-3.6
	c0-1,0.6-1.9,0.9-2.9c0.2-0.7,0.5-1.4,0.8-2.1c0.9-2.9,1-6.1,2.6-8.8c1.2-2.1,0.9-4.6,1.2-7c0.2-1.5-0.1-3,0.1-4.5
	c0.1-0.9,0.2-2.1,0.7-2.7c1.8-2.2,1.5-4.6,1-7c-0.7-3.6-1.7-7.1-2.6-10.7c-0.4-1.5-0.1-2.8,0.5-4.3c0.9-2.2,1.9-4.5,0.4-7
	c-0.8-1.2-0.8-2.7-0.1-4.1c0.8-1.7,0.9-3.5,1-5.3c0-1,0.4-2,0.6-3c0.1-0.7,0.4-1.4,0.4-2c0-1.7,0.3-3.4,0.8-5.1
	c0.5-1.7,0.4-3.7,0.2-5.5c-0.1-1.5-0.2-2.7,0.5-4.1c0.4-0.9,0.5-2.2,0.2-3.2c-1.1-3.4-1.1-6.8-0.7-10.4c-0.1-0.2-0.4-0.4-0.5-0.6
	c-0.8-1-0.8-1.8,0.1-2.7c1-0.9,1.4-2,1.3-3.3c-0.2-2.9,0-5.8,0.7-8.6c0.3-1.1-0.2-2.4-0.6-3.6c-0.5-1.7-1.3-3.4-0.7-5.1
	c0.8-2.4-0.1-4.5-0.6-6.8c-0.6-2.3-1.2-4.7-1.1-7.2c0-0.6-0.8-1.4-1.4-1.9c-1.6-1.2-3.3-2.2-5-3.2c-0.7-0.4-1.2-0.9-1.3-1.8
	c-0.2-1.3-1.1-2.1-2.4-2.5c-0.8-0.2-1.6-0.6-2.3-1c-3.5-2.3-7.2-4-11.2-5c-1.6-0.4-3-1.1-4.3-2.2c-1.1-0.9-2.5-1.7-3.9-2.1
	c-2.4-0.7-4.1-2.3-5.8-4c-0.4-0.5-0.9-0.9-1.5-1.2c-2.5-1.3-3.9-3.5-4.7-6.1c-0.2-0.6-0.2-1.4-0.1-2.1c0.2-1.1,0-2-0.6-2.9
	c-1.3-1.9-2.4-4-3.8-5.9c-0.5-0.8-1.3-1.4-2.1-2c-1-0.7-1.5-1.6-1.5-2.8c0-1.1-0.4-1.8-1.3-2.4c-1.2-0.7-1.9-1.8-2.3-3.2
	c-0.3-1-0.9-1.9-1.6-2.6c-1.7-1.9-2.8-3.9-3.7-6.3c-0.7-2.1-2.2-3.9-3.1-6c-0.8-1.9-1.9-3.6-3-5.3c-0.5-0.9-1.2-1.8-2-2.3
	c-1.4-1-2.1-2.4-2.8-3.9c-1.4-2.9-3.4-5.3-6.7-6.3c-1.2-0.4-2.3-0.9-3.4-1.4c-0.3-0.2-0.7-0.4-0.9-0.7c-0.3-0.5-0.4-1-0.6-1.5
	c0.5,0,0.9-0.1,1.4-0.1c0.1,0,0.2-0.1,0.5-0.1c0.1-1.4-0.3-2.4-1.4-3.3c-1.5-1.3-1.5-1.5-0.9-3.3c0-0.1,0-0.3-0.1-0.4
	c-2.1-3.5-1.6-5.6,1.6-8.4c2-1.8,4-3.7,5.9-5.6c0.5-0.5,0.8-1.2,1-1.8c0.4-1,0.6-2,0.9-3c-0.4-0.7-0.9-1.4-1.4-2.3
	c-0.8,0.3-1.4,0.7-1.4,1.7c0.1,1.1-0.7,1.8-1.5,2c-0.5,0.1-1.3-0.4-1.8-0.7c-0.8-0.5-1.5-1.2-2.2-1.8c0.2-0.7,0.3-1.1,0.5-1.4
	c0.6-1.1,0.8-2-0.3-2.9c-0.3-0.3-0.3-1-0.4-1.6c-0.1-0.9-0.1-1.8-0.3-2.6c-0.2-1.1-0.1-2,0.9-2.2c2-0.3,2.2-1.9,2-3.2
	c-0.2-1.4,0.4-2.2,1.2-2.8c2.3-1.6,2.9-3.4,1-5.7c-0.6-0.7-0.2-1.4,0.6-1.7c1.9-0.8,3.8-1.5,5.7-2.3c1.2-0.5,2.5-1,3.2-2.3
	c-0.4-0.9-0.8-1.7-1.3-2.8c1.2-0.3,2.1-0.5,3.1-0.7c-0.6-1.8-1-3.7,0.7-4.9c1.3-0.9,3-1.2,4.5-1.8c0.1,0.1,0.2,0.2,0.2,0.3
	c0.2-0.6,0.5-1.2,0.7-1.8c0.3-1.1,0.8-2,1.8-2.6c0.5-0.3,0.9-1.1,1.2-1.7c0.4-0.9,0.8-1.9,1.2-2.9c-0.3-0.2-0.6-0.4-1-0.7
	c-1.2-0.9-1.2-1.3-0.8-2.8c0.4-1.6,1.3-3.2,0.3-4.9c-0.1-0.2-0.1-0.4-0.1-0.6c0.4-1.4,0.4-2.8-1.2-4.1c0.6-0.3,0.9-0.4,1.2-0.6
	c0.8-0.6,1-1.3,0.5-2.2c-0.7-1.2-1.3-2.4-0.6-3.8c0.1-0.3,0-0.8-0.2-1.1c-1-1.3-2-2.6-3.1-3.9c-1.4-1.7-2.8-3.4-4.1-5.1
	c-0.2-0.2-0.2-0.6-0.4-0.9c0.7-0.9,1.3-1.8,1.8-2.6c-1.2-1.1-2.2-2.4-3.5-3.2c-1.5-0.9-3.2-1.7-5.1-0.9c-1.7,0.8-3.3,1.5-5.2,2.4
	c-0.9-0.8-1.1-2.1-1.3-3.4c-0.1-0.4,0.7-1.2,1.2-1.5c2.9-1.6,6-2.2,9.4-1.9c3.4,0.3,6.2,1.5,8.5,4.1c0.9,1,2.1,1.8,3,2.7
	c1.1,1.1,2.1,2.3,3.2,3.6c1.2-1.3,0.2-2.8-0.2-4.2c0.3-0.2,0.5-0.5,0.7-0.6c1.8-0.9,3.1-2.3,4-4c0.7-1.2,1.5-2.1,3-2.1
	c0.9,0,1.4-0.6,1.4-1.5c0-0.8,0.2-1.7,0.1-2.5c-0.4-3.4,1.5-5.5,4.1-7.2c0.6-0.4,1.2-0.8,1.8-1.2c0.5,0.1,1.1,0.3,1.8,0.4
	c1.2,0.2,2.2,0,2.8-1.2c0.4-0.9,1.1-1.1,2-1.1c1.4,0.1,2.7,0,4.1,0.1c1.4,0,2.5-0.5,3.2-1.8c0.8-1.4,2.1-2.3,3.7-2.5
	c1.5-0.1,2.2-0.9,2.4-2.3c0.1-0.4,0.2-0.8,0.4-1.3c1.1,0.1,2-0.1,2.8-0.9c1.3-1.1,4.3,0.3,4.4,2c0,0.2,0,0.6-0.2,0.7
	c-1.1,1.1-1.7,2.8-3.7,2.8c-0.9,0-2,0.4-2.3,1.5c-0.2,1,0.3,1.9,1,2.6c1.5,1.5,1.8,3.6,0.6,5.4c-0.4,0.6-0.9,1.2-1.4,1.8
	c-0.5,0.5-1,1-1.5,1.6c0.4,1.3,0.6,2.7,2,3.5c0.4,0.2,0.5,0.8,0.7,1.3c0.4,0.9,1,1.4,2,1.1c3.7-1.3,4.4-4.3,2.2-6.7
	c-1-1.2-1.7-2.7-2.3-4.2c-0.4-0.9,0.3-1.7,1-2.1c1.9-1.1,3.8-2.1,5.8-3.1c1-0.5,2.1-0.9,3.3-1.4c-0.4-1.7-1.2-3.3,0.3-4.7
	c1.1-1,2.2,0,3.2,0.1c1.1,1.3-0.5,2.4-0.1,3.8c0.6,0.1,1.4,0.2,2.1,0.3c2,0.4,4.1,0.6,6,1.2c1.6,0.5,2.8,1.6,2.6,3.8
	c-0.2,1.4,1.7,2.7,3.1,2.4c2.5-0.4,4.9-0.9,7.4-1.3c1.6-0.3,3.2-0.4,4.8-0.6c0.8-0.1,1.4,0.2,1.7,1c0.2,0.4,0.4,0.9,0.7,1.1
	c2.4,1.3,5,2.3,7.7,2c1.3-0.2,2.6-1.1,3.8-1.8c2.9-1.7,6.1-2.3,9.4-2.4c0.4,0,0.8,0,1.1-0.2c1.3-0.6,2.6-1,4.1-0.3
	c0.5,0.2,1.2-0.1,1.8-0.3c0.9-0.3,1.7-0.6,2.8,0.2c-2.2,1.5-4.5,1.3-6.8,1.3c-0.1,0.2-0.1,0.3-0.2,0.5c1,1.3,2,2.5,3.1,3.9
	c1.2-0.5,2.3-0.3,3.4,0.5c0.5,0.3,1.4,0.2,2,0.3c0.7,0.1,1.5,0.3,2.1,0.5c0.6,0.2,1.1,0.7,1.7,0.9c2,1,2.6,2.4,2,4.4
	c0.6,1,1,1.9,1.6,3c0.3,0,0.8,0.1,1.2-0.1c1.6-0.8,2.9-0.1,4.1,0.9c0.6,0.5,1,0.9,1.8,0.8c0.6,0,1.2,0.4,1.7,0.8
	c1.6,1.1,3.1,2.3,4.6,3.6c0.8,0.7,1.5,1.4,2.1,2.3c0.9,1.3,1.4,2.6,0.3,4.1c-0.1,0.2-0.1,0.5-0.1,0.7c0.2,0.1,0.3,0.3,0.4,0.3
	c2.7-1.3,4.4,0.3,6,2.1c0.7,0.8,1.1,1.6,2.4,1.5c0.6,0,1.3,0.9,1.8,1.6c0.5,0.7,1,1.1,1.9,0.9c1.9-0.3,3.7-0.1,5.5,0.6
	c0.6,0.2,1.4,0.1,2-0.1c1.3-0.6,2.6-0.7,4-0.3c0.8,0.2,1.4,0.4,2.2-0.1c0.4-0.3,1.1-0.2,1.7-0.1c1.3,0.2,2.8,0.2,4,0.7
	c1.9,0.7,3.9,0.8,5.7,2c0.9,0.6,2.2,0.7,3.3,1.1c1,0.4,2.1,0.8,2.8,1.5c2.1,2,4.4,3.7,6.9,5.2c0.8,0.4,1.1,1.6,1.7,2.6
	c0.2-0.1,0.5-0.4,0.9-0.6c1.4,0.8,2.2,2,2.5,3.6c0.3,2,0.7,3.9,1.2,5.8c0.5,1.8,1.2,3.5,1.9,5.2c0.4,1.1,0.9,2.2,1.3,3.3
	c0.1,0,0.3-0.1,0.4-0.1c0-0.7,0-1.4,0-2.2c1.8,0.4,2,0.7,2.1,3.4c0.5,0.3,1,0.5,1.4,0.9c1,0.8,1.3,2.1,0.6,3.1
	c-0.9,1.4-1.9,2.7-2.9,4.1c-0.7,1-1.6,1.9-2.4,2.8c-0.4,0.4-0.8,0.9-1.3,1.1c-2.2,1.2-4.3,2.4-4.9,5.2c0,0,0,0.1,0.1,0.1
	c0.7,0.1,1.4,0.2,2.2,0.3c-0.2,0.7-0.2,1.5-0.6,2.1c-0.7,1.2-1.6,2.3-2.5,3.5c1.6-0.3,2.8-1.3,4.2-2.1c1-0.6,2.1-1.1,2.3-2.4
	c0.1-0.5,0.2-1,0.2-1.5c-0.1-1.5,0.5-2.4,2-2.5c1.4,0,2.8,0.3,4.2,0.4c1.2,0.1,2.4,0.1,3.6,0.1c0.9,0,1.8-0.2,2.6-0.1
	c1.3,0.1,2.5,0.5,3.7,0.8c0.8,0.2,1.1,0.6,0.8,1.6c-0.5,1.9-1.3,3.6-2.6,5c-0.2,0.2-0.4,0.5-0.5,0.8c-0.4,1.9-2,2.2-3.5,2.6
	c-1,0.3-2,0.4-3,0.5c-0.6,0.1-1.2,0.2-1.7,0c-1.1-0.3-2,0.1-2.8,0.8c1.3,0.1,2.5,0.2,4.2,0.3c2.2-1.1,2.2-1.1,3.3,0.7
	c0.2-0.1,0.4-0.1,0.4-0.2c0.9-1.9,2.9-2.5,4.5-3.5c0.9-0.5,1.4-1.1,1.8-2c0.7-1.5,1.8-2.8,3.5-3.3c1.5-0.5,2.5,0,3.6,1.6
	c-0.1-0.9-0.1-1.2-0.1-1.8c0.4,0.1,0.8,0,1,0.2c1.1,0.7,2.2,1.6,3.7,1.1c0.3-0.1,0.8,0.5,1.2,0.8c0.8,0.6,1.7,1.1,2.5,1.6
	c1.3,0.8,2.7,1.1,4.2,1.5c1.6,0.4,2.5,1.9,3.1,3.5c1.2-1.3,1.8-1.3,2.9-0.1c0.6,0.6,1.3,1.1,1.9,1.6c0.3,0.3,0.7,0.6,0.8,1
	c0.3,1.8,1.4,2.9,2.9,3.8c0.5,0.3,0.8,0.9,1.3,1.5c1.1-0.5,2.3-0.8,3.3-1.4c1-0.6,1.8-0.5,2.7,0c1.2,0.7,2.4,1.3,3.6,2
	c1.5,0.8,3,1.8,4.9,1.2c0.5-0.2,1.4,0.3,1.8,0.8c1.1,1.1,2.2,1.4,3.8,1.2c2.6-0.4,5.3-0.2,7.9-0.1c0.6,0,1.3,0.3,1.8,0.7
	c2.7,1.9,5.3,4.1,8.2,5.9c3,1.9,4.3,5.2,7,7.3c0.5,0.4,1.1,0.9,1.6,1.4c1.6,1.6,3.3,2.9,5.4,3.7c0.2,0.1,0.3,0.2,0.2,0.1
	c1,0.2,1.7,0.3,2.4,0.4c0.5,0.1,1,0.2,1.5,0.1c2.8-0.7,5.7,0.9,6.5,4c0.4,1.5,0.8,2.9,0.8,4.5c0,0.2,0,0.4,0.1,0.6
	c1.8,2.7,0.9,5.9,1.4,8.8c0.3,1.9-0.2,3.8-0.3,5.8c0,0.3-0.1,0.7-0.3,0.9c-0.9,0.9-1.2,2.1-1.6,3.2c-0.8,2-1.9,3.8-3.6,5.2
	c-0.4,0.3-0.8,0.7-1,1.2c-0.7,2.3-2.6,3.3-4.3,4.5c-0.5,0.3-0.9,0.7-1.4,1.1c-0.7,0.5-1.4,1-2.2,1.6c-0.9,0.6-1.9,1.2-2.6,2
	c-1.7,2-3.2,4.2-4.7,6.4c-1.6,2.2-3.2,4.4-4.9,6.5c-1,1.3-1.8,1.3-3.8,0.1c-0.9,1.6,1.4,3,0.2,4.5c-0.1-0.6-0.2-1.3-0.4-2.5
	c-0.7,0.6-1.4,0.9-1.4,1.3c-0.1,1.3-1.5,2.6-0.5,3.7c-0.3,0.9-0.6,1.6-0.9,2.3c-0.1,0.4,0,0.8-0.2,1.1c-1.4,3.9-1.1,8-0.8,12
	c0,0.6,0,1.2-0.2,1.7c-1,3.1-2.1,6.1-3.1,9.2c-0.2,0.7-0.1,1.5-0.1,2.3c0.1,1.1-0.3,1.9-1.3,2.3c-1.8,0.8-2.4,2.3-2.9,4.1
	c-0.5,1.6-0.8,3.2-0.6,4.9c0.2,1.6-0.6,3.2-2,4.2c-1.2,0.9-2,2.1-2.6,3.6c-0.7,1.8-2,3-3.5,4.3c-2,1.6-3.5,3.8-3.1,6.7
	c0.2,1.4-0.4,2.1-1.8,2.5c-1.6,0.4-3.2,0.7-4.3,2.1c-0.6,0.8-1.1,1.5-1,2.6c0.1,1.2-0.2,2.3-1.3,3c-1.3-1.2-0.7-3-1.5-4.3
	c-1.5,0.5-2.5,2-4.1,1.5c-0.8-0.6-0.2-2-1.7-2c-0.6,0.8-0.3,2.3-1.9,2.6c-1.4,0.2-1.9-0.8-2.8-1.5c-1,0.3-1.9,2.2-2.9,0.3
	c-1.4,0.3-2.2,0.9-2.7,2.4c-0.2,0.7-1.6,1.1-2.6,1.3c-0.8,0.1-1.3,0.3-1.8,0.9c-0.6,0.8-1.4,1-2.4,0.8c-1.3-0.3-2.7-0.6-3.2,1.3
	c-0.1,0.3-0.6,0.5-0.9,0.6c-1,0.3-2.1,0.4-3.2,0.6c-0.6,0.2-1.2,0.5-1.7,0.9c-1.3,0.9-2.5,2-3.9,2.8c-1.2,0.7-2.3,1.6-3.2,2.8
	c-1,1.4-2.2,2.8-4.7,1.9c0.6,0.9,0.9,1.4,1.3,2c-0.7,0.8-1.3,1.6-2.1,2.5c-0.2,0-0.7,0.1-1.3,0.3c0.1,0.5,0.1,0.9,0.2,1.2
	c0.1,0.4,0.4,0.7,0.5,1c0.2,2,0.5,4,0.4,6c-0.1,2-0.5,4-0.9,6.1c-0.5,2.5-1.6,4.5-4,5.8c-1.3,0.7-2.4,1.8-3.2,3
	c-1.7,2.3-3.1,4.8-4.2,7.5c-0.9,2.3-2.9,4.3-4.5,6.2c-2,2.4-4.5,4.2-7.1,5.9c-1.2,0.8-2.3,1.6-3,3c-0.1,0.2-0.3,0.5-0.5,0.6
	c-0.4,0.2-0.8,0.2-1.2,0.3c-0.1-0.4-0.3-0.9-0.2-1.2c0.3-0.9,0.8-1.6,1.1-2.6c-1.5,1.8-3,3.6-4.5,5.4c0.1,0.1,0.2,0.2,0.4,0.3
	c1.8,1,1.9,1.7,0.5,3.2c-0.7,0.7-1.2,1.6-1.9,2.4c0,0.1,0,0.1-0.1,0.2c-1.9,1.7-2.5,4.3-4.3,6c-0.5,0.5-1.1,1-1.7,1.3
	c-1.6,0.9-3.3,1.8-4.9,2.7c-0.9-0.3-1.8-0.7-2.7-1c-1.5-0.6-2.9-0.6-4.3,0.2c-0.9,0.6-1.7,0.4-2.5-0.2c-0.7-0.5-1.5-0.9-2.2-1.5
	c-0.6-0.5-1.1-1.2-1.7-2c-1.2,0.1-2.5-0.7-3.8,0.2c-0.3,0.2-1.2-0.2-1.6-0.6c-0.7-0.6-1.2-1.4-1.7-2.1c-2,1.5-2,2.7,0.1,4.1
	c1.6,1.1,3.2,2.2,4.8,3.2c1,0.6,1.6,1.4,1.7,2.6c0.1,0.8,0.6,1.5,1,2.6c-1-0.2-1.7-0.3-2.3-0.4c-0.4,1.4,0.1,2.5,1.4,3.3
	c0.8,0.5,2,0.4,2.2,1.8c0.2,1.7,0.2,3.2-0.8,4.6c-1.1,1.5-2.4,3-3.6,4.5c-0.1,0.2-0.3,0.3-0.3,0.5c-0.2,2.2-1.9,3.1-3.4,4.3
	c-0.6,0.5-1.4,1-2.2,1.2c-3.4,0.9-6.7,1.7-10.2,2.5c-2.3,0.5-4.7,0.9-7.1,1c-1.7,0-3.4-0.5-5.1-0.8c-0.3-0.1-0.6,0-1.3-0.1
	c0.2,0.9,0.2,1.6,0.5,2.2c1.1,2,1.1,3.9-0.1,5.8c-0.7,1.2-0.6,2.5,0.3,3.6c0.2,0.3,0.4,0.6,0.6,0.9c-0.2,1.6-1.1,2.4-2.4,3.1
	c-2.1,1.1-4.2,1.8-6.5,1.3c-1.8-0.4-3.5-1.3-5.2-2.1c-0.5-0.2-1-0.6-1.5-0.8c-1.7,1.1-1.9,1.9-1.5,3.8c0.3,1.3,0.5,2.6,0.6,4
	c0.2,2.1,0.4,2.5,2.5,3.1c0.8,0.2,1.1,0.9,0.5,1.7c-0.5,0.7-1.1,1.2-1.7,1.9c0.5,1.4,2.1,1.2,3.3,2c-1,1.6-2.5,1.4-4.1,1.7
	c0.1,1.1,0.1,2.2-0.8,3.1c-0.3,0.3-0.1,1.2,0.1,1.7c1.1,2.3,0.9,3.8-0.9,5.7c-0.8,0.9-0.8,0.9-0.8,2.9c-0.5,0-1-0.1-1.5-0.1
	c-0.5,0-1-0.1-1.3,0.1c-2.7,1.2-5.4,2.5-6.1,5.9c-0.3,1.4-1.1,2.9-0.1,4.3c0.5,0.7,1.2,1.3,1.8,1.9c0.5,0.4,1.1,0.7,1.5,1.2
	c1,1.2,2.2,1.7,3.7,1.7c2.2,0,3,1,3,3.3c0,3.5-2,5.5-4.5,7.4c-1.3,1-2.5,2-3.6,3.2c-0.5,0.5-0.7,1.4-0.8,2.1c-0.1,1.1,0,2.2,0,3.3
	c0,2.4-0.9,3.2-3.3,3.1c-0.5,0.6-0.9,1.2-1.4,1.8c-1.6,1.6-2,3.5-1.1,5.6c0,0.1,0.1,0.2,0.2,0.4c0.6,2.5,1.8,4.6,3.6,6.5
	c0.6,0.6,1.1,1.3,0.4,2.5c-0.9-0.2-1.9-0.4-2.9-0.6c-0.4-0.1-1-0.5-1.3-0.3c-1.2,0.6-2.4,1.2-3.5,2
	C258.3,498.7,258.3,499.7,258.1,500.4L258.1,500.4z M363.7,336.1c-1,2-1.9,4-2.9,5.9c-0.2,0.4-0.7,0.8-1.2,0.9
	c-2,0.5-2.1,2.4-3.1,3.6c-0.1,0.2,0,0.6,0.1,1.2c2.1-1.4,4-2.6,5.9-3.9c0.2-0.1,0.3-0.4,0.3-0.7c-0.1-1.7,1.4-2.3,2.4-3.3
	c1.3-1.2,1.5-1.9,0.7-3.6C365,336.3,364.3,336.2,363.7,336.1z M345.4,126.2c1.5,0.1,2.9,0.3,4.4,0.3c0.5,0,1.1-0.3,1.5-0.7
	c0.7-0.5,1.3-0.6,2.1-0.4c2.5,0.8,4.8-0.2,7-1.2c0.2-0.1,0.3-0.4,0.8-0.9c-3.5,0.4-6.5,1.9-9.7,0.9c-0.4,0.6-0.8,1.1-1.1,1.6
	C348.7,126.3,347,125.2,345.4,126.2z M258.1,500.4c0,0.3,0.1,0.7,0,0.9c-1.2,2.2-1.2,2.5,0.6,4.2c0.3,0.3,0.7,0.6,1,0.9
	c-0.3,1.7-0.1,2.4,1.3,3.2c1.2,0.7,2.5,1.2,3.8,1.8c0.1,0.1,0.2,0.3,0.4,0.5c-0.3,0.4-0.6,0.8-0.9,1.1c-0.6-0.3-1.1-0.5-1.7-0.8
	c-0.6-0.3-1.3-0.8-1.8-0.7c-0.6,0.1-1.1,0.8-1.3,1c-1-0.2-1.8-0.3-2.6-0.4c-0.4,0-0.8,0.1-1.1,0c-1.3-0.6-1.4,0.3-1.6,1.2
	c0.5,0.2,0.8,0.4,1.2,0.4c2-0.2,3.9,0.2,5.7,1.6c0.3-0.8,0.4-1.3,0.7-2c1,0.9,1.9,1.6,2.9,2.5c-1.1,0.1-2.2,0.1-2.8,1.4
	c1.8,0.5,3.3,0.1,4.6-1.4c-0.4,1.4,0.1,2.6,1.1,2.7c1.3,0.2,2.3,0.8,3.5,1.4c-0.1-1.6-1.1-2.8-1.7-4.6c1.2,0.5,2.1,0.9,3.1,1.4
	c0.4,0.2,0.8,0.4,1.2,0.5c0.8,0,1.5-0.1,2.4-0.2c0-0.5-0.1-1.1-0.1-1.6c0.9-0.1,1.7-0.2,2.5-0.4c1.2-0.3,2.3-0.7,3.5-1.1
	c0.7-0.2,1.2-0.7,1-1.7c-0.4-0.1-0.9-0.3-1.3-0.1c-1.6,0.5-2.9-0.2-4.1-1.1c-1.2-0.8-2.6-1.5-3.7-2.4c-1.8-1.5-4.2-2.6-4.8-5.2
	c-0.6-0.3-1.1-0.5-1.6-0.7c0.2-0.7,0.7-1.4,0.6-1.9c-0.2-1.4-2.7-2.7-4.1-2.3c-1.5,0.4-3,0.7-4.6,1.1
	C259,499.8,258.6,500.1,258.1,500.4L258.1,500.4z M230.6,424.7c-0.4-1-1.2-1.4-2.1-0.7c-1.2,0.9-1.7,2.5-1.2,4
	c0.4,1.1,0.4,2.1,0.1,3.2c-0.1,0.5-0.3,1-0.4,1.5c-0.3,1.1,0.2,1.8,1.3,1.7c0.5-0.1,1.2-0.3,1.5-0.7c0.6-0.9,1.3-1.8,0.9-3
	c-0.3-0.9-0.6-1.8-1-2.9C230.2,426.9,231.1,426,230.6,424.7z M296,30.9c-0.3,0.1-0.7,0.3-0.7,0.5c-0.1,0.8,0.1,1.7-0.2,2.4
	c-0.3,0.7-1.1,1.2-1.8,2c4.3,0.6,5.9-1,5.7-5.4C297.8,30.5,296.9,30.7,296,30.9z M379.1,109.1c0.5-0.4,1-0.8,1.4-1.4
	c0.3-0.4,0.4-0.9,0.6-1.3c-0.1-0.1-0.3-0.3-0.4-0.4c-0.8,0.3-2,0.5-2.5,1.1c-0.8,1-1.3,2.3-1.8,3.4c-2.8,0.4-3.2,1.2-1.8,3.1
	c0.4-0.5,0.8-1,1.2-1.4c0.9-0.9,2.5-1.3,2.6-3C378.4,109.2,378.9,109.2,379.1,109.1L379.1,109.1z M284.1,421.6
	c-0.5,0.9-1,1.8-1.5,2.7c-0.5,0.9-0.4,1.8,0.3,2.5c0.7,0.7,1.5,0.4,2.2-0.1c0.8-0.6,1.5-1.3,0.9-2.4c-0.4-0.8-1-1.6-1.4-2.4
	C284.5,421.7,284.3,421.7,284.1,421.6z M379.1,109.1c-0.4,0.7-0.4,1.2,0.5,1.5c1.3,0.4,2.5,1,3.8,1.2c0.9,0.1,2.1,0.5,2.6-1.2
	c-1-0.1-1.9-0.3-2.8-0.4c0.3-0.5,0.6-1,0.9-1.5C382.2,107.9,380.7,108.7,379.1,109.1L379.1,109.1z"/>
</svg>
