<?xml version="1.0" encoding="utf-8"?>
<!-- Generator: Adobe Illustrator 27.0.0, SVG Export Plug-In . SVG Version: 6.00 Build 0)  -->
<svg version="1.1" id="Layer_1" xmlns="http://www.w3.org/2000/svg" xmlns:xlink="http://www.w3.org/1999/xlink" x="0px" y="0px"
	 viewBox="0 0 640 540" enable-background="new 0 0 640 540" xml:space="preserve">
<metadata><?xpacket begin="﻿" id="W5M0MpCehiHzreSzNTczkc9d"?>
<x:xmpmeta xmlns:x="adobe:ns:meta/" x:xmptk="Adobe XMP Core 7.2-c000 79.1b65a79, 2022/06/13-17:46:14        ">
   <rdf:RDF xmlns:rdf="http://www.w3.org/1999/02/22-rdf-syntax-ns#">
      <rdf:Description rdf:about=""
            xmlns:dc="http://purl.org/dc/elements/1.1/"
            xmlns:xmp="http://ns.adobe.com/xap/1.0/"
            xmlns:xmpGImg="http://ns.adobe.com/xap/1.0/g/img/"
            xmlns:xmpMM="http://ns.adobe.com/xap/1.0/mm/"
            xmlns:stRef="http://ns.adobe.com/xap/1.0/sType/ResourceRef#"
            xmlns:stEvt="http://ns.adobe.com/xap/1.0/sType/ResourceEvent#"
            xmlns:illustrator="http://ns.adobe.com/illustrator/1.0/"
            xmlns:xmpTPg="http://ns.adobe.com/xap/1.0/t/pg/"
            xmlns:stDim="http://ns.adobe.com/xap/1.0/sType/Dimensions#"
            xmlns:xmpG="http://ns.adobe.com/xap/1.0/g/"
            xmlns:pdf="http://ns.adobe.com/pdf/1.3/"
            xmlns:pdfx="http://ns.adobe.com/pdfx/1.3/">
         <dc:format>image/svg+xml</dc:format>
         <dc:title>
            <rdf:Alt>
               <rdf:li xml:lang="x-default">Web</rdf:li>
            </rdf:Alt>
         </dc:title>
         <xmp:CreatorTool>Adobe Illustrator 27.0 (Macintosh)</xmp:CreatorTool>
         <xmp:CreateDate>2025-11-08T17:09:26+05:30</xmp:CreateDate>
         <xmp:ModifyDate>2025-11-08T17:09:26+05:30</xmp:ModifyDate>
         <xmp:MetadataDate>2025-11-08T17:09:26+05:30</xmp:MetadataDate>
         <xmp:Thumbnails>
            <rdf:Alt>
               <rdf:li rdf:parseType="Resource">
                  <xmpGImg:width>256</xmpGImg:width>
                  <xmpGImg:height>112</xmpGImg:height>
                  <xmpGImg:format>JPEG</xmpGImg:format>
                  <xmpGImg:image>/9j/4AAQSkZJRgABAgEAlgCWAAD/7QAsUGhvdG9zaG9wIDMuMAA4QklNA+0AAAAAABAAlgAAAAEA&#xA;AQCWAAAAAQAB/+4ADkFkb2JlAGTAAAAAAf/bAIQABgQEBAUEBgUFBgkGBQYJCwgGBggLDAoKCwoK&#xA;DBAMDAwMDAwQDA4PEA8ODBMTFBQTExwbGxscHx8fHx8fHx8fHwEHBwcNDA0YEBAYGhURFRofHx8f&#xA;Hx8fHx8fHx8fHx8fHx8fHx8fHx8fHx8fHx8fHx8fHx8fHx8fHx8fHx8fHx8f/8AAEQgAcAEAAwER&#xA;AAIRAQMRAf/EAaIAAAAHAQEBAQEAAAAAAAAAAAQFAwIGAQAHCAkKCwEAAgIDAQEBAQEAAAAAAAAA&#xA;AQACAwQFBgcICQoLEAACAQMDAgQCBgcDBAIGAnMBAgMRBAAFIRIxQVEGE2EicYEUMpGhBxWxQiPB&#xA;UtHhMxZi8CRygvElQzRTkqKyY3PCNUQnk6OzNhdUZHTD0uIIJoMJChgZhJRFRqS0VtNVKBry4/PE&#xA;1OT0ZXWFlaW1xdXl9WZ2hpamtsbW5vY3R1dnd4eXp7fH1+f3OEhYaHiImKi4yNjo+Ck5SVlpeYmZ&#xA;qbnJ2en5KjpKWmp6ipqqusra6voRAAICAQIDBQUEBQYECAMDbQEAAhEDBCESMUEFURNhIgZxgZEy&#xA;obHwFMHR4SNCFVJicvEzJDRDghaSUyWiY7LCB3PSNeJEgxdUkwgJChgZJjZFGidkdFU38qOzwygp&#xA;0+PzhJSktMTU5PRldYWVpbXF1eX1RlZmdoaWprbG1ub2R1dnd4eXp7fH1+f3OEhYaHiImKi4yNjo&#xA;+DlJWWl5iZmpucnZ6fkqOkpaanqKmqq6ytrq+v/aAAwDAQACEQMRAD8A9U4q7FXYq7FXYq7FXYq7&#xA;FXYq7FXYq7FXYq7FXYq7FXYq7FXYq7FXYq7FXYq7FXYq7FXYq7FXYq7FXYq7FXYq7FXYq7FXYq7F&#xA;XYq7FXYq7FXYq7FXYq7FXYq7FXYq7FXYq7FXYq7FXYq7FXYq7FXYq7FXYq7FXYq7FXYq7FXYq7FX&#xA;Yq7FXYq7FXYq7FXYq7FXYq7FXYq7FXYq7FXYq7FXYq7FXYq7FXYq7FXYq7FXYq7FXYq7FXYq7FXY&#xA;q7FXYq7FXYq7FXYq7FXYq7FXYq7FXYq7FXYq7FXYq7FXYq7FXYq7FXYq7FXYq7FXYq7FXYq7FXYq&#xA;7FXYq7FXYq7FXYq7FXYq7FXYq7FXYq7FXYq7FXYq7FXYq7FXYq7FXYq7FXYq7FXYq7FXYq7FXYq7&#xA;FXYq7FXYq7FXYq7FXYq7FXYq7FXYq7FXYq7FXYq7FXYq7FXYq7FXYq7FXYq7FXYq7FXYq7FXYq7F&#xA;XYq7FXYq7FXYq7FXYq7FXYq7FXYq7FXYq7FXYq7FXYq7FXYq7FXYq7FXYq7FXYq7FXYq7FXYq7FX&#xA;Yq7FXYq7FXYq7FXYq7FXYq7FXYq7FXYq7FXYq7FXYq7FXYq7FXYq7FXYq7FXYq7FXYq7FXYq7FXY&#xA;q7FXYq7FXYq7FXYq7FXYq7FXYq7FXYq7FXYq7FXYq7FXYq7FXYq7FXYq7FXYq7FXYq7FXYq7FXYq&#xA;7FXYq7FXYq7FXYq7FXYq7FXYq7FXYq7FXYq7FXYq7FXYq7FXYq7FXYq7FXYq7FXYq7FXYq7FXYq7&#xA;FXYq7FXYq7FXYq7FXYq7FXYq7FXYq7FXYq7FXYq7FXYq7FXYq7FXYq7FXYq7FXYq7FXYq7FXYq7F&#xA;XYq7FXYq7FXYq7FXYq7FXYq7FXYq7FXYq7FXYq7FXYq7FXYq7FXYq7FXYq7FXYq7FXYq7FXYq7FX&#xA;Yq7FXYq7FXYq7FXYq7FXYq7FXYq7FXYq7FXYq7FXYq7FXYq7FXYq7FXYq7FXYq7FXYq7FXYq7FXY&#xA;q7FXYq7FXYq7FXYq7FXYq7FXYq7FXYq7FXYq7FXYq7FXYq7FXYq7FXYq7FXYq7FXYq7FXYq7FXYq&#xA;7FXYq7FXYq7FXYq7FXYq7FXYq7FXYq7FXYq7FX//2Q==</xmpGImg:image>
               </rdf:li>
            </rdf:Alt>
         </xmp:Thumbnails>
         <xmpMM:RenditionClass>proof:pdf</xmpMM:RenditionClass>
         <xmpMM:OriginalDocumentID>uuid:65E6390686CF11DBA6E2D887CEACB407</xmpMM:OriginalDocumentID>
         <xmpMM:DocumentID>xmp.did:6495ef09-11ec-400f-83da-0c8a3ac0ce1f</xmpMM:DocumentID>
         <xmpMM:InstanceID>xmp.iid:f3cb8a98-2501-4fcb-b9dc-5efaa6451b2a</xmpMM:InstanceID>
         <xmpMM:DerivedFrom rdf:parseType="Resource">
            <stRef:instanceID>uuid:48530a2d-2ce2-45ea-a0a9-45ff087881e9</stRef:instanceID>
            <stRef:documentID>xmp.did:34b468f4-5a2e-1544-a98c-cbef738ecd6d</stRef:documentID>
            <stRef:originalDocumentID>uuid:65E6390686CF11DBA6E2D887CEACB407</stRef:originalDocumentID>
            <stRef:renditionClass>proof:pdf</stRef:renditionClass>
         </xmpMM:DerivedFrom>
         <xmpMM:History>
            <rdf:Seq>
               <rdf:li rdf:parseType="Resource">
                  <stEvt:action>saved</stEvt:action>
                  <stEvt:instanceID>xmp.iid:6495ef09-11ec-400f-83da-0c8a3ac0ce1f</stEvt:instanceID>
                  <stEvt:when>2025-11-08T17:09:26+05:30</stEvt:when>
                  <stEvt:softwareAgent>Adobe Illustrator 27.0 (Macintosh)</stEvt:softwareAgent>
                  <stEvt:changed>/</stEvt:changed>
               </rdf:li>
            </rdf:Seq>
         </xmpMM:History>
         <illustrator:StartupProfile>Web</illustrator:StartupProfile>
         <illustrator:CreatorSubTool>Adobe Illustrator</illustrator:CreatorSubTool>
         <xmpTPg:NPages>1</xmpTPg:NPages>
         <xmpTPg:HasVisibleTransparency>False</xmpTPg:HasVisibleTransparency>
         <xmpTPg:HasVisibleOverprint>False</xmpTPg:HasVisibleOverprint>
         <xmpTPg:MaxPageSize rdf:parseType="Resource">
            <stDim:w>640.000000</stDim:w>
            <stDim:h>540.000000</stDim:h>
            <stDim:unit>Pixels</stDim:unit>
         </xmpTPg:MaxPageSize>
         <xmpTPg:SwatchGroups>
            <rdf:Seq>
               <rdf:li rdf:parseType="Resource">
                  <xmpG:groupName>Default Swatch Group</xmpG:groupName>
                  <xmpG:groupType>0</xmpG:groupType>
                  <xmpG:Colorants>
                     <rdf:Seq>
                        <rdf:li rdf:parseType="Resource">
                           <xmpG:swatchName>White</xmpG:swatchName>
                           <xmpG:mode>RGB</xmpG:mode>
                           <xmpG:type>PROCESS</xmpG:type>
                           <xmpG:red>255</xmpG:red>
                           <xmpG:green>255</xmpG:green>
                           <xmpG:blue>255</xmpG:blue>
                        </rdf:li>
                        <rdf:li rdf:parseType="Resource">
                           <xmpG:swatchName>Black</xmpG:swatchName>
                           <xmpG:mode>RGB</xmpG:mode>
                           <xmpG:type>PROCESS</xmpG:type>
                           <xmpG:red>0</xmpG:red>
                           <xmpG:green>0</xmpG:green>
                           <xmpG:blue>0</xmpG:blue>
                        </rdf:li>
                        <rdf:li rdf:parseType="Resource">
                           <xmpG:swatchName>RGB Red</xmpG:swatchName>
                           <xmpG:mode>RGB</xmpG:mode>
                           <xmpG:type>PROCESS</xmpG:type>
                           <xmpG:red>255</xmpG:red>
                           <xmpG:green>0</xmpG:green>
                           <xmpG:blue>0</xmpG:blue>
                        </rdf:li>
                        <rdf:li rdf:parseType="Resource">
                           <xmpG:swatchName>RGB Yellow</xmpG:swatchName>
                           <xmpG:mode>RGB</xmpG:mode>
                           <xmpG:type>PROCESS</xmpG:type>
                           <xmpG:red>255</xmpG:red>
                           <xmpG:green>255</xmpG:green>
                           <xmpG:blue>0</xmpG:blue>
                        </rdf:li>
                        <rdf:li rdf:parseType="Resource">
                           <xmpG:swatchName>RGB Green</xmpG:swatchName>
                           <xmpG:mode>RGB</xmpG:mode>
                           <xmpG:type>PROCESS</xmpG:type>
                           <xmpG:red>0</xmpG:red>
                           <xmpG:green>255</xmpG:green>
                           <xmpG:blue>0</xmpG:blue>
                        </rdf:li>
                        <rdf:li rdf:parseType="Resource">
                           <xmpG:swatchName>RGB Cyan</xmpG:swatchName>
                           <xmpG:mode>RGB</xmpG:mode>
                           <xmpG:type>PROCESS</xmpG:type>
                           <xmpG:red>0</xmpG:red>
                           <xmpG:green>255</xmpG:green>
                           <xmpG:blue>255</xmpG:blue>
                        </rdf:li>
                        <rdf:li rdf:parseType="Resource">
                           <xmpG:swatchName>RGB Blue</xmpG:swatchName>
                           <xmpG:mode>RGB</xmpG:mode>
                           <xmpG:type>PROCESS</xmpG:type>
                           <xmpG:red>0</xmpG:red>
                           <xmpG:green>0</xmpG:green>
                           <xmpG:blue>255</xmpG:blue>
                        </rdf:li>
                        <rdf:li rdf:parseType="Resource">
                           <xmpG:swatchName>RGB Magenta</xmpG:swatchName>
                           <xmpG:mode>RGB</xmpG:mode>
                           <xmpG:type>PROCESS</xmpG:type>
                           <xmpG:red>255</xmpG:red>
                           <xmpG:green>0</xmpG:green>
                           <xmpG:blue>255</xmpG:blue>
                        </rdf:li>
                        <rdf:li rdf:parseType="Resource">
                           <xmpG:swatchName>R=193 G=39 B=45</xmpG:swatchName>
                           <xmpG:mode>RGB</xmpG:mode>
                           <xmpG:type>PROCESS</xmpG:type>
                           <xmpG:red>193</xmpG:red>
                           <xmpG:green>39</xmpG:green>
                           <xmpG:blue>45</xmpG:blue>
                        </rdf:li>
                        <rdf:li rdf:parseType="Resource">
                           <xmpG:swatchName>R=237 G=28 B=36</xmpG:swatchName>
                           <xmpG:mode>RGB</xmpG:mode>
                           <xmpG:type>PROCESS</xmpG:type>
                           <xmpG:red>237</xmpG:red>
                           <xmpG:green>28</xmpG:green>
                           <xmpG:blue>36</xmpG:blue>
                        </rdf:li>
                        <rdf:li rdf:parseType="Resource">
                           <xmpG:swatchName>R=241 G=90 B=36</xmpG:swatchName>
                           <xmpG:mode>RGB</xmpG:mode>
                           <xmpG:type>PROCESS</xmpG:type>
                           <xmpG:red>241</xmpG:red>
                           <xmpG:green>90</xmpG:green>
                           <xmpG:blue>36</xmpG:blue>
                        </rdf:li>
                        <rdf:li rdf:parseType="Resource">
                           <xmpG:swatchName>R=247 G=147 B=30</xmpG:swatchName>
                           <xmpG:mode>RGB</xmpG:mode>
                           <xmpG:type>PROCESS</xmpG:type>
                           <xmpG:red>247</xmpG:red>
                           <xmpG:green>147</xmpG:green>
                           <xmpG:blue>30</xmpG:blue>
                        </rdf:li>
                        <rdf:li rdf:parseType="Resource">
                           <xmpG:swatchName>R=251 G=176 B=59</xmpG:swatchName>
                           <xmpG:mode>RGB</xmpG:mode>
                           <xmpG:type>PROCESS</xmpG:type>
                           <xmpG:red>251</xmpG:red>
                           <xmpG:green>176</xmpG:green>
                           <xmpG:blue>59</xmpG:blue>
                        </rdf:li>
                        <rdf:li rdf:parseType="Resource">
                           <xmpG:swatchName>R=252 G=238 B=33</xmpG:swatchName>
                           <xmpG:mode>RGB</xmpG:mode>
                           <xmpG:type>PROCESS</xmpG:type>
                           <xmpG:red>252</xmpG:red>
                           <xmpG:green>238</xmpG:green>
                           <xmpG:blue>33</xmpG:blue>
                        </rdf:li>
                        <rdf:li rdf:parseType="Resource">
                           <xmpG:swatchName>R=217 G=224 B=33</xmpG:swatchName>
                           <xmpG:mode>RGB</xmpG:mode>
                           <xmpG:type>PROCESS</xmpG:type>
                           <xmpG:red>217</xmpG:red>
                           <xmpG:green>224</xmpG:green>
                           <xmpG:blue>33</xmpG:blue>
                        </rdf:li>
                        <rdf:li rdf:parseType="Resource">
                           <xmpG:swatchName>R=140 G=198 B=63</xmpG:swatchName>
                           <xmpG:mode>RGB</xmpG:mode>
                           <xmpG:type>PROCESS</xmpG:type>
                           <xmpG:red>140</xmpG:red>
                           <xmpG:green>198</xmpG:green>
                           <xmpG:blue>63</xmpG:blue>
                        </rdf:li>
                        <rdf:li rdf:parseType="Resource">
                           <xmpG:swatchName>R=57 G=181 B=74</xmpG:swatchName>
                           <xmpG:mode>RGB</xmpG:mode>
                           <xmpG:type>PROCESS</xmpG:type>
                           <xmpG:red>57</xmpG:red>
                           <xmpG:green>181</xmpG:green>
                           <xmpG:blue>74</xmpG:blue>
                        </rdf:li>
                        <rdf:li rdf:parseType="Resource">
                           <xmpG:swatchName>R=0 G=146 B=69</xmpG:swatchName>
                           <xmpG:mode>RGB</xmpG:mode>
                           <xmpG:type>PROCESS</xmpG:type>
                           <xmpG:red>0</xmpG:red>
                           <xmpG:green>146</xmpG:green>
                           <xmpG:blue>69</xmpG:blue>
                        </rdf:li>
                        <rdf:li rdf:parseType="Resource">
                           <xmpG:swatchName>R=0 G=104 B=55</xmpG:swatchName>
                           <xmpG:mode>RGB</xmpG:mode>
                           <xmpG:type>PROCESS</xmpG:type>
                           <xmpG:red>0</xmpG:red>
                           <xmpG:green>104</xmpG:green>
                           <xmpG:blue>55</xmpG:blue>
                        </rdf:li>
                        <rdf:li rdf:parseType="Resource">
                           <xmpG:swatchName>R=34 G=181 B=115</xmpG:swatchName>
                           <xmpG:mode>RGB</xmpG:mode>
                           <xmpG:type>PROCESS</xmpG:type>
                           <xmpG:red>34</xmpG:red>
                           <xmpG:green>181</xmpG:green>
                           <xmpG:blue>115</xmpG:blue>
                        </rdf:li>
                        <rdf:li rdf:parseType="Resource">
                           <xmpG:swatchName>R=0 G=169 B=157</xmpG:swatchName>
                           <xmpG:mode>RGB</xmpG:mode>
                           <xmpG:type>PROCESS</xmpG:type>
                           <xmpG:red>0</xmpG:red>
                           <xmpG:green>169</xmpG:green>
                           <xmpG:blue>157</xmpG:blue>
                        </rdf:li>
                        <rdf:li rdf:parseType="Resource">
                           <xmpG:swatchName>R=41 G=171 B=226</xmpG:swatchName>
                           <xmpG:mode>RGB</xmpG:mode>
                           <xmpG:type>PROCESS</xmpG:type>
                           <xmpG:red>41</xmpG:red>
                           <xmpG:green>171</xmpG:green>
                           <xmpG:blue>226</xmpG:blue>
                        </rdf:li>
                        <rdf:li rdf:parseType="Resource">
                           <xmpG:swatchName>R=0 G=113 B=188</xmpG:swatchName>
                           <xmpG:mode>RGB</xmpG:mode>
                           <xmpG:type>PROCESS</xmpG:type>
                           <xmpG:red>0</xmpG:red>
                           <xmpG:green>113</xmpG:green>
                           <xmpG:blue>188</xmpG:blue>
                        </rdf:li>
                        <rdf:li rdf:parseType="Resource">
                           <xmpG:swatchName>R=46 G=49 B=146</xmpG:swatchName>
                           <xmpG:mode>RGB</xmpG:mode>
                           <xmpG:type>PROCESS</xmpG:type>
                           <xmpG:red>46</xmpG:red>
                           <xmpG:green>49</xmpG:green>
                           <xmpG:blue>146</xmpG:blue>
                        </rdf:li>
                        <rdf:li rdf:parseType="Resource">
                           <xmpG:swatchName>R=27 G=20 B=100</xmpG:swatchName>
                           <xmpG:mode>RGB</xmpG:mode>
                           <xmpG:type>PROCESS</xmpG:type>
                           <xmpG:red>27</xmpG:red>
                           <xmpG:green>20</xmpG:green>
                           <xmpG:blue>100</xmpG:blue>
                        </rdf:li>
                        <rdf:li rdf:parseType="Resource">
                           <xmpG:swatchName>R=102 G=45 B=145</xmpG:swatchName>
                           <xmpG:mode>RGB</xmpG:mode>
                           <xmpG:type>PROCESS</xmpG:type>
                           <xmpG:red>102</xmpG:red>
                           <xmpG:green>45</xmpG:green>
                           <xmpG:blue>145</xmpG:blue>
                        </rdf:li>
                        <rdf:li rdf:parseType="Resource">
                           <xmpG:swatchName>R=147 G=39 B=143</xmpG:swatchName>
                           <xmpG:mode>RGB</xmpG:mode>
                           <xmpG:type>PROCESS</xmpG:type>
                           <xmpG:red>147</xmpG:red>
                           <xmpG:green>39</xmpG:green>
                           <xmpG:blue>143</xmpG:blue>
                        </rdf:li>
                        <rdf:li rdf:parseType="Resource">
                           <xmpG:swatchName>R=158 G=0 B=93</xmpG:swatchName>
                           <xmpG:mode>RGB</xmpG:mode>
                           <xmpG:type>PROCESS</xmpG:type>
                           <xmpG:red>158</xmpG:red>
                           <xmpG:green>0</xmpG:green>
                           <xmpG:blue>93</xmpG:blue>
                        </rdf:li>
                        <rdf:li rdf:parseType="Resource">
                           <xmpG:swatchName>R=212 G=20 B=90</xmpG:swatchName>
                           <xmpG:mode>RGB</xmpG:mode>
                           <xmpG:type>PROCESS</xmpG:type>
                           <xmpG:red>212</xmpG:red>
                           <xmpG:green>20</xmpG:green>
                           <xmpG:blue>90</xmpG:blue>
                        </rdf:li>
                        <rdf:li rdf:parseType="Resource">
                           <xmpG:swatchName>R=237 G=30 B=121</xmpG:swatchName>
                           <xmpG:mode>RGB</xmpG:mode>
                           <xmpG:type>PROCESS</xmpG:type>
                           <xmpG:red>237</xmpG:red>
                           <xmpG:green>30</xmpG:green>
                           <xmpG:blue>121</xmpG:blue>
                        </rdf:li>
                        <rdf:li rdf:parseType="Resource">
                           <xmpG:swatchName>R=199 G=178 B=153</xmpG:swatchName>
                           <xmpG:mode>RGB</xmpG:mode>
                           <xmpG:type>PROCESS</xmpG:type>
                           <xmpG:red>199</xmpG:red>
                           <xmpG:green>178</xmpG:green>
                           <xmpG:blue>153</xmpG:blue>
                        </rdf:li>
                        <rdf:li rdf:parseType="Resource">
                           <xmpG:swatchName>R=153 G=134 B=117</xmpG:swatchName>
                           <xmpG:mode>RGB</xmpG:mode>
                           <xmpG:type>PROCESS</xmpG:type>
                           <xmpG:red>153</xmpG:red>
                           <xmpG:green>134</xmpG:green>
                           <xmpG:blue>117</xmpG:blue>
                        </rdf:li>
                        <rdf:li rdf:parseType="Resource">
                           <xmpG:swatchName>R=115 G=99 B=87</xmpG:swatchName>
                           <xmpG:mode>RGB</xmpG:mode>
                           <xmpG:type>PROCESS</xmpG:type>
                           <xmpG:red>115</xmpG:red>
                           <xmpG:green>99</xmpG:green>
                           <xmpG:blue>87</xmpG:blue>
                        </rdf:li>
                        <rdf:li rdf:parseType="Resource">
                           <xmpG:swatchName>R=83 G=71 B=65</xmpG:swatchName>
                           <xmpG:mode>RGB</xmpG:mode>
                           <xmpG:type>PROCESS</xmpG:type>
                           <xmpG:red>83</xmpG:red>
                           <xmpG:green>71</xmpG:green>
                           <xmpG:blue>65</xmpG:blue>
                        </rdf:li>
                        <rdf:li rdf:parseType="Resource">
                           <xmpG:swatchName>R=198 G=156 B=109</xmpG:swatchName>
                           <xmpG:mode>RGB</xmpG:mode>
                           <xmpG:type>PROCESS</xmpG:type>
                           <xmpG:red>198</xmpG:red>
                           <xmpG:green>156</xmpG:green>
                           <xmpG:blue>109</xmpG:blue>
                        </rdf:li>
                        <rdf:li rdf:parseType="Resource">
                           <xmpG:swatchName>R=166 G=124 B=82</xmpG:swatchName>
                           <xmpG:mode>RGB</xmpG:mode>
                           <xmpG:type>PROCESS</xmpG:type>
                           <xmpG:red>166</xmpG:red>
                           <xmpG:green>124</xmpG:green>
                           <xmpG:blue>82</xmpG:blue>
                        </rdf:li>
                        <rdf:li rdf:parseType="Resource">
                           <xmpG:swatchName>R=140 G=98 B=57</xmpG:swatchName>
                           <xmpG:mode>RGB</xmpG:mode>
                           <xmpG:type>PROCESS</xmpG:type>
                           <xmpG:red>140</xmpG:red>
                           <xmpG:green>98</xmpG:green>
                           <xmpG:blue>57</xmpG:blue>
                        </rdf:li>
                        <rdf:li rdf:parseType="Resource">
                           <xmpG:swatchName>R=117 G=76 B=36</xmpG:swatchName>
                           <xmpG:mode>RGB</xmpG:mode>
                           <xmpG:type>PROCESS</xmpG:type>
                           <xmpG:red>117</xmpG:red>
                           <xmpG:green>76</xmpG:green>
                           <xmpG:blue>36</xmpG:blue>
                        </rdf:li>
                        <rdf:li rdf:parseType="Resource">
                           <xmpG:swatchName>R=96 G=56 B=19</xmpG:swatchName>
                           <xmpG:mode>RGB</xmpG:mode>
                           <xmpG:type>PROCESS</xmpG:type>
                           <xmpG:red>96</xmpG:red>
                           <xmpG:green>56</xmpG:green>
                           <xmpG:blue>19</xmpG:blue>
                        </rdf:li>
                        <rdf:li rdf:parseType="Resource">
                           <xmpG:swatchName>R=66 G=33 B=11</xmpG:swatchName>
                           <xmpG:mode>RGB</xmpG:mode>
                           <xmpG:type>PROCESS</xmpG:type>
                           <xmpG:red>66</xmpG:red>
                           <xmpG:green>33</xmpG:green>
                           <xmpG:blue>11</xmpG:blue>
                        </rdf:li>
                     </rdf:Seq>
                  </xmpG:Colorants>
               </rdf:li>
               <rdf:li rdf:parseType="Resource">
                  <xmpG:groupName>Grays</xmpG:groupName>
                  <xmpG:groupType>1</xmpG:groupType>
                  <xmpG:Colorants>
                     <rdf:Seq>
                        <rdf:li rdf:parseType="Resource">
                           <xmpG:swatchName>R=0 G=0 B=0</xmpG:swatchName>
                           <xmpG:mode>RGB</xmpG:mode>
                           <xmpG:type>PROCESS</xmpG:type>
                           <xmpG:red>0</xmpG:red>
                           <xmpG:green>0</xmpG:green>
                           <xmpG:blue>0</xmpG:blue>
                        </rdf:li>
                        <rdf:li rdf:parseType="Resource">
                           <xmpG:swatchName>R=26 G=26 B=26</xmpG:swatchName>
                           <xmpG:mode>RGB</xmpG:mode>
                           <xmpG:type>PROCESS</xmpG:type>
                           <xmpG:red>26</xmpG:red>
                           <xmpG:green>26</xmpG:green>
                           <xmpG:blue>26</xmpG:blue>
                        </rdf:li>
                        <rdf:li rdf:parseType="Resource">
                           <xmpG:swatchName>R=51 G=51 B=51</xmpG:swatchName>
                           <xmpG:mode>RGB</xmpG:mode>
                           <xmpG:type>PROCESS</xmpG:type>
                           <xmpG:red>51</xmpG:red>
                           <xmpG:green>51</xmpG:green>
                           <xmpG:blue>51</xmpG:blue>
                        </rdf:li>
                        <rdf:li rdf:parseType="Resource">
                           <xmpG:swatchName>R=77 G=77 B=77</xmpG:swatchName>
                           <xmpG:mode>RGB</xmpG:mode>
                           <xmpG:type>PROCESS</xmpG:type>
                           <xmpG:red>77</xmpG:red>
                           <xmpG:green>77</xmpG:green>
                           <xmpG:blue>77</xmpG:blue>
                        </rdf:li>
                        <rdf:li rdf:parseType="Resource">
                           <xmpG:swatchName>R=102 G=102 B=102</xmpG:swatchName>
                           <xmpG:mode>RGB</xmpG:mode>
                           <xmpG:type>PROCESS</xmpG:type>
                           <xmpG:red>102</xmpG:red>
                           <xmpG:green>102</xmpG:green>
                           <xmpG:blue>102</xmpG:blue>
                        </rdf:li>
                        <rdf:li rdf:parseType="Resource">
                           <xmpG:swatchName>R=128 G=128 B=128</xmpG:swatchName>
                           <xmpG:mode>RGB</xmpG:mode>
                           <xmpG:type>PROCESS</xmpG:type>
                           <xmpG:red>128</xmpG:red>
                           <xmpG:green>128</xmpG:green>
                           <xmpG:blue>128</xmpG:blue>
                        </rdf:li>
                        <rdf:li rdf:parseType="Resource">
                           <xmpG:swatchName>R=153 G=153 B=153</xmpG:swatchName>
                           <xmpG:mode>RGB</xmpG:mode>
                           <xmpG:type>PROCESS</xmpG:type>
                           <xmpG:red>153</xmpG:red>
                           <xmpG:green>153</xmpG:green>
                           <xmpG:blue>153</xmpG:blue>
                        </rdf:li>
                        <rdf:li rdf:parseType="Resource">
                           <xmpG:swatchName>R=179 G=179 B=179</xmpG:swatchName>
                           <xmpG:mode>RGB</xmpG:mode>
                           <xmpG:type>PROCESS</xmpG:type>
                           <xmpG:red>179</xmpG:red>
                           <xmpG:green>179</xmpG:green>
                           <xmpG:blue>179</xmpG:blue>
                        </rdf:li>
                        <rdf:li rdf:parseType="Resource">
                           <xmpG:swatchName>R=204 G=204 B=204</xmpG:swatchName>
                           <xmpG:mode>RGB</xmpG:mode>
                           <xmpG:type>PROCESS</xmpG:type>
                           <xmpG:red>204</xmpG:red>
                           <xmpG:green>204</xmpG:green>
                           <xmpG:blue>204</xmpG:blue>
                        </rdf:li>
                        <rdf:li rdf:parseType="Resource">
                           <xmpG:swatchName>R=230 G=230 B=230</xmpG:swatchName>
                           <xmpG:mode>RGB</xmpG:mode>
                           <xmpG:type>PROCESS</xmpG:type>
                           <xmpG:red>230</xmpG:red>
                           <xmpG:green>230</xmpG:green>
                           <xmpG:blue>230</xmpG:blue>
                        </rdf:li>
                        <rdf:li rdf:parseType="Resource">
                           <xmpG:swatchName>R=242 G=242 B=242</xmpG:swatchName>
                           <xmpG:mode>RGB</xmpG:mode>
                           <xmpG:type>PROCESS</xmpG:type>
                           <xmpG:red>242</xmpG:red>
                           <xmpG:green>242</xmpG:green>
                           <xmpG:blue>242</xmpG:blue>
                        </rdf:li>
                     </rdf:Seq>
                  </xmpG:Colorants>
               </rdf:li>
               <rdf:li rdf:parseType="Resource">
                  <xmpG:groupName>Web Color Group</xmpG:groupName>
                  <xmpG:groupType>1</xmpG:groupType>
                  <xmpG:Colorants>
                     <rdf:Seq>
                        <rdf:li rdf:parseType="Resource">
                           <xmpG:swatchName>R=63 G=169 B=245</xmpG:swatchName>
                           <xmpG:mode>RGB</xmpG:mode>
                           <xmpG:type>PROCESS</xmpG:type>
                           <xmpG:red>63</xmpG:red>
                           <xmpG:green>169</xmpG:green>
                           <xmpG:blue>245</xmpG:blue>
                        </rdf:li>
                        <rdf:li rdf:parseType="Resource">
                           <xmpG:swatchName>R=122 G=201 B=67</xmpG:swatchName>
                           <xmpG:mode>RGB</xmpG:mode>
                           <xmpG:type>PROCESS</xmpG:type>
                           <xmpG:red>122</xmpG:red>
                           <xmpG:green>201</xmpG:green>
                           <xmpG:blue>67</xmpG:blue>
                        </rdf:li>
                        <rdf:li rdf:parseType="Resource">
                           <xmpG:swatchName>R=255 G=147 B=30</xmpG:swatchName>
                           <xmpG:mode>RGB</xmpG:mode>
                           <xmpG:type>PROCESS</xmpG:type>
                           <xmpG:red>255</xmpG:red>
                           <xmpG:green>147</xmpG:green>
                           <xmpG:blue>30</xmpG:blue>
                        </rdf:li>
                        <rdf:li rdf:parseType="Resource">
                           <xmpG:swatchName>R=255 G=29 B=37</xmpG:swatchName>
                           <xmpG:mode>RGB</xmpG:mode>
                           <xmpG:type>PROCESS</xmpG:type>
                           <xmpG:red>255</xmpG:red>
                           <xmpG:green>29</xmpG:green>
                           <xmpG:blue>37</xmpG:blue>
                        </rdf:li>
                        <rdf:li rdf:parseType="Resource">
                           <xmpG:swatchName>R=255 G=123 B=172</xmpG:swatchName>
                           <xmpG:mode>RGB</xmpG:mode>
                           <xmpG:type>PROCESS</xmpG:type>
                           <xmpG:red>255</xmpG:red>
                           <xmpG:green>123</xmpG:green>
                           <xmpG:blue>172</xmpG:blue>
                        </rdf:li>
                        <rdf:li rdf:parseType="Resource">
                           <xmpG:swatchName>R=189 G=204 B=212</xmpG:swatchName>
                           <xmpG:mode>RGB</xmpG:mode>
                           <xmpG:type>PROCESS</xmpG:type>
                           <xmpG:red>189</xmpG:red>
                           <xmpG:green>204</xmpG:green>
                           <xmpG:blue>212</xmpG:blue>
                        </rdf:li>
                     </rdf:Seq>
                  </xmpG:Colorants>
               </rdf:li>
            </rdf:Seq>
         </xmpTPg:SwatchGroups>
         <pdf:Producer>Adobe PDF library 15.00</pdf:Producer>
         <pdfx:CreatorVersion>21.0.0</pdfx:CreatorVersion>
      </rdf:Description>
   </rdf:RDF>
</x:xmpmeta>
                                                                                                    
                                                                                                    
                                                                                                    
                                                                                                    
                                                                                                    
                                                                                                    
                                                                                                    
                                                                                                    
                                                                                                    
                                                                                                    
                                                                                                    
                                                                                                    
                                                                                                    
                                                                                                    
                                                                                                    
                                                                                                    
                                                                                                    
                                                                                                    
                                                                                                    
                                                                                                    
                           
<?xpacket end="w"?>
	</metadata>
<path fill="#FFFFFF" d="M360.9,113.5c1.9-0.3,3.7-0.6,5.6-0.7c0.4,0,1,0.3,1.1,0.7c0.3,1.1,0.9,1.4,2,1.6c0.4,0.1,0.5,1.6,0.7,2.5
	c0.4-0.1,1.4-0.2,2.8-0.4c0-1.9,1.8-1.7,3.2-1.2c0.8,0.3,1.3,1.6,1.9,2.4c1.8-1.8,2.1-1.8,3.9,0.7c0.7-0.3,1.6-1.1,2.2-0.9
	c2,0.7,3.9,1.7,5.6,2.8c0.4,0.3,0.3,1.3,0.5,2.3c0.3,0.1,1,0,1.5,0.3c0.4,0.3,1,1.1,0.9,1.3c-0.8,1.4-1.7,2.6-2.5,3.8
	c1.3,0.5,2.6,1,3.8,1.5c-0.1,0.1-0.1,0.2-0.2,0.3c1.2,0.1,2.4,0.1,3.7,0.2c1.2-2.2,1.2-2.1,3.8-0.6c0.3,0.2,0.7,0.3,1,0.2
	c2.6-0.9,4.1,1.5,6.4,1.8c0.8-0.1,1.8-0.5,2.7-0.4c0.5,0.1,0.9,1.1,1.1,1.8c0.3,0.8,0.4,1.7,0.4,2.6c0.1,0.8,0,1.7,0,2.5
	c0,1.1,0,2.3,0,3.4c0.1,1,0.2,1.9,0.3,2.9c-1.3-0.1-2.7,0.1-3.8-0.5c-2.3-1.2-4.3-3-6.6-4.3c-1.3-0.8-2.4-0.2-2.4,1.5
	c0,0.7-0.3,1.4-0.2,2c0.1,0.6,0.5,1.6,0.8,1.7c2.3,0.2,3.5,2.3,5.4,3c1.8,0.8,4.1,0.5,6.2,0.8c0.3,0,0.5,0.2,1,0.3
	c-0.3,0.7-0.6,1.3-0.7,1.5c1.2,1.1,2.4,2.1,3.5,3.2l0,0c0.5,1.7,1,3.4,1.4,5.2c0.1,0.4-0.1,1.1-0.4,1.3c-0.3,0.2-1,0-1.4-0.2
	c-2.5-0.9-5-1.9-7.6-2.7c-0.6-0.2-1.4,0.5-2.1,0.7c3.3,2.8,8.8,1.9,11.2,6c-0.1,0.3-0.2,0.6-0.4,0.8c-0.6-0.1-1.3-0.3-1.9-0.3
	c-1,0.1-2.3,0-2.9,0.6c-1.7,1.7-3.2,1.5-4.8,0.1c-0.5-0.4-1.1-0.6-1.5-0.8c-0.5,1.1-0.9,2-1.3,2.9c-1.1-0.5-2.3-1-3.3-1.6
	c-0.8-0.4-1.7-0.9-2.3-1.6c-0.7-0.8-1-1.9-1.5-2.9c-0.4,0.3-1,0.9-1.7,1.5c-2.2-4.2-8.3-3.9-11.1-1.2c-1.8,1.7-4.5,1.9-6.1,0.4
	c-1.1-1-0.8-5.1,0.4-6.2c0.3-0.3,0.9-0.5,1.2-0.4c3.4,1.4,4.5-1.9,6.8-3.1c-0.3-0.5-0.5-0.8-0.7-0.9c-2.3-0.9-2.3-2.3-1.5-4.4
	c1.2-3,2-6.3-1.2-8.9c-0.6-0.4-0.8-1.2-1.3-1.9c-2.1,0.5-3.8-0.4-5-2.1c-0.9-1.3-1.5-1-2.1,0.1c-0.2,0.3-0.2,0.8-0.4,1.1
	c-0.3,0.5-0.7,1-1.2,1.2c-0.3,0.1-1-0.5-1.1-0.8c-0.1-0.6,0-1.3,0.3-1.8c0.2-0.3,0.8-0.5,1.4-0.8c-1.9-1-5.1,0.5-5.3,1.9
	c-0.1,0.5,0,1.2-0.3,1.5c-0.4,0.5-1.1,0.7-1.6,1.1c-0.3-0.5-0.9-1-0.9-1.5c0.1-1.7,0.3-3.3,0.5-5c0.1-0.6,0.3-1.2,0.4-1.7
	c-0.2-0.1-0.4-0.1-0.7-0.2c-0.4,1.2-0.9,2.4-1.3,3.6c-0.5,1.5-1,2.2-2.5,0.7c-0.5-0.6-1.6-0.9-2.4-0.9c-0.6,0-1.2,0.9-1.8,1.3
	c0.5,0.5,0.9,1.3,1.6,1.5c2.5,0.9,3.9,3.3,2.8,5.6c-0.9,1.7-0.1,2.6,0.8,3.6c2.9,3.4,3,4.6,0.3,8.2c-0.5,0.7-0.6,1.6-0.5,2.7
	c-0.5,0.3-1,0.5-1.6,0.8c3.5,2.5,1.5,3-1.8,3.4c2.7,1.6,4.7,2.9,6.8,4.1c0.3,0.2,0.9,0.1,1.1,0.3c1.7,1.8,3.3,3.8,6.2,3.5
	c0.2,0,0.9,1.8,0.6,2c-0.7,0.7-1.7,1.4-2.6,1.3c-2.2-0.2-4.4-0.9-6.6-1.3c-0.7,1.7-1.3,3.6-2.2,5.4c-0.3,0.6-1.3,1.3-1.9,1.3
	c-0.5,0-1.2-0.8-1.6-1.4c-0.3-0.4-0.4-1-0.5-1.2c-1.4,0.1-2.6,0.2-3.8,0.3c0.3-1.4,0.7-2.7,1-4.1c0.1,0,0.2,0.1,0.3,0.1
	c-0.3-3-0.7-6-1.1-9.6c-1.1,1.1-1.9,1.7-2.6,2.4c2.3,2.5,0.1,7.9-1.9,9.3c-0.1,0.1-0.3,0.2-0.4,0.2c-3.3-1.1-3.9,2.1-5.6,3.5
	c2,3.8,2,3.9-2.9,5.3c0.9,1.8,0.3,3-1.3,4.4c-1.3,1.1-1.9,3.2-2.7,4.9c-0.3,0.5-0.3,1.2-0.6,1.7c-2.8,4.2-1.9,8.5-0.8,12.9
	c0.3,1.2,0.8,1.8,2.2,1.5c1.7-0.4,3,0.3,3.6,2c1,2.7,2,5.3,3.1,8.2c0.5-0.2,1.5-0.6,2.4-1.1c2-1,3.8-0.6,5.9-0.1
	c3.8,0.9,6.8,2.7,9.6,5.2c0.4,0.3,1,0.3,1.5,0.5c1.1,0.3,2.4,0.2,3.3,0.8c3.9,2.6,8,1.3,12.1,0.7c1.7-0.2,3,1.2,3.6,3.4
	c0.7,2.9,1.7,5.7,2.6,8.6c2.3-0.6,4.5-1.8,5.7,0.8c0.1,0.3-1.8,1.5-3,2.6c0.9,0.7,2.2,1.7,3.3,2.9c1,0.9,1.8,2.1,2.7,3.1
	c0.9,1.1,1.8,1.4,2.6-0.2c0.7-1.5,2-2.8,2.5-4.4c0.3-1-0.1-2.4-0.5-3.5c-0.8-1.9-2.1-3.7-3-5.7c-0.8-1.9-1.1-3.9-3.1-5.1
	c-1.3-0.8-1-1.8,0.2-2.9c3.5-3.2,6.6-6.7,6.6-11.8c0-3.9-1.7-6.9-5.2-8.8c-1.7-0.9-3.4-1.8-5-2.8c-1.2-0.7-1.4-1.5-1.3-3
	c0.4-3,1.5-6.3-0.9-8.9c-1.6-1.7-2.1-3.4-2.2-5.5c-0.1-1.1-1.4-2-2-3.1c-0.5-0.9-1.4-2.6-1.1-2.9c1.1-1,2.5-1.9,3.9-2.3
	c1.8-0.5,3.7-0.3,5.5-0.6c0.4,0,0.9-0.3,1.2-0.7c1.5-2.1,3.4-1.5,5.1-0.6c1.7,0.9,3.4,2,5,3.1c1.5,1.1,2.9,1.1,4.5,0.4
	c2.5-1.1,2.8-0.9,3.8,1.7c0.7,1.8,2.2,3.4,1.5,5.6c-0.1,0.3,0.4,0.9,0.7,1.1c1.8,0.7,3.6,1.3,5.4,2c1.6,0.7,3,1.6,4.4,2.4
	c0.9-1.6,2.1-2.9,2.5-4.4c0.4-1.4,0.4-3,0.2-4.5c-0.4-2.5-1.1-4.9-1.6-7.3c-0.1-0.5,0.3-1.1,0.4-1.6c0.5,0.2,1,0.3,1.4,0.6
	c0.7,0.5,1.3,1.1,1.8,1.7c2.1,2.4,4.2,4.6,7.5,5.3c0.5,0.1,1.2,0.8,1.2,1.2c0.1,2.3,1.7,2.5,3.3,2.6c1.3,0.1,1.8,0.8,2.7,1.6
	c2.1,1.8,3,3.8,3.8,6.3c0.3,1,3,1.1,4.6,1.7c1.3,0.5,2.5,1,3.8,1.6c0.3,0.1,0.4,0.4,0.7,0.6c0.6,0.4,6.3-0.9,6.7-1.5
	c1.1-1.8,2.6-0.4,3.9-0.6c0,0.6,0.2,1.2,0,1.8c-0.3,1-0.9,1.9-1.3,2.9c-2.7,2.5-3.2,4-1.7,6.7c0.6-2.5,1.2-4.6,1.7-6.7
	c0.3-0.3,0.7-0.6,1-0.9c2.1-1.8,3.8-1.1,4.5,1.4c0.9-0.5,1.8-1.6,2.8-1.6c1.9,0,3.8,0.6,3.9,3c0.1,1.6,0.7,2.5,2.1,3.1
	c1.6,0.7,2.1,2.2,1.2,3.6c-1.5,2.5-3.3,4.8-5,7.3c-0.4,0.7-0.8,1.4-1,2.2c-0.6,2.2-0.4,4.8-1.7,6.5c-1.5,2-3.9,3.5-6.2,4.7
	c-4.9,2.6-9.9,4.8-14.9,7.1c-2,0.9-2.4,2.8-2.3,4.6c0.1,2-0.6,3.5-2.2,4.7c-3,2.2-3.2,5.5-3.4,8.8c-0.1,1.1,0,2.2,0.4,3.4
	c0.9-2.1,1.5-4.4,2.6-6.3c2.8-4.8,6.3-9,11.7-11c0.9-0.3,2.6-0.2,3.1,0.5c0.7,0.9,0.9,2.4,0.8,3.7c-0.2,1.8-0.8,3.5-2.6,4.6
	c-0.3,0.2-0.3,1-0.4,1.6c0.2,0.1,0.4,0.1,0.5,0.2c0.3-0.4,0.5-0.9,0.8-1.2c0.6-0.5,1.4-0.8,2.1-1.1c0.2,0.6,0.6,1.3,0.6,1.9
	c0.3,2.7,3.6,5.9,6.4,6.1c0.3,0,0.7,0,0.9,0.2c2.2,1.7,4,0.3,5.8-0.8c0,0,0,0,0,0c1.5-0.6,3.1-1.3,4.4-1.9c-0.2-2-0.5-4.2-0.7-6.4
	c-0.1-1.3-0.2-2.9,1.7-2.8c1.7,0.1,2.2,1.4,2.2,3c0,0.3-0.1,0.6-0.1,0.5c1.1,0.3,2.1,0.5,3,0.7c-0.3,1.2-0.4,2.4-1,3.4
	c-0.5,0.9-1.5,1.4-2.5,2.2c1.5,1.3,0.8,2.3-0.4,3.5c-1.4,1.3-2.6,3-3.9,4.5c-0.5,0.6-1,1.5-1.7,1.8c-3.6,1.7-3.3,5.1-3.7,8.1
	c-0.2,1.9-1.1,3.1-2.8,3.4c-1.7,0.3-2.8-0.4-3.6-2.1c-1.3-2.9,0.4-8.4,3.3-10.3c0.5-0.3,1.1-0.7,1.8-1.2c-1.6,0.2-2.9,0.3-4.2,0.4
	c-2,2.1-4.2,4.3-6.5,6.7c1.3,1.2,0.6,2.3-1,3.4c-1.7,1.1-3.1,2.9-5,3.6c-3.2,1.2-3.4,3.9-4.2,6.4c-0.1,0.5,0.1,1.2-0.2,1.6
	c-1.7,2.8,0,5,1.2,7.2c1.7,3.2,1.5,4.9-1.5,7.1c-1.5,1.1-3.2,1.9-4.8,2.6c-2,0.9-2.8,2.4-3.4,4.6c-0.8,3.2-0.3,6.2-0.3,9.3
	c0,2.7-1.2,3.8-3.8,3.8c0.1,0.5,0.1,0.9,0.4,1.2c1.4,1.9,2.6,3.9,1,6.3c-0.2,0.3-0.1,0.7,0,1.1c0.3,3.5,0.2,3.8-3,5.5
	c3.7,0.8,4.1,4.6,6.1,6.8c0.2,0.2-0.2,1.5-0.7,1.9c-1.4,1.1-3,2-4.5,3c-0.2,0.2-0.4,0.4-0.3,0.3c0.8,0.4,1.6,0.8,2.3,1.2
	c-0.6,0.8-1,2.1-1.7,2.3c-2.7,0.7-3.8,2.7-4.4,5.1c-0.3,1.5-1,2.3-2.6,2.4c-2.1,0.1-2.7,1.9-3,3.5c-0.4,2.3-1.5,4.1-3.4,5.5
	c-3.4,2.6-5.1,6.4-5.9,10.4c-0.8,4.2,0.9,8.1,3.6,11.4c0.9,1.1,2,2.1,3,3.1c1.1,1,2,2,1.2,3.8c-0.2,0.5,0.4,1.6,0.8,2.2
	c1,1.6,2.2,3.1,3.3,4.7c1.8,2.7,2.5,5.4,0.5,8.3c-0.3,0.4-0.2,1-0.4,1.5c-0.3,1-0.5,2.5-1,2.7c-0.9,0.3-2.2-0.2-3.2-0.6
	c-1.5-0.7-2.8-1.7-4.2-2.5c-0.2-0.1-0.5-0.2-0.6-0.4c-0.3-3.5-4.1-4.4-5.3-7.1c-1.1-2.3-1.8-4.8-2.2-7.3c-0.4-2.5-1.4-4.2-3.8-5.2
	c-1-0.4-1.9-1.2-2.8-2c-1.5-1.3-3-1.7-4.7-0.3c-2,1.5-3.8,1.5-6.1,0.1c-1.4-0.9-3.4-1.2-5.1-1c-1.8,0.1-3.5,1.1-5.2,1.7
	c-0.4,0.1-0.7,0.4-1.1,0.4c-2.3,0.1-4.6,0-6.9,0.2c-1,0.1-1.9,0.5-2.5,0.7c-0.2,2.5-0.3,4.4-0.6,6.3c-0.1,0.4-0.6,1.1-1,1.1
	c-2.2,0.3-4.5,0.7-6.7,0.7c-2.1,0-4.3-0.3-6.3-0.7c-1.7-0.3-3.3-0.9-4.9-1.6c-2-1-3.7-0.2-5.5,0.5c-1.5,0.6-3,1-4.7,1.5
	c0.1,1.7-1,3.3-3,3.1c-2.5-0.3-4.1,1.3-5.3,2.5c-3.5,3.8-5.9,8.1-4.6,13.7c0.7,3,0.5,6-1.4,8.8c-0.8,1.3-0.9,3.2-1.1,4.9
	c-0.4,3.6-0.6,7.1-0.8,10.7c0,0.5-0.1,1,0,1.4c1.6,3.6,3.1,7.4,5,10.9c1.3,2.4,3.3,4.3,4.4,7.1c0.8,2.1,2.7,4.5,6.1,4.3
	c1.6-0.1,3.3,1.1,5,1.7c0.5,0.2,1,0.5,1.5,0.4c3.5-0.8,6.9-1.8,10.4-2.7c0.8-0.2,1.6-0.6,2.4-0.7c6.2-0.9,8.9-3.4,9.2-9.6
	c0.3-6,2.8-7.3,7.7-9c1.4-0.5,2.8-1.1,4.3-1.6c0.7-0.3,1.5-0.7,2.2-0.5c1.9,0.4,3.5,0.1,5.2-0.9c1.6-1,2.8,0.1,3.3,1.6
	c0.7,2,0.5,3.9-1.1,5.5c-0.6,0.7-1.2,1.7-1.3,2.6c-0.4,2.9-0.9,5.9-0.8,8.8c0.1,2.6-1.1,4.5-2.3,6.5c-0.6,1-0.8,2.4-0.5,3.5
	c0.6,2.4,0.4,4.3-1.6,5.9c-0.5,0.4-0.5,1.3-0.8,1.9c0.7,0.2,1.5,0.7,2,0.5c3.7-1.3,7.4-1.7,11.3-1c0.5,0.1,1.1-0.1,1.5-0.5
	c3.6-3.3,8.2-2.1,12.4-2.7c0.8-0.1,2.1,0.8,2.5,1.6c0.6,1.4,1.3,1.5,2.5,1.2c1.7-0.4,2.7,0.5,2.9,2.1c0.5,2.8,1.6,5.6-0.4,8.4
	c-0.4,0.6-0.5,1.8-0.1,2.4c1.8,3.3,0.2,6.1-1.1,8.9c-0.7,1.5-0.5,2.6,0.4,3.7c2.5,3.1,4.7,6.6,8.6,8.2c0.1,0,0.1,0.1,0.2,0.1
	c2.1,2.8,5,3,8.2,2.7c1.7-0.1,3.1-0.2,4.5-1.6c1.2-1.3,3-2.1,4.7-2.8c0.5-0.2,1.8,0.5,1.9,1c0.6,2-0.1,3.8-1.9,5
	c-2.4,1.6-2.4,2-0.1,3.8c1.9,1.6,1.9,1.7-0.2,2.9c-0.2,0.1-0.4,0.3-0.6,0.4c-3.6,2.3-3.8,2.2-5.4-1.6c-1.4,1.9-2.4,1.1-3.7-0.2
	c-0.5-0.5-1.5-0.6-2.4-0.8c-0.3-0.1-0.9,0.2-1.1,0.1c-2-1.2-3.5-1.2-4.4,1.3c0,0.1-1.5-0.1-2.3-0.4c-0.8-0.3-1.6-1-2.4-1.1
	c-1.5-0.3-2.1-1.2-2-2.6c0.1-1.8-0.5-2.6-2.4-2.2c-0.7,0.1-1.5-0.2-2.1-0.6c-1.4-0.9-2.5-1-4.2-0.3c-1.1,0.5-3-0.5-4.3-1.2
	c-1.3-0.7-2.1-1.9-1.2-3.7c0.7-1.4-1-3.8-3.1-5.1c-3.2-2-6.3-4.1-9.4-6.3c-0.6-0.4-0.8-1.4-1.3-2.1c-2.9,1.7-5.8,0.7-8.9,0
	c-3-0.6-6-0.8-9-1.2c-6.1-0.7-11.3-3.3-15.4-7.9c-2.7-3.1-6.3-4.4-10.1-5.4c-0.7-0.2-1.4-0.6-2.1-0.8c-0.5-0.1-1.1-0.3-1.4-0.1
	c-2.3,1.2-4.5,2.5-6.8,3.7c-2.9,1.5-5.8,0.5-8.4-0.6c-6-2.3-12.3-4-18.4-6c-3.6-1.1-6.7-3.7-10.2-5.5c-1.5-0.8-3.2-1.2-4.9-1.8
	c-1.7-0.6-4.1-0.8-5.1-2.1c-2.5-3.1-6.3-4.3-9.1-6.8c-4.4-4-5.6-6.6-2.9-12c0.1-0.3,0.4-0.6,0.3-0.8c-0.8-3.1-1.1-6.4-2.6-9.1
	c-1.6-3-4.2-5.5-6.6-8.1c-3.4-3.6-6.8-7.1-10.4-10.4c-3.1-2.8-3.3-3.1-0.8-6.4c-1.5-1.4-3-2.7-4.4-4.1c-1-1-1.7-2.1-2.6-3.2
	c-0.9-1.1-2-2.2-2.9-3.4c-1.4-1.8-3-3.6-4.1-5.6c-1.3-2.3-2.2-4.9-3.2-7.4c-0.1-0.3-0.4-0.5-0.4-0.8c-0.4-2.4-0.5-4.9-1.3-7.1
	c-0.4-1.2-1.7-2.3-2.9-3.1c-1.4-0.9-3-1.4-4.8-2.2c0.1-0.1-0.1,0.1-0.1,0.3c-0.5,5.6-0.1,10.8,4.9,14.6c0.3,0.2,0.7,0.5,0.8,0.8
	c1,3.1,1.8,6.2,3.1,9.2c1.1,2.5,2.4,4.9,4.1,7c1.8,2.3,3.4,4.4,3.2,7.5c0,0.6,0.5,1.2,0.9,1.7c2,2.5,4.3,4.8,6,7.5
	c1.2,1.9,1.7,4.2,2.4,6.4c0.5,1.6-1.1,3.8-3.2,4c-0.9,0.1-2.2-1-2.9-1.9c-2-2.4-3.7-5.1-5.9-7.4c-1-1.1-2.7-1.5-4-2.4
	c-1.5-1-1.7-2.5-1.1-4.3c1.6-4.3-0.8-8.5-4.9-10.7c-2.9-1.6-5.5-4-7.7-6.6c-1.8-2.1-0.9-3.2,1.9-3.2c0.4,0,0.7-0.1,1.2-0.1
	c0.8-3.6-0.6-6.2-3.2-8.2c-1.6-1.2-2.3-2.6-2.4-4.7c-0.1-1.7-0.7-3.4-1.2-5.1c-1.5-5.3-3.1-10.5-4.4-15.8c-0.9-3.6-3.7-5.5-6.2-7.7
	c-0.9-0.8-1.8-1.7-2.7-2.4c-0.9-0.6-1.9-1.3-3-1.5c-2-0.4-3-1.6-3-3.5c0-3.5-1.5-6.3-3-9.2c-0.7-1.3-1.2-2.4-0.3-3.9
	c0.3-0.4-0.2-1.3-0.5-2c-0.5-1.1-1.6-2.2-1.5-3.1c0.4-3.9-1.2-7.2-2.5-10.7c-0.5-1.3-0.1-3-0.2-4.5c0-1.2,0.1-2.5-0.2-3.7
	c-0.6-2-0.6-3.6,0.7-5.3c1.4-1.8,2.2-3.9,2.1-6.4c-0.1-2.2,0.2-4.4,0.5-6.5c0.1-0.7,0.5-1.7,1-2c1.8-1.1,2-2.9,2.6-4.6
	c0.9-2.7,2-5.3,3.2-7.9c1.7-3.7,2.2-7.6,2.4-11.6c0.1-2.9,0.2-5.8,0.3-8.7c0-0.5-0.3-1-0.4-1.5c-0.6-2-2.5-3.6-1.4-6
	c0.1-0.3-0.2-1-0.5-1.1c-3-1.9-4.8-4.7-6-7.9c-0.3-0.7,0-1.6,0-2.4c0.9,0,2.2-0.4,2.7,0.1c2.5,2.4,4.9,5,7.2,7.6
	c0.3,0.3,0.5,0.8,0.5,1.2c0.3,2.9,1.3,5.4,3.5,7.4c1.6,1.4,1.4,2.9-0.3,4.2c-0.3,0.2-0.5,0.6-0.7,0.8c1,0.9,2.4,1.6,2.6,2.6
	c0.3,1-0.7,2.3-1.1,3.6c1.6-0.8,2.8-1.6,2.3-3.6c-0.1-0.5,0-1.2,0.2-1.5c1.5-1.8,0.6-3.4-0.4-5c-0.2-0.4-0.6-0.9-0.5-1.2
	c0.8-2.5-0.9-3.3-2.6-4.3c-1.6-1-2.6-2-0.7-3.9c1.4-1.4-0.2-2.5-1.2-3.3c-2.1-1.5-4.2-2.9-6.4-4.3c-1.5-1-2.4-2-0.5-3.5
	c-2.4-2.1-2.3-2.2,0.9-4.8c-0.8-0.7-1.6-1.4-2.3-2.1c-0.9-1-0.7-1.9-0.7-3.3c0-3.2,3-4.2,3.5-6.9c-0.6,0.6-1.1,1.4-1.7,1.9
	c-1.2,1-2.6,1.6-3.9,0.4c-1.2-1.1-0.5-2.3,0.2-3.5c0.8-1.3,1.5-2.8,2.3-4.4c-3.4-1.3-1.1-3.8-1.5-5.7c-1.4,0.4-2.7,0.4-3.6,2
	c-0.5,0.9-3.9-0.9-3.9-2.3c0.1-1.5,0.6-3,1-4.5c0.3-1,0.5-2.1,0.8-3.1c-1.8-1.5-2.9-2.9-2.8-5.7c0.1-2.6-0.1-5.4-0.2-8.1
	c0-1,0.3-2,0.4-2.4c-0.5-2.3-0.9-4.2-1.4-6c-0.3-1.1-0.3-2.3-0.9-3.3c-1-1.7-1.5-3.3,0.2-5.4c-2.9,0.8-3.8-0.8-4.7-2.6
	c-0.6-1.2-1.9-2.1-3.1-2.9c-2.2-1.4-4.1-2.6-4.2-5.7c-0.1-2.3-0.7-4.7-1.6-6.8c-0.4-0.9-2.2-1.4-3.4-1.8c-0.5-0.1-1.2,0.5-1.9,0.8
	c0.5,1.4,1,2.8,1.5,4.1c-1.8,1.6-2.7,1.5-4.1-0.1c-1.3-1.6-2.5-2.6-5-2.1c-1.9,0.4-4.1-0.5-6.2-1c-0.3-0.1-0.4-0.9-0.5-1.4
	c1.9-0.6,1.9-3.8,4.6-3.4c0.4,0.1,0.8-0.3,1.2-0.6c1.2-0.9,2.3-1.9,3.7-3.1c-1.1,0.1-2.4-0.1-3.4,0.3c-1.8,0.6-3.3,1.7-5.1,2.3
	c-1.7,0.6-3.6,0.7-5.4,1c0,3.3,0,3.5-3.8,3.7c-3.4,0.2-6.7-0.1-10.1-0.1c-1.5,0-3.1,0.5-4.6,0.5c-1.4,0-2.9-0.4-4.3-0.6
	c-0.3,0-0.7-0.1-0.9,0c-1.6,1.3-3.2,0.7-4.7-0.1c-2.1-1-4.3-2-6.3-3.2c-2-1.2-3.8-1.5-5.7,0.3c-0.2-1-0.3-1.7-0.4-2.4
	c-0.1,0.2-0.3,0.4-0.4,0.6c-2.2-1.1-4.3-2.1-6.4-3.2c-0.2-0.1,0-1.5,0.4-1.7c1.9-1.2,3.8-0.6,5.6,0.4c1,0.5,2.1,0.9,3.3,1.1
	c1.7,0.3,3.5,0.1,5.2,0.6c0.9,0.3,1.6,1.4,2,1.7c2.8,0.4,5.2,0.9,7.7,1.2c0.7,0.1,1.6,0,2.1-0.4c1.7-1.3,3.2-1.8,4.2,0
	c2-1.6,3.9-3,5.5-4.3c-0.7-0.5-1.5-1.2-2.9-2.2c-1.2,0.3-1.1,0.2-0.7-2.2c0.2-1.1-0.4-2.4-0.7-3.6c-2.4,1.7-2.4,1.7-4.7-2.1
	c2-1.9,3.9-3.6,5.6-5.5c1.4-1.4,1.1-2.2-0.8-2.8c-1.5-0.4-2.1-1.2-1.8-2.7c0.6-2.6-0.1-5.8,3.5-6.8c0.3-0.1,0.5-0.6,0.6-0.9
	c1.4-5.2,4.7-7,9.8-5.2c0.6-0.6,1.2-1.4,1.9-1.8c1.3-0.7,2.7,0.1,3.1,1.6c0.1,0.4,0.1,0.8,0.2,1.1c0.3,0.6,6.7,3.1,7.2,2.8
	c0.7-0.5,1.5-1.1,1.6-1.8c0.4-1.7,0.7-3.1,3.3-1.6c0-0.3,0-0.6,0-0.9c-0.8-0.6-1.7-1.2-2.5-1.7c-0.2-0.1-0.7,0.1-0.9-0.1
	c-1.8-2-4-3.9-5.3-6.2c-0.5-0.8,0.8-2.8,1.6-4.1c0.3-0.6,1.3-0.8,2.7-1.5c-0.6-0.3-1.4-0.5-1.5-0.8c-0.1-0.9-0.1-1.9,0.2-2.7
	c0.1-0.4,1.3-0.6,1.9-0.4c3,0.9,5.9,2,8.9,3.1c1.1,0.4,1.8,1.6,0.6,2.2c-3.1,1.6-1.2,3.1-0.1,4.6c0.1,0.2,0.3,0.3,0.5,0.5
	c0.1,0,0.1,0,0.2,0.1c0.9-1.7,1.7-3.4,2.8-5.5c-0.6-1-0.4-2.1,1.1-3.5c1-0.9,0.9-3,1.2-4.5c0.2-1,0.1-2.2,0.5-3.2
	c0.9-2.6,3.6-3.1,5.3-1c2.3,2.8,2.6,2.9,6,1.7c0.1,0,0.1,0,0.2-0.1c2.7-0.8,5.5-2.3,8,0.9c0.4-0.9,0.6-1.4,0.9-2.1
	c0.1,0.9,0.1,1.6,0.2,2.4c1.3-0.6,2.4-1.2,3.6-1.7c0.1,0.1,0.2,0.3,0.2,0.3c-1.2,2.8-0.7,3.5,2.4,3.2c2-0.2,3.1-0.2,3.4,2.5
	c0.2,1.5-0.2,4,2,5.1c0.3,0.1,0.5,1.1,0.3,1.5c-0.9,2.5,0.7,3.6,2.4,4.8c0.5,0.3,1,0.8,1.2,1.3c1.2,2.2,1.9,5,3.7,6.5
	c2.7,2.3,4.4,4.9,6.1,8c1.1,2,3.3,3.5,3.8,6.3c0.2,1.4,1.8,2.5,2.5,3.4c1-1,1.6-2,2.4-2.3c1.9-0.6,3.9-0.5,4.6,1.6
	c3.1-0.2,6-0.4,8.9-0.5c0.5,0,1.1,0.7,1.7,1.1c0.4,0.3,1,0.9,1.3,0.8c0.5-0.3,0.8-0.9,1.1-1.4c0.3-0.5,0.5-1.1,0.7-1.7
	c0.4,0.4,0.9,0.9,1.3,1.3c1.2,1.2,0.7,2.6,0.5,4.1c-0.2,1.5,0,3.1,0.1,4.5c1.7-1.2,3-2.1,4.2-3c0.3,1.3,0.5,2.6,0.8,3.9
	c0,0,0.5-0.1,0.7-0.5c1.2-2.3,2.7-1.4,3.9-0.2c2.2,2,4,4.4,6.3,6.3c1.2,1,2.9,1.7,4.5,2.1c1.9,0.4,4.5,2.5,4.4,4.4
	c0,0.6-0.7,1.3-1.3,1.6c-0.6,0.4-1.4,0.4-2.3,0.6c1.5,3,4.3,2.3,6.5,2.9c0.8,0.2,1.7,0.3,2.5,0c1.5-0.5,2.9-1.5,4.3,0.4
	c0.9,1.2,2.3,2.1,3.3,2.9c0.3-1.4,0.3-1.4-2.6-3.5c0.5-3.3,2.6-4.7,5.6-5.1c1.7-0.3,2.8-0.1,4.2,1.3c2.2,2.2,4.9,3.8,7.5,5.6
	c0.5,0.3,1.3,0.2,2,0.2c1.3,0,2.6-0.1,3.8,0c2,0.1,2.4-0.5,2.3-2.5c-0.1-1.8-0.2-3.1-1.9-4.1c-0.2-0.1,0-1.5,0.3-2.2
	c0.5-1,1.3-1.9,1.9-2.8c0.6-0.8,1.2-1.7,2-2.9c1.1,3.8,1.1,3.8,3.7,2.9c-3.3-4.1-3-11.3,0.7-14.3c-0.8-3.2-1.7-6.3-2.2-9.5
	c-0.1-1,0.7-2.7,1.6-3.3c1.3-0.8,2.7-2.3,4.8-1c0.7,0.4,1.8,0,2.7,0.2c0.6,0.1,1.3,0.4,1.5,0.8c0.2,0.3-0.3,1-0.5,1.5
	c-0.4,1.1-1.2,2.2-1.2,3.3c-0.1,2.4-1.2,3.3-2.8,3c-0.8,1.9-1.5,3.5-2.2,5.3c2.6,0.3,3.8,2.3,4.4,4.9c0.1,0.5,0.9,0.9,1.1,1.4
	c0.7,1.3,1.2,2.7,1.9,3.9c0.6,1.1,1.2,2.5,2.2,3.2c1.3,0.8,3,1.1,4.5,1.5c2.1,0.5,4.3,3.1,3.8,5.4c-0.6,2.5,1,3.7,2,5.4
	c0.3,0,0.6-0.1,0.8-0.1c-0.1-0.7,0-1.6-0.4-2.1c-1.2-1.6-1.5-2.8,0.3-4.3c1.1-0.9,1.7-2.3,2.7-3.7c-1.4-1.5-3.7-2.9-1.7-6.4
	c-2.4-0.2-4.5-0.5-6.5-0.6c-1.6-0.1-4-2.3-3.7-4c0.1-0.6,1.1-1,1.6-1.5c-1.7-0.3-3.4-1.3-3.8-3.4c-0.4-1.8-0.5-3.7-0.6-5.6
	c0-1.3,0.2-2.6,0.4-3.9c0.4-2.6,2.4-4.6,4.8-4.8c1.7-0.1,2.4,0.8,1.8,2.4c-0.1,0.4-0.4,0.8-0.6,1.2c-0.8,1.7-1.6,3.3,0.6,4.7
	c0.4,0.3,0.7,1.1,0.6,1.6c-0.3,3,2.2,4.2,3.3,6.4c0.3-0.1,0.6-0.2,0.8-0.4c-0.4-0.8-0.6-1.8-1.2-2.3c-1-1-1.8-1.8-1.3-3.4
	c0.1-0.4,0-1.1-0.3-1.5c-1.8-2.8-1.6-4.2,0.9-6.8c0.4-0.4,0.4-1.2,0.8-1.6c0.6-0.7,1.4-1.5,2.2-1.7c2.2-0.5,4.6-1.2,6.8-1
	c1.9,0.2,3.6,1.8,5.4,2.7c-0.3,0.5-0.6,1.1-1.1,1.5C362.4,112.8,361.6,113.2,360.9,113.5c-1.8,0.7-3.7,1.7-4.7-1.2
	c-0.1-0.2-0.8-0.3-1.2-0.4c2,2.1,2.2,3.8,0.2,5.9c-0.3,0.3,0.5,1.8,0.7,2.7c0.5-0.4,1.3-0.7,1.5-1.2c0.6-1.9,1.5-3.1,3.9-2.5
	C361.2,115.6,361,114.5,360.9,113.5z M330.6,143.4c0.4-0.9,0.9-1.7,1.3-2.6c-0.1-0.2-0.2-0.4-0.3-0.6c-1.1,0.4-2.3,0.7-3.4,1.1
	c0,0.2-0.1,0.5-0.1,0.7C328.9,142.4,329.8,142.9,330.6,143.4c-0.6,1.2-1.3,2.3-1.9,3.4c0.1,1.9,0.3,3.8,0.4,5.7
	c0.4-1.3,0.6-2.6,1.3-3.7c0.8-1.2,2-2.2,2.8-3.1C332.1,144.7,331.3,144.1,330.6,143.4z M405.6,286.6c0.1,0.1,0.1,0.2,0.2,0.3
	c0.9-0.1,2.1,0,2.7-0.5c1.2-1.1,0.4-2.3-0.6-3.1c-1.3-1.1-2.7-2.2-4.2-3.2c-1.5-1-3.7,0-3.8,1.5c0,0.6-0.5,1.7-0.8,1.7
	c-0.8,0.1-1.8-0.1-2.4-0.6c-0.4-0.3-0.3-1.4-0.1-2c0.1-0.5,0.6-0.9,0.9-1.4c-3.1,0-5.9-0.1-8.7,0.1c-1.4,0.1-2.3,0-2.9-1.4
	c-0.7-1.6-1.4-3.2-2.5-4.5c-0.8-0.9-2.2-1.3-3.2-2c-0.9-0.6-1.8-1.3-2.6-2c-1-0.8-2-1.8-3.2-2.3c-1.1-0.5-2.4-0.6-3.6-0.4
	c-0.9,0.1-2.1,0.6-2.5,1.3c-1.4,2.4-4.7,3.3-5.1,6.5c0,0.1-0.4,0.3-0.6,0.3c-4.7,0.3-5.7,5-8.5,7.5c1.1-0.3,2-1,2.9-1.6
	c0.7-0.4,1.4-0.7,2.1-1.1c0,0.7,0,1.5,0.1,2.2c0,0.2,0.1,0.4,0.3,1.1c1.1-0.7,2.1-1.3,3.1-1.9c0.5-0.4,1-0.8,1.6-1.1
	c1-0.6,2-1,3-1.6c0.7-0.5,1.2-1.3,2-1.9c0.3-0.3,0.9-0.1,1.4-0.2c-0.1,0.5-0.1,1.1-0.3,1.6c-0.4,0.6-0.9,1.1-1.4,1.7
	c0.1,0.3,0.2,0.6,0.3,0.9c2-2.9,3.6-1.6,5.3-0.3c0.6,0.5,1.9,0.5,2.7,0.3c1.8-0.6,3.5-1.5,5.3-2.2c0.4-0.2,1.2-0.2,1.3-0.1
	c0.8,1.7,2.5,1.4,3.9,2c0.6,0.2,1,0.9,1.8,1.7c-1.9,0.5-3.4,1.6-4.6,1.2c-2.4-0.7-3.4,0.9-4.9,2c-0.6,0.4-1.2,1.1-1.8,1.2
	c-2.5,0.6-2.6,3-3.5,4.7c-0.7,1.3,0.3,1.8,1.3,2.4c0.3,0.2,0.3,1,0.3,1.5c-0.1,1.5-0.2,3-0.4,4.6c-0.1,1.3-0.9,3-0.3,3.7
	c1.3,1.8,1.4,3.7,1.5,5.8c0,1.4,0.9,2.5,2.6,2.7c1.9,0.2,2.4-1,2.7-2.4c0.6-2.6,0.4-5-0.5-7.6c-0.9-2.5-1.4-5.2-1.3-7.8
	c0.1-1.7,1.5-3.4,2.5-4.9c0.6-1,2-1.6,2.3-2.6c0.7-2.1,2.1-2.2,3.8-1.9c3.8,0.6,6.3,5.4,4.7,8.8c-0.5,1-0.7,2.1-1,3.1
	c0.3,0.1,0.5,0.2,0.8,0.2c0.4-0.6,0.6-1.4,1.1-1.9c0.6-0.6,1.4-1.3,2.2-1.3c0.5,0,1.2,1,1.5,1.7c0.4,0.7,0.4,1.6,0.7,2.4
	c0.2,0.6,0.6,1.1,1,1.6c0.6-0.5,1.7-0.9,1.8-1.4c0.2-1.5-0.1-3.1,0.1-4.7c0.1-1.2,0.2-2.6,0.8-3.5
	C403.3,288.1,404.6,287.4,405.6,286.6z M425.6,285.2c-2.7,1.2-5.3,2.3-7.9,3.5c-1.4,0.7-2.8,1.6-4,2.6c-0.6,0.5-1,1.6-0.9,2.3
	c0.5,2.6-1.3,6.2-3.9,6.3c-3,0.1-4.4,1.7-5.6,3.9c-0.9,1.7-2.4,2.4-4.8,1.8c0.9-1.2,1.6-2.2,2.5-3.5c-1.9,0.3-4.4,4.2-3.8,5.4
	c0.2,0.3,0.7,0.5,1.1,0.7c2.2,1.2,4.1,0.2,5.9-0.8c2.1-1.2,3.6-3.4,6.2-3.7c0.2,0,0.3-0.5,0.5-0.8c0.9-1.2,1.8-2.4,2.8-3.5
	c1.4-1.4,2.9-2.6,2.3-5c-0.4-2.1,1.9-3.9,4.1-3.1c2.3,0.8,3.5-0.5,5.3-1.6c-0.7-0.4-1.1-0.7-1.6-1
	C426.4,288.3,426.7,287.3,425.6,285.2z M332,260.5c0.4-0.4,0.9-0.6,0.9-0.8c0-2.4,0.8-4.9-0.7-7.3c-1.3-2.2-2.2-4.6-3.1-7
	c-0.5-1.3-0.7-2.8-1.4-3.8c-0.7-1-1.9-2-3.1-2.2c-0.6-0.1-1.6,1.4-2.2,2.3c-0.2,0.4,0.3,1.3,0.5,1.9c0.2,0.5,0.7,0.8,0.8,1.2
	c0.6,2.8,1.7,5.3,4.7,6.2c0.4,0.1,0.7,0.6,0.8,1c1,2.2,2.8,4.2,1.9,7C331.2,259.4,331.7,259.9,332,260.5z M287.3,182
	c-1.4-0.5-2.3-0.2-4.1,1.3c-2,1.6-3.8,1.4-5.6-0.5c-0.9-0.9-1.9-1.6-2.9-2.4c-0.4,1-0.1,1.7-0.2,2.4c-0.1,0.7-0.4,1.8-0.9,2.1
	c-1.7,0.8-3.6,1.2-5.4,1.9c-0.4,0.1-0.7,1.2-0.6,1.5c0.4,0.5,1.1,1,1.7,1c2.4,0,5,0.6,6.9-1.7c0.3-0.4,1.1-0.4,1.7-0.6
	c1-0.3,2.1-0.4,3-0.9C283.1,184.7,285.3,183.3,287.3,182z M266.2,158.7c0.2-1.4,0.5-2.8,0.6-4.2c0.1-1-0.4-2.2,0-3.1
	c0.4-0.7,1.6-1.1,2.4-1.6c-0.1-0.2-0.1-0.5-0.2-0.7c-1.3,0.3-2.8,0.3-3.9,0.9c-1.2,0.7-2.1,0.6-3.4,0.2c-2-0.7-4.1-1-6.2-1.3
	c-0.4-0.1-0.9,0.7-1.3,1.1c0.4,0.3,0.7,0.9,1.1,0.9c1.9,0.1,3.8-0.1,5.6,0.3c1.1,0.2,1.9,1.4,2.9,2.1c-0.7,0.4-1.5,0.7-2.2,1.1
	c-0.6,0.3-1.1,1.1-1.7,1.6c-0.6,0.5-1.4,0.8-2.2,1.3c1.2,1.6,2.1,2.2,3.6,0.5C263.8,155.2,264.9,155.5,266.2,158.7z M340.6,263.8
	c-1.2,1.8-4.5,2.2-3.6,5.5c2.3,1.1,4.4,1,6-1.2c0.3-0.5,0.5-1.5,0.2-1.9C342.6,265.4,341.7,264.7,340.6,263.8z M318.8,251.2
	c0.2,0,0.5-0.1,0.7-0.1c-0.1-2.3-0.2-4.7-0.4-7c-0.2-2.2-0.4-4.5-0.7-7.2c-1.1,1.7-1.9,2.9-2.6,4c0.2,0,0.4-0.1,0.5-0.1
	C317.3,244.2,318.1,247.7,318.8,251.2z M307.1,222.4c0.2,0.2,0.4,0.4,0.6,0.6c2.4-1.1,3.2-3.3,3.9-5.6c0.3-0.9,0.8-1.8,1-2.8
	c0.2-0.8,0.2-1.7,0.3-2.5c-0.3,0-0.6-0.1-0.9-0.1c-1.1,2-3.5,3.5-2.3,6.5c0.4,1.1,0.2,2.1-1.2,2.5
	C307.9,221.2,307.6,221.9,307.1,222.4z M273.1,154.1c-3.7-2-4.9-2.1-5.5-0.2c-0.9,3,2.2,1.8,3.1,3.1
	C271.5,156,272.2,155.1,273.1,154.1z M299.4,185.6c0.1,0.3,0.1,0.5,0.2,0.8c3.9-0.6,7.6,2.6,11.1,0.4c-2.9-0.7-6.2-1.5-9.4-2.2
	C300.7,184.5,300,185.2,299.4,185.6z M258,312.1c-0.2,0-0.4,0-0.6,0c-0.5,1.6-0.3,3.2,0.7,4.5c0.3,0.4,2,0.5,2.1,0.4
	c0.4-1,0.5-2.1,0.7-3.4c-0.9,0.4-1.4,0.6-2,0.8C258.6,313.5,258.3,312.8,258,312.1z M283.2,205.1c0.2,0.3,0.4,0.6,0.5,1
	c2.1-4.2,6.2-2,9.8-3.3c-2.1-0.6-3.8-1.7-5-1.3C286.6,202.2,285,203.9,283.2,205.1z M288.2,219.3c0.1,0.6,0.1,1.2,0.4,1.8
	c0.6,1.1,1.3,2.2-0.6,2.8c-0.3,0.1-0.2,1.1-0.3,1.8C290.5,222.9,290.6,221.4,288.2,219.3z M316.3,178.6c-0.2-0.2-0.3-0.3-0.5-0.5
	c-0.9,0.7-1.8,1.4-2.6,2.2c-0.1,0.1,0.8,1.1,1.6,2.1C315.4,180.8,315.9,179.7,316.3,178.6z M354.8,155.6c0.8,1.4,1.3,2.2,1.9,3.2
	c0.7-0.1,1.6-0.3,2.4-0.4c0.1-0.3,0.1-0.5,0.2-0.8C357.9,157.1,356.6,156.5,354.8,155.6z M325.6,258.3c-0.4,0.1-0.7,0.1-1.1,0.2
	c0.3,1.1,0.6,2.2,0.9,3.2c0.3-0.1,0.9-0.2,0.9-0.3C326.1,260.4,325.8,259.4,325.6,258.3z M192.6,85.9c-0.1,0.1-0.3,0.3-0.4,0.4
	c1.5,1.6,2.9,3.3,4.4,4.9c0.2-0.2,0.4-0.4,0.6-0.5C195.7,89.1,194.2,87.5,192.6,85.9z M186.8,100.8c0.2-0.1,0.3-0.3,0.5-0.4
	c-1.5-1.6-3-3.3-4.5-4.9c-0.1,0.1-0.3,0.2-0.4,0.4C183.8,97.4,185.3,99.1,186.8,100.8z M439.1,55.4c3.5-0.4,6,0.9,6.7,5
	c1.6-2.9,2.8-5.1,4.1-7.3c0.1-0.2,1.6,0.1,1.8,0.5c1.7,3.3,3.3,6.7,4.8,10.1c0.3,0.7,0.5,1.6,0.4,2.5c-0.2,3-0.4,6.1-0.9,9.1
	c-0.1,0.8-1.2,1.6-1.5,2c0.5,1.1,1,2.3,1.5,3.4c0.3,0.6,0.4,1.4,0.8,1.8c2.5,2.3,4.5,4.5,3.9,8.3c-0.2,1.3,0.3,3.1,1,4.3
	c1,1.8,0.3,2.7-1,3.8c-0.9,0.7-1.6,1.7-2.2,2.7c-0.2,0.3,0.3,1.1,0.6,1.7c0.3,0.6,0.8,1.1,1.1,1.6c0.2,0.2,0.1,0.8,0.3,0.8
	c2.8,0.4,3.5,2.8,4.7,4.7c1.3,1.9,3.5,3.4,3.2,6.3c0.4,0.1,0.9,0.2,1,0.2c0.4,1.4,0.5,2.6,1,3.7c0.3,0.8,1.2,1.3,1.7,2.1
	c0.8,1.1,1.5,2.2,2.3,3.3c0.7,0.9,1.7,1.6,2.3,2.5c1.5,2.3,3.1,4.6,4,7.1c0.6,1.6-1.6,2.9-4.5,3.1c-2.1,0.1-5.7-2.1-6.7-4.2
	c0.3,2.6-1.1,3.8-3,4.9c-2.7,1.6-4.4,1.5-6.7-0.7c-0.6-0.6-2-0.9-2.8-0.7c-2,0.5-3-0.3-3.5-2c-0.4-1.4-1-1.3-2.3-1.4
	c-2.4-0.2-5.1,0.7-7.1-1.8c-1-1.3-2.9-1.8-4.2-3c-1.1-1.1-1.8-2.6-2.8-3.9c-2.4,2.2-3.1,2.1-5.1-0.1c-2.1-2.2-4.8-4-6.8-6.4
	c-1.9-2.3-3.3-5-4.6-7.7c-0.3-0.7,0.7-2,1.2-3.3c-0.2-0.3-0.7-1-1.4-2.2c-0.6,1.1-0.9,1.9-1.4,2.6c-0.6,0.7-1.4,1.5-2.2,1.6
	c-4.4,0.4-9.7-3.9-8.2-8.9c-0.1,0-0.1-0.1-0.2-0.1c-5,1.6-7.5-1.8-10.4-4.9c-2.3-2.4-5.2-4.4-7.9-6.4c-2.6-2-5.2-3.9-8-5.6
	c-0.9-0.6-2.2-0.7-3.4-0.8c-1.1-0.1-2.3,0.1-3.3,0.5c-0.9,0.4-1.8,1-2.3,1.9c-1.5,2.3-3.7,3.4-6.2,3.8c-1,0.2-2.1-0.4-3.1-0.9
	c-1-0.4-2.1-0.9-2.6-1.7c-0.6-0.8-0.9-2.1-0.7-3c0.5-2.5,0.4-2.6-2.1-3c-1.3-0.2-2.8-1.2-3.6-2.3c-0.4-0.5,0.5-2,0.9-3.1
	c0.3-0.9,0.6-1.7,1-2.5c0.3-0.7,0.8-1.4,1-2.2c0.3-1,0.8-2.1,0.6-3c-0.1-0.6-1.3-1.3-2-1.3c-1.2,0-2.6-0.1-2.9,1.8
	c-0.1,0.9-0.7,2-1.4,2.5c-1.9,1.3-1.8,2.8-0.8,4.6c1.5,2.8,2.4,5.5-0.1,8.5c-0.8,1-0.7,2.7-1,4.1c3.3,2.4,3.3,2.4-0.7,6.9
	c-1.8-2.7-3.6-0.2-5.3,0.2c-2,0.5-3.9,1.5-5.8,2.4c-0.7,0.3-1.2,0.8-1.7,1.6c2.6-0.2,5.1,2.1,7.7-0.9c2.7-3.1,4.5-2.8,7.8,0.1
	c1,0.9,2.2,2,2.6,3.2c0.5,1.8-2.1,4-4.4,4.5c-1.1,0.2-2,0.9-3.1,1c-3.7,0.6-7.3,1.9-11.2,0.8c-0.3-0.1-0.5-0.3-0.8-0.4
	c-3.2-1.1-3.6-1.8-3.2-5.3c0.2-2.1-1.5-3.5-3.6-2.8c0.5,1.3,0.7,2.6,1.4,3.7c2.5,3.8,1.9,5.4-2.6,5.9c-1.1-1.3-2.2-2.6-3.4-3.8
	c-3,2.1-3.1,2.1-5.6-0.9c-0.3-0.3-0.7-0.6-1-0.9c-1.5-1.4-1.5-2.6,0.2-3.7c1-0.7,1.6-1.1,1.1-2.5c-0.6-1.6,0.4-2.5,2-2
	c2.2,0.8,3,2.4,2.9,4.7c0,1-0.3,2.3,1.3,2.4c0.7,0,1.4-0.2,2.1-0.3c-0.1-0.6-0.1-1.3-0.4-1.9c-0.6-1.4-1.3-2.7-1.8-4.2
	c-0.2-0.5,0-1.8,0.2-1.8c1.1-0.2,2.3-0.3,3.4-0.2c1.3,0.1,2.6,0.6,3.8,0.6c2.6,0,3.8-2.2,5.3-3.9c0.5-0.5,0.8-1.3,1.2-1.8
	c1.2-1.5,0.6-3.3-1.2-4c-0.7-0.3-1.9-0.9-1.9-1.2c0.2-0.9,0.8-1.7,1.3-2.5c0.2-0.3,0.9-0.4,1.2-0.7c0.3-0.4,0.4-0.9,0.6-1.4
	c-0.5-0.1-1.3-0.4-1.6-0.1c-0.9,0.6-1.6,1.5-2.3,2.3c-0.5,0.6-0.9,1.4-1.4,2.1c0.1,0.1,0.2,0.3,0.4,0.5c1.1,1,3,2,3,2.8
	c-0.2,1.9-1.2,3.7-2.2,5.4c-0.8,1.3-1.8,1.2-2.5-0.4c-1-2.3-1.6-2.5-3.5-1.1c-1.6,1.1-2.9,1.7-4.7,0.1c-0.9-0.8-2.5-0.9-3.8-1
	c-3-0.1-6,0.1-9,0c-0.6,0-1.5-0.9-1.7-1.6c-0.2-0.7-0.9-2.2,1.2-2.1c0.5,0,1-1.1,1.2-1.3c-0.1-1.5-0.5-2.7-0.2-3.7
	c0.3-1,1.1-2.3,1.8-2.5c0.8-0.2,1.9,0.9,2.9,1.3c1.9,0.8,2.9,3.3,5.6,2.6c0.5-0.1,1.3,0.8,2,1.3c1.1,0.9,1.9,1.2,2.5-0.5
	c0.5-1.3,1.3-2.4,2-3.7c0,0-0.2-0.2-0.3-0.1c-1.2,0.4-2.5,1.6-3.5,0.1c-1-1.5-2.7-3.1-1.3-5.4c0.2-0.4,0.4-1,0.2-1.3
	c-1.2-2.5,0.9-4,1.9-5.7c0.9-1.4,2-0.1,2.6,0.8c2.1,3.4,6.1,5.3,9.8,4.2c1-0.3,1.6-1.5,2.4-2.3c-0.2-0.3-0.3-0.5-0.5-0.8
	c-0.8,0.2-1.9,0.2-2.5,0.8c-1.9,1.5-5,1.8-6.7,0.1c-1.3-1.3-2.3-3-3.3-4.6c-0.2-0.3,0.3-1.3,0.8-1.5c1.8-0.9,3.4-1.8,3.5-4.1
	c0-0.1,0-0.2,0.1-0.2c2.8-0.7,3-4.5,6.1-5c1.1-0.2,2-1.2,3-1.8c0.7-0.4,1.4-1,2.1-1.2c1.7-0.4,3.4-0.8,5.2-0.8c2,0,4.3-0.3,5,2.5
	c0.1,0.3,0.7,0.5,1.1,0.8c-0.4-3.4,1.5-4.9,4.6-4.3c0.8,0.2,1.9-0.7,3.3-1.2c-4-1.4-3.6-4.2-2.3-7.3c-0.7-0.2-1.3-0.1-1.7-0.4
	c-0.4-0.3-0.9-1.4-0.7-1.5c2.2-2.1,1.4-5.1,2.4-7.5c1-2.1,2.2-3.9,4.9-4c0.8,0,1.7-0.2,2.4-0.7c2.3-1.4,3.3-1.2,4.5,1.2
	c0.3,0.6,0.7,1.1,1.1,1.6c0,0,0.9-0.4,0.9-0.5c-0.2-0.7-0.5-1.3-0.7-2c-0.2-0.7-0.4-1.4-0.6-2.1c0.7,0.2,1.4,0.3,2,0.7
	c0.9,0.5,1.8,1.5,2.5,0c-0.8-1-2-1.8-2.1-2.8c-0.1-0.9,0.7-2.4,1.5-2.7c0.9-0.4,2.5-0.1,3.3,0.5c1.6,1.3,2.9,3,4.5,4.8
	c1.9-0.7,3.3,0,3.6,2.4c0,0.3,0.3,0.6,0.5,0.7c1.8,0.6,3.6,1.2,5.3,1.7c0.2,0.1,0.5-0.2,0.9-0.4c-0.2-0.3-0.4-0.6-0.5-0.8
	c-0.3-0.6-0.6-1.2-0.9-1.7c0.8,0.1,1.9-0.2,2.2,0.2c0.9,1.1,1.5,2.4,2.3,3.7c2-0.9,2-0.9,5,0.4c0.9,0.4,2,1.2,3-0.2
	c0.3-0.4,1.9-0.3,2.7,0.1c0.5,0.3,0.9,1.4,0.8,2.1c-0.1,1.4-0.6,2.8-0.5,4.7c1.4-0.9,2.9-1.7,4.4-2.7c1.7,0.5,3.6,1.5,5-1.2
	c0.3-0.5,2-0.2,3.1-0.2c-0.1,1-0.2,2-0.3,3.1c0.3,0,1,0,1.9,0c-0.1-0.5-0.3-0.9-0.3-1.3c0-0.4,0.3-0.8,0.5-1.1
	c0.4,0.2,0.9,0.3,1.1,0.6c1.1,2.4,2.6,4,5.2,5c2.1,0.8,2.4,3.5,1.1,5.4c-0.2,0.3-0.4,0.6-0.7,1.3c0.7-0.2,1.1-0.2,1.3-0.4
	c2.1-1.4,4.9-1,6.5,0.9c0.5,0.6,1.4,1.1,2.1,1.2c2.3,0.2,4.6,0,6.9,0.2c1,0.1,2.5,0.8,2.7,1.5c0.3,1.1-0.2,2.6-0.8,3.6
	c-0.4,0.6-1.7,0.6-2.6,0.6c-2,0-4-0.2-5.9-0.3C439.1,54.9,439.1,55.2,439.1,55.4z M352.9,55.7c0,0.2-0.1,0.5-0.1,0.7
	c0.5,0.7,1.1,1.4,1.7,2.2c0.5-0.9,0.9-1.6,1.5-2.8C354.7,55.8,353.8,55.8,352.9,55.7z M370.7,31.4c-0.3,0-0.6,0-0.9,0.1
	c-0.9,1.6,0.6,2.7,1,4c0.2,0,0.4-0.1,0.6-0.1C371.2,34.1,371,32.7,370.7,31.4z M282.9,116.3c-0.4,0.9-0.6,2.3-1.2,2.6
	c-2.1,1-2.4,2.1-0.9,3.8c0.5,0.6,0.8,1.4,1.2,2.1c-2.5,1.5-2.6,3.3-0.1,4.5c1.8,0.8,4,0.9,5.9,1.4c1.7,0.4,3.3,1.1,5,1.6
	c-0.1,0.3-0.2,0.6-0.3,0.9c-0.7-0.1-1.4-0.3-2.1-0.4c-2.7-0.4-5.3-0.9-8-1.1c-1.1-0.1-2.4,0.7-2,2.4c0.6,2.7,2.4,4.5,5.1,4.8
	c1.2,0.2,1.8,0.4,1.3,1.8c-0.8,2.5,0.5,4,3.2,3.7c1.8-0.2,3.7-0.9,5.4-0.6c3.2,0.5,5.5-0.8,7.5-2.1c3.9,1.3,7.5,2.6,11.1,3.7
	c0.3,0.1,1.2-0.6,1.4-1c0.8-2.1,0.4-3.9-2-5.2c1-0.4,1.8-0.4,2.5-0.5c0.5-0.1,1.3-0.3,1.5-0.6c0.2-0.4-0.1-1.3-0.4-1.6
	c-1.4-1.1-2.9-2.2-4.5-3.1c-2.1-1.2-3.1-3.2-2.5-5.6c0.1-0.5,0.2-1.1,0-1.6c-0.6-2.7-1.3-5.5-1.9-8.2c0,0,0,0,0,0
	c-0.4-0.3-0.7-0.6-1.1-0.8c-1-0.6-1.9-1.2-2.9-1.8c-0.4,1.2-0.9,2.3-1,3.5c-0.1,1,0.2,2,0.2,3c0.1,0.9,0.1,1.9,0.2,2.8
	c-0.2,0-0.4,0.1-0.6,0.1c-0.2-0.9-0.5-1.8-0.7-2.7c-0.3-1.2-0.3-2.5-0.8-3.6c-0.2-0.5-1.3-0.7-2-0.7c-0.3,0-0.5,1-0.8,1.7
	c-0.4,0-1,0.1-1.7,0.2c0.9-2.2-0.3-3.3-2-3.3c-1.2,0-2.5,1.1-3.7,1.8c0.1-0.8,0.6-1.2,0.8-1.7c0.3-0.9,0.4-1.8,0.5-2.7
	c-0.8,0-1.7-0.3-2.4-0.1C287.7,114.5,285.3,115.4,282.9,116.3L282.9,116.3z M457.1,432.9c-0.7,0.8-1.6,1.6-2.1,2.6
	c-0.3,0.6-0.2,1.5-0.2,2.3c0.7-0.1,1.4,0,2.1-0.2c3.5-1,6.9-2.1,10.4-3.2c1.5-0.5,3.1-0.9,4.5-1.7c1-0.5,1.7-1.6,2.6-2.4
	c-0.9-0.8-1.8-2.2-2.8-2.4c-2.3-0.4-4.5-0.2-6.8-1.4c-1.4-0.8-3.6,0-5.4-0.1c-0.7,0-1.5-0.3-2.2-0.6c-2.6-1.1-5.1-2.3-7.6-3.6
	c-1.5-0.8-2.8-0.7-4.3,0.1c-1.3,0.7-2.5,0.8-3.5-0.8c-0.4-0.6-1.8-1-2.7-0.9c-3.1,0.5-6.2,1.6-9.4,1.7c-4.5,0.2-8.4,2.3-12.1,4.3
	c-2.9,1.6-5,4.6-7.5,7.1c1,1.6,2.1,1.5,3.4,0.6c1.9-1.3,3.6-2.9,6-3.5c1.7-0.5,3.1-2,4.7-3c0.7-0.4,1.4-0.9,2.3-1.4
	c-0.8,2.6,0,3.7,2.3,3.2c1.7-0.3,3.4-0.9,5-1.5c1.2-0.5,2-0.6,3.1,0.5c0.9,0.9,2.7,1.1,4.2,1.1c1.3,0,2.7-0.8,4-0.8
	c0.8,0,2.1,0.6,2.5,1.3c2,3.4,2.9,3.7,6.7,2.4c0.8-0.3,1.8-0.3,2.7-0.5C456.8,432.4,457,432.7,457.1,432.9z M484.7,205.7
	c-0.1-0.6-0.6-1.4-1-1.5c-0.5-0.1-1.3,0.4-1.6,0.9c-1.1,1.8-1.3,3.5-1.2,5.9c0.2,3.2,0.9,6.4,1.3,9.6c0.3,2.5,1.7,5.1-0.3,7.6
	c-0.2,0.2,0.2,1.3,0.5,1.3c1.8,0.4,1.1,1.6,1.1,2.7c0,0.8,0.3,1.9,0.8,2.3c0.5,0.3,1.7-0.1,2.3-0.5c1.5-0.9,2.8-2.5,4.3-2.8
	c2.6-0.5,4.3-3.4,7.3-2.7c0.2,0,0.5-0.4,0.9-0.6c-0.8,3.8-0.8,3.8,3.7,3.1c-1.3-1-1-4.5,0.9-6.4c0.5,0.6,0.8,1.4,1.5,1.7
	c0.9,0.5,1.1,2.5,2.5,1.4c1-0.8,2.4-2.4,2.2-3.3c-0.4-2-1.3-4.3-2.7-5.4c-1.7-1.3-4-1.7-4.5-4.4c-0.6,0.3-0.9,0.5-1.2,0.7
	c-0.6,0.3-1.3,0.6-2,0.9c-0.1-0.7-0.4-1.3-0.4-2c-0.1-1.7-1.3-2.4-2.8-1.5c-2,1.1-4,2.3-6,3.5c-0.6-3.8-0.9-3.9-4.4-1.3
	C485.5,211.9,485.2,208.8,484.7,205.7z M477.8,431.7c1.3,0.2,2.6,0.2,3.8,0.6c0.9,0.3,1.6,0.9,2.4,1.5c0.5,0.4,0.9,0.8,1.1,1.4
	c0.4,0.7,1,1.8,0.7,2.3c-0.3,0.6-1.4,0.9-2.3,1c-2.1,0.3-4.2,0.2-6.3,0.6c-0.8,0.2-1.3,1.3-1.9,2c0.9,0.5,1.8,1.3,2.8,1.5
	c0.7,0.1,1.5-0.5,2.3-0.8c3.4-1,6.7-2,10.1-2.8c0.7-0.2,1.7,0.1,2.4,0.4c1.8,0.8,2.6-0.2,3-1.7c0.8-2.9,2.1-3.7,5.1-3.5
	c0.9,0,1.9-0.3,2.7-0.7c1.5-0.7,2.9-1.9,4.5-2.1c1.9-0.3,2.7-1.4,2.5-2.8c-0.1-0.7-1.8-1.5-2.9-1.7c-1.8-0.3-3.9,0.2-5.6-0.3
	c-4.7-1.5-9.1-1.1-13.5,1.1c-0.8,0.4-1.9,0.3-2.9,0.2c-3.3-0.3-5.4,2.2-8.3,2.9C477.7,431,477.8,431.4,477.8,431.7z M282.9,116.3
	c1.3-0.8,2.5-1.8,3.9-2.3c4.7-1.7,4.7-1.6,2.2-5.9c-0.4-0.7-1.5-1.3-2.3-1.3c-1.9-0.1-3.1-0.8-3.7-2.5c-0.5-1.4-1.3-1.9-2.8-1.7
	c-0.7,0.1-1.5-0.1-2.2-0.3c-1.7-0.6-2.4,0.1-2.5,1.8c0,1.1,0.2,2.4-0.4,3.1c-2,2.3-4.2,4.4-6.6,6.4c-1.6,1.4-1.7,2.3-0.3,3.9
	c0.9,1,1.4,2.4,2.1,3.6c0.3,0.5,0.5,1.2,0.9,1.4c1.1,0.7,5.4-0.5,6.4-1.4C279.5,119.6,280.1,116.8,282.9,116.3
	C282.9,116.3,282.9,116.3,282.9,116.3z M287.7,98.1c1.4,1,2.3,0.7,3.2-0.6c1.1-1.7,1.7-3.8,4.1-4.3c0.3-0.1,0.6-0.6,0.6-0.9
	c0.1-2.4,2.1-2.8,4-4.2c0.3,0.5,0.6,1.2,1,1.6c1.6,1.3,4.7,0.1,5.2-1.8c0.3-1,0.7-2,1.1-2.9c0.6-1.4-0.1-3.1-1.4-2.9
	c-1.7,0.2-3.7,0.1-4.7,2.2c-0.3,0.5-1.7,0.9-2.3,0.7c-2.2-0.9-3-0.5-3.3,1.8c-0.1,0.6-0.1,1.1-0.2,1.3c-1.9,0.3-3.5,0.4-5.1,0.9
	c-1.3,0.4-2.4,1.2-3.6,1.9c-0.9,0.5-1.9,1.1-2.6,1.8c-0.5,0.5-0.8,1.3-0.7,2c0,0.3,1.1,0.5,1.8,0.8c-0.1,0.4-0.2,0.8-0.3,1.3
	C285.7,97.1,286.8,97.5,287.7,98.1z M323.5,112.1c-1.5-1.7-2.7-0.4-4,0.4c-1,0.7-2,1.4-2.9,2.3c-1.6,1.5,0.5,2.1,0.9,3.1
	c0.2,0.5,0.1,1.2,0.1,1.8c-0.4-0.3-1-0.6-1.3-1c-1-1.4-2.5-1.6-3.1-0.1c-0.3,0.8,0.1,2.2,0.7,2.7c2.5,2,4.6,4.2,6.2,7.1
	c0.3,0.5,2.1,0.9,2.7,0.6c3.7-2.4,5.6-9,0.6-11.7C325,115.2,325,113.8,323.5,112.1z M296.5,104.1c-0.8,0.3-1.7,0.8-2.3,1.4
	c-1,1.1-0.6,2.1,0.7,2.4c2.1,0.5,4.3,0.9,6.2-1.1c0.8-0.8,2.6-1.2,3.6-0.8c1.7,0.7,3,0.4,4.3-0.6c1.1-0.9,1.7-5,1-6.1
	c-0.3-0.4-0.9-0.9-1.2-0.8c-2.6,0.4-2.5-1-2.3-2.9c0.1-0.7-0.7-1.4-1.1-2.1c-0.7,0.5-1.9,0.8-2.1,1.4c-0.4,2-0.5,4-0.7,6.9
	C301.1,102.4,298.8,103.2,296.5,104.1z M300.6,101.2c0.2-1.4-0.3-3.6-1.3-4.4c-3.5-2.9-4.7-2.6-7.5,1c-0.6,0.7-1.1,1.4-1.7,2.1
	c-0.7,0.9-1.1,1.8,0.5,2.2c2.2,0.5,4.5,0.8,7.1,1.3C298.6,102.6,300.5,102,300.6,101.2z M201.3,226.9c0.1-1.7,0-3.4,0.2-5.1
	c0.2-2.4-0.8-5.3,2.2-6.9c0.2-0.1,0.1-1.3-0.2-1.7c-0.5-0.6-1.2-1.1-1.9-1.6c-1.9-1.3-3.3-0.9-3.4,1.4c-0.1,3.7,0,7.4,0.4,11.1
	c0.1,1.3,1.1,2.5,1.9,4.1C200.9,227.5,201.3,227.2,201.3,226.9z M158.5,152.9c0.8,0.1,1.6,0.3,2.3,0.1c0.2-0.1,0.4-1.6,0.2-1.8
	c-0.6-0.4-1.5-0.6-2.3-0.7c-2,0-4.1,0-6.1,0.3c-1.1,0.2-2.5,0.5-3.2,1.3c-0.5,0.5-0.5,2.3,0,2.8c0.8,0.9,2.2,1.6,3.4,1.7
	c1.2,0.1,2.5-0.5,3.6-1.2c0.7-0.5,1.1-1.5,1.9-2.7C158,152.7,158.2,152.8,158.5,152.9z M452.8,447c-0.3,0.1-0.5,2-0.4,2
	c1.8,0.6,3.7,1.6,5.5,1.5c2.2-0.2,4.4-1.3,6.6-2.2c0.4-0.2,0.8-1.1,0.8-1.7c0-0.2-0.9-0.7-1.4-0.7c-1.5-0.2-3-0.3-5.1-0.5
	C457.2,445.8,455,446.2,452.8,447z M375,138c-0.3,0.5-0.9,0.9-1.2,1.4c-1.1,1.7-0.5,4.1,1.3,5.5c1.4,1.2,2.7,0.4,3.7-0.5
	c1.7-1.5,1.1-3,0-4.7c-0.5-0.8-0.5-2-0.9-3c-0.3-0.6-0.8-1.1-1.2-1.7C375.9,136.5,375.5,137.3,375,138z M95.8,133.1
	c0.4,0.5,0.7,1.2,1.2,1.5c2,1.1,4,2.2,6.1,3.1c0.8,0.4,1.7,0.7,2.6,0.6c0.8-0.1,1.9-0.5,2.1-1.1c0.2-0.7-0.1-1.9-0.7-2.4
	c-0.5-0.4-1.5-0.1-2.3-0.2c-0.7,0-1.9,0-1.9-0.2c-0.5-2.5-2.6-2-4.7-2.4C97.7,132.2,96.7,132.6,95.8,133.1z M450.2,399.9
	c0.1-1.2,0.5-2.5,0.2-3.6c-0.5-2.4-4.2-3.8-5.8-2.5c-1,0.8-2.1,1.3-3.1,2c-0.6,0.4-1.3,0.8-1.8,1.3c-0.2,0.2-0.3,0.9-0.1,1.2
	c0.2,0.3,0.9,0.5,1.1,0.4c1.4-0.7,2.8-1.5,4.2-2.3c0.7-0.4,1.4-1.2,2-1.1c1.1,0.2,2.1,0.9,1.8,2.4c-0.1,0.7,0.3,1.4,0.5,2.1
	C449.4,400,449.8,399.9,450.2,399.9z M469.9,232.4c0.6-0.4,0.8-1.3,1.2-1.9c-0.6-0.3-1.3-0.9-1.9-0.9c-2.9,0.3-5.8,0.8-9.3,1.3
	C462.9,233.7,467.3,234.2,469.9,232.4z M445.9,410.4c0.9,1,1.8,1.8,2.8,2.7c0.5,0.4,1.1,0.6,1.6,0.9c0.2-0.6,0.7-1.4,0.5-1.8
	c-0.8-1.9-1.8-3.9-2.9-5.7c-0.4-0.6-1.6-1.2-2.2-1c-0.6,0.2-0.9,1.3-1.5,2.4C444.8,408.8,445.2,409.7,445.9,410.4z M477.5,251.7
	c0.1-0.8,0.3-1.6,0.4-2.5c0-0.6-0.1-1.3-0.1-1.9c-0.6,0.1-1.3,0-1.9,0.3c-0.5,0.2-1,0.7-1.5,1c-1.5,1.1-2.9,1.2-4.3-0.2
	c-0.4-0.4-1.1-0.4-1.7-0.6c0,0.7-0.3,1.7,0.1,2.1c0.5,0.7,1.4,1.3,2.2,1.4C473,251.6,475.3,251.6,477.5,251.7
	C477.6,251.7,477.5,251.7,477.5,251.7z M368.9,180.8c2.2-0.6,2.7-2.5,3.3-4.3c0.1-0.3-0.4-1.2-0.9-1.4c-1.7-0.8-5.3,1.7-5.4,3.5
	C365.9,180.6,367,181.4,368.9,180.8z M76,107.4c-0.1-0.1-1.8,0.4-2.1,1c-0.5,0.8,2.5,5.7,3.5,5.9c0.6,0.1,1.4-0.3,2.3-0.6
	C78.3,111.3,77.2,109.3,76,107.4z M138,109.8c-0.1,2.6,1.2,4.5,2.8,4c0.9-0.3,2-1.3,2.2-2.3c0.3-1.4-2.1-3.3-4.2-3.2
	C138.7,108.7,138.1,109.2,138,109.8z M388.7,214.4c-0.2,1.9,1.9,2.6,3,2.2c1.2-0.5,2-2.2,2.9-3.3c-1.1-0.5-2.1-1-3.6-1.6
	C390.2,212.7,388.8,213.5,388.7,214.4z M381.2,179.9c0-0.4,0-0.8,0-1.1c-0.1-1.4-0.9-2.5-2.3-2.1c-0.8,0.2-2,1.8-1.8,2
	c0.8,1.3,2,2.4,3,3.6c0.5-0.7,1-1.5,1.5-2.2C381.4,180,381.3,179.9,381.2,179.9z M308.1,118.1c0.6-0.2,1.8-0.2,1.9-0.5
	c0.3-1.2,0.7-3.1,0.1-3.5c-0.9-0.7-2.8-1-3.8-0.5c-1.5,0.8-0.2,1.8,0.6,2.7C307.4,116.8,307.8,117.5,308.1,118.1
	C308.2,118.1,308.1,118.1,308.1,118.1z M85.7,123.5c-1-1.5-1.8-2.9-0.5-4.5c0.1-0.1-0.4-0.9-0.8-1.1c-1-0.4-2.1-0.6-3.3-0.9
	C81.2,119.6,83.8,123.6,85.7,123.5z M420.4,433.7c-0.1,0.4,1.3,1.5,1.9,1.5c0.7-0.1,1.7-1.1,1.8-1.8c0.1-0.7-0.8-1.5-1.6-2.9
	C421.5,432,420.6,432.8,420.4,433.7z M476.8,422.9c-0.4,0.4-0.3,1.2-0.3,1.8c0,0.1,0.9,0.5,1.1,0.3c1-0.9,2-1.9,2.9-3
	c0.1-0.1-0.3-0.7-0.5-1.1c0-0.1-0.3,0-0.6,0C478.6,421.6,477.6,422.1,476.8,422.9z M457.3,404.8c0.2-0.5,0.6-1.3,0.5-1.9
	c-0.4-1.7-2.1-2.2-4.8-1.5C454.4,402.6,455.7,403.5,457.3,404.8z M83.2,43.5c0.1-0.1-0.5-1.3-0.9-1.4c-1.2-0.1-2.7,2.1-2,4.1
	C81.3,45.3,82.4,44.5,83.2,43.5z M471.2,416.5c0,0.4,0,0.8,0.2,1c0.2,0.2,0.9,0.2,1,0c0.5-0.9,1.3-2,1.2-2.9c0-0.5-1.5-0.9-2.5-1.5
	C471.2,414.9,471.2,415.7,471.2,416.5z M474.5,241.3c-0.1,0.5,0.7,1.1,1.1,1.7c0.6-0.9,1.3-1.8,1.6-2.7c0.1-0.3-0.5-1-1.3-2.2
	C475.2,239.6,474.6,240.4,474.5,241.3z M382.5,168.2c-0.8,0.2-1.7,0.4-2.5,0.7c-0.1,0,0,1.2,0.3,1.3c0.9,0.4,2.3,1,2.9,0.7
	C384.7,169.8,383.1,169,382.5,168.2L382.5,168.2z M109.7,136.2c-0.3,0.4-1.1,1-1,1.1c0.6,1,1.4,2,2.1,3c0.4-0.4,0.7-0.8,1.4-1.5
	C111.3,137.8,110.5,137,109.7,136.2z M463.4,411.4c1.1,1.1,2.1,2.2,3.3,3.2c0.1,0.1,0.6,0.1,0.8-0.1c0.2-0.1,0.3-0.7,0.2-0.8
	c-1.1-1.1-2.3-2.2-3.5-3.3C463.9,410.7,463.6,411.1,463.4,411.4z M379,138.7c0.7,0.5,1.3,1.2,2,1.4c0.5,0.1,1.1-0.6,1.7-1
	c-0.6-0.5-1.3-1.1-2.1-1.7C379.9,137.9,379.4,138.3,379,138.7z M278.1,441.9c0.6,0.9,1.3,1.6,2,2.4c0.3-0.4,1-1,0.9-1.2
	c-0.4-0.9-1.1-1.6-1.9-2.7C278.6,441.2,278,441.8,278.1,441.9z M460.3,404.8c0.3,1,0.6,2,1,2.9c0.2,0.4,0.7,0.6,1.1,0.9
	c0.2-0.5,0.7-1.2,0.6-1.4c-0.6-1-1.5-1.8-2.3-2.7C460.6,404.5,460.5,404.7,460.3,404.8z M382.5,168.2c0.6,0.2,1.2,0.6,1.9,0.7
	c0.4,0,1-0.3,1.2-0.7c0.2-0.3,0.1-1.1-0.1-1.2c-0.7-0.3-1.5-0.6-2.3-0.5C382.9,166.5,382.8,167.6,382.5,168.2
	C382.5,168.2,382.5,168.2,382.5,168.2z M420.8,162.8c-0.3,0.3-0.9,0.9-0.8,1c0.5,0.9,1.2,1.7,1.8,2.4c0.1,0.1,0.7-0.4,1.4-0.8
	C422.3,164.4,421.5,163.6,420.8,162.8z M71.7,71.2c-0.4,0.6-1.1,1.2-1.3,1.9c-0.1,0.4,0.6,1,0.9,1.5c0.5-0.5,1.1-1,1.9-1.7
	C72.6,72.2,72.2,71.7,71.7,71.2z M416.5,153.9c0.6,0.5,1.3,0.9,1.9,1.4c0.2-0.1,0.4-0.3,0.6-0.4c-0.4-1-0.8-2.1-1.3-3.1
	c-0.1-0.1-1,0-1,0C416.6,152.5,416.6,153.2,416.5,153.9C416.5,153.9,416.5,153.9,416.5,153.9z M484.6,436.7
	c-0.4-0.6-1.1-1.1-1.8-1.3c-0.3-0.1-0.9,0.5-1.3,0.9c0.5,0.5,1.1,1,2.5,2.3C484.3,437.8,484.8,437,484.6,436.7z M81.3,49.6
	c0.1-0.3-0.6-0.8-0.9-1.3c-0.5,0.6-1,1.2-1.3,1.9c-0.1,0.3,0.3,0.8,0.8,1.7C80.5,50.9,81.1,50.3,81.3,49.6z M232.5,392.9
	c-0.2,0.8-0.5,1.7-0.7,2.6c0,0.1,0.7,0.3,1.1,0.5c0.3-0.9,0.6-1.7,0.9-2.6C233.4,393.2,232.9,393.1,232.5,392.9z M449.8,404.3
	c-0.5,0.1-1,0.7-1.5,1c0.4,0.3,0.8,0.9,1.2,1c0.5,0,1.1-0.4,2.2-0.9C450.7,404.8,450.2,404.2,449.8,404.3z M405.7,469.4
	c-0.2-0.2-0.5-0.5-0.7-0.7c-0.7,0.8-1.4,1.6-2.1,2.4c0,0,0.1,0.1,0.4,0.6C404.1,471,404.9,470.2,405.7,469.4z M319.7,75.2
	c-0.3-0.1-1,0.7-1,0.9c0.2,0.5,0.6,1.1,1.1,1.4c0.3,0.1,0.8-0.5,1.7-1.1C320.7,75.8,320.2,75.3,319.7,75.2z M71.6,91.6
	c-0.1-0.4-0.7-1-1.1-1c-0.4,0-0.9,0.5-1.4,0.9c0.4,0.5,0.8,0.9,1.4,1.7C71,92.5,71.7,92,71.6,91.6z M389.1,209.6
	c-0.4,0-0.8,0.7-1.2,1.1c0.5,0.4,0.9,1,1.5,1.1c0.4,0.1,0.9-0.5,1.7-1.1C390.2,210.1,389.6,209.6,389.1,209.6z M184.7,152.9
	c-0.8,0-1.6-0.1-2.4,0.1c-0.1,0-0.1,0.9-0.2,1.4c0.9,0,1.7,0,2.6,0C184.7,153.9,184.7,153.4,184.7,152.9z M318.4,143.1
	c-0.5,0.2-1.1,0.7-1.3,1.2c-0.1,0.3,0.5,0.8,0.9,1.2c0.4-0.4,0.9-0.8,2.1-2C319.3,143.4,318.8,142.9,318.4,143.1z"/>
</svg>
