<?xml version="1.0" encoding="UTF-8"?>
<svg id="Layer_1" xmlns="http://www.w3.org/2000/svg" version="1.1" viewBox="0 0 105 85.56">
  <!-- Generator: Adobe Illustrator 30.2.1, SVG Export Plug-In . SVG Version: 2.1.1 Build 1)  -->
  <defs>
    <style>
      .st0 {
        fill: #fff;
      }
    </style>
  </defs>
  <path class="st0" d="M74.98,50.91l-66.98-.05c-2.92,0-5.23-2.27-5.41-5.09-.11-1.82-.11-3.63-.03-5.46.13-2.9,2.48-5.05,5.45-5.05l66.74-.03-20.81-20.93c-2.31-2.32-2.32-5.79-.02-8.08l2.92-2.94c2.33-2.34,5.78-2.36,8.15.01l35.87,35.88c2.17,2.17,2.18,5.61,0,7.79l-35.87,35.88c-2.26,2.26-5.66,2.43-7.94.19l-3.35-3.29c-2.09-2.35-2.02-5.67.3-7.85l20.96-20.97Z"/>
</svg>